{
classes = (
{
code = "knmvR knmvRR knAIlengthmark knKAc2 knKHAc2 knGAc2 knGHAc2 knNGAc2 knCAc2 knCHAc2 knJAc2 knJHAc2 knNYAc2 knTTAc2 knTTHAc2 knDDAc2 knDDHAc2 knNNAc2 knTAc2 knTHAc2 knDAc2 knDHAc2 knNAc2 knPAc2 knPHAc2 knBAc2 knBHAc2 knMAc2 knYAc2 knRAc2 knLAc2 knVAc2 knSHAc2 knSSAc2 knSAc2 knHAc2 knRRAc2 knLLAc2 knLLLAc2 knKSSAc2 knTAc2_RAc2 ";
name = BELOW_BASE_MARKS;
},
{
code = "knmvR.following knmvRR.following knAIlengthmark.following knKAc2.following knKHAc2.following knGAc2.following knGHAc2.following knNGAc2.following knCAc2.following knCHAc2.following knJAc2.following knJHAc2.following knNYAc2.following knTTAc2.following knTTHAc2.following knDDAc2.following knDDHAc2.following knNNAc2.following knTAc2.following knTHAc2.following knDAc2.following knDHAc2.following knNAc2.following knPAc2.following knPHAc2.following knBAc2.following knBHAc2.following knMAc2.following knYAc2.following knRAc2.following knLAc2.following knVAc2.following knSHAc2.following knSSAc2.following knSAc2.following knHAc2.following knRRAc2.following knLLAc2.following knLLLAc2.following knKSSAc2.following knTAc2_RAc2.following ";
name = BELOW_BASE_MARKS_FOLLOWING;
}
);
copyright = "Copyright \U00A9 2015 by James Puckett. All rights reserved. Copyright \U00A9 2015 by Aoife Mooney. All rights reserved. Copyright \U00A9 2015 by Indian Type Foundry. All rights reserved.";
customParameters = (
{
name = glyphOrder;
value = (
    knA,
    knAA,
    knI,
    knII,
    knU,
    knUU,
    knvR,
    knvRR,
    knvL,
    knvLL,
    knE,
    knEE,
    knAI,
    knO,
    knOO,
    knAU,
    knmAA,
    knmI,
    knmII,
    knmU,
    knmUU,
    knmvR,
    knmvRR,
    knmvL,
    knmvLL,
    knmE,
    knmEE,
    knmAI,
    knmO,
    knmOO,
    knmAU,
    knLengthmark,
    knAIlengthmark,
    knKA,
    knKHA,
    knGA,
    knGHA,
    knNGA,
    knCA,
    knCHA,
    knJA,
    knJHA,
    knNYA,
    knTTA,
    knTTHA,
    knDDA,
    knDDHA,
    knNNA,
    knTA,
    knTHA,
    knDA,
    knDHA,
    knNA,

glyphs = (
{
glyphname = knA;
lastChange = "2015-11-25 17:30:49 +0000";
layers = (
{
background = {
paths = (
{
closed = 1;
nodes = (
"709 417 OFFCURVE",
"649 386 OFFCURVE",
"649 322 CURVE SMOOTH",
"649 287 OFFCURVE",
"667 263 OFFCURVE",
"699 249 CURVE",
"498 249 LINE",
"498 227 LINE",
"815 227 LINE",
"815 249 LINE",
"733 249 OFFCURVE",
"673 266 OFFCURVE",
"673 322 CURVE SMOOTH",
"673 371 OFFCURVE",
"718 393 OFFCURVE",
"786 393 CURVE SMOOTH",
"924 393 OFFCURVE",
"974 302 OFFCURVE",
"974 226 CURVE SMOOTH",
"974 80 OFFCURVE",
"792 4 OFFCURVE",
"536 4 CURVE SMOOTH",
"278 4 OFFCURVE",
"94 81 OFFCURVE",
"94 222 CURVE SMOOTH",
"94 241 OFFCURVE",
"97 261 OFFCURVE",
"104 279 CURVE",
"165 240 OFFCURVE",
"236 227 OFFCURVE",
"294 227 CURVE SMOOTH",
"386 227 OFFCURVE",
"450 261 OFFCURVE",
"450 323 CURVE SMOOTH",
"450 386 OFFCURVE",
"386 417 OFFCURVE",
"302 417 CURVE SMOOTH",
"160 417 OFFCURVE",
"70 328 OFFCURVE",
"70 221 CURVE SMOOTH",
"70 60 OFFCURVE",
"272 -21 OFFCURVE",
"535 -21 CURVE SMOOTH",
"795 -21 OFFCURVE",
"998 58 OFFCURVE",
"998 224 CURVE SMOOTH",
"998 326 OFFCURVE",
"922 417 OFFCURVE",
"788 417 CURVE SMOOTH"
);
},
{
closed = 1;
nodes = (
"377 393 OFFCURVE",
"426 371 OFFCURVE",
"426 323 CURVE SMOOTH",
"426 268 OFFCURVE",
"365 251 OFFCURVE",
"296 251 CURVE SMOOTH",
"235 251 OFFCURVE",
"163 265 OFFCURVE",
"112 298 CURVE",
"140 351 OFFCURVE",
"201 393 OFFCURVE",
"304 393 CURVE SMOOTH"
);
}
);
};
hints = (
{
horizontal = 1;
origin = "{0, 49}";
target = "{0, 30}";
type = TTStem;
},
{
horizontal = 1;
origin = "{0, 49}";
target = "{0, 5}";
type = Align;
},
{
horizontal = 1;
origin = "{0, 30}";
target = "{0, 18}";
type = Align;
},
{
horizontal = 1;
origin = "{0, 43}";
target = "{0, 36}";
type = TTStem;
},
{
horizontal = 1;
origin = "{0, 43}";
target = "{1, 3}";
type = Align;
},
{
horizontal = 1;
origin = "{0, 36}";
target = "{1, 2}";
type = Align;
},
{
horizontal = 1;
origin = "{0, 55}";
target = "{0, 24}";
type = TTStem;
},
{
horizontal = 1;
origin = "{0, 36}";
target = "{0, 12}";
type = Align;
}
);
layerId = "034236B8-3FA8-43DA-9EDA-EFF269A687EC";
name = Light;
paths = (
{
closed = 1;
nodes = (
"795 -21 OFFCURVE",
"998 58 OFFCURVE",
"998 224 CURVE SMOOTH",
"998 326 OFFCURVE",
"922 417 OFFCURVE",
"788 417 CURVE SMOOTH",
"709 417 OFFCURVE",
"649 386 OFFCURVE",
"649 322 CURVE SMOOTH",
"649 257 OFFCURVE",
"710 231 OFFCURVE",
"815 231 CURVE",
"815 249 LINE",
"733 249 OFFCURVE",
"673 266 OFFCURVE",
"673 322 CURVE SMOOTH",
"673 371 OFFCURVE",
"718 393 OFFCURVE",
"786 393 CURVE SMOOTH",
"924 393 OFFCURVE",
"974 302 OFFCURVE",
"974 226 CURVE SMOOTH",
"974 80 OFFCURVE",
"792 4 OFFCURVE",
"536 4 CURVE SMOOTH",
"278 4 OFFCURVE",
"94 81 OFFCURVE",
"94 222 CURVE SMOOTH",
"94 304 OFFCURVE",
"155 393 OFFCURVE",
"304 393 CURVE SMOOTH",
"377 393 OFFCURVE",
"426 371 OFFCURVE",
"426 323 CURVE SMOOTH",
"426 268 OFFCURVE",
"365 251 OFFCURVE",
"296 251 CURVE SMOOTH",
"232 251 OFFCURVE",
"157 266 OFFCURVE",
"106 302 CURVE",
"94 286 LINE",
"157 242 OFFCURVE",
"233 227 OFFCURVE",
"294 227 CURVE SMOOTH",
"386 227 OFFCURVE",
"450 261 OFFCURVE",
"450 323 CURVE SMOOTH",
"450 386 OFFCURVE",
"386 417 OFFCURVE",
"302 417 CURVE SMOOTH",
"160 417 OFFCURVE",
"70 328 OFFCURVE",
"70 221 CURVE SMOOTH",
"70 60 OFFCURVE",
"272 -21 OFFCURVE",
"535 -21 CURVE SMOOTH"
);
},
{
closed = 1;
nodes = (
"815 227 LINE",
"815 249 LINE",
"498 249 LINE",
"498 227 LINE"
);
}
);
width = 1078;
}
);
leftKerningGroup = knLA;
leftMetricsKey = knLA;
rightKerningGroup = knLA;
rightMetricsKey = knLA;
unicode = 0C85;
category = Letter;
},
{
glyphname = knAA;
lastChange = "2015-11-25 17:31:08 +0000";
layers = (
{
background = {
guideLines = (
{
angle = 90;
position = "{71, 220}";
},
{
position = "{858, -9}";
},
{
angle = 90;
position = "{818, -9}";
},
{
angle = 180;
position = "{858, 129}";
},
{
angle = 180;
position = "{858, 267}";
},
{
angle = 90;
position = "{958, 265}";
},
{
angle = 45;
position = "{755, 129}";
},
{
position = "{873, 235}";
}
);
paths = (
{
closed = 1;
nodes = (
"801 229 LINE SMOOTH",
"910 229 OFFCURVE",
"971 262 OFFCURVE",
"971 325 CURVE SMOOTH",
"971 383 OFFCURVE",
"917 417 OFFCURVE",
"818 417 CURVE SMOOTH",
"713 417 OFFCURVE",
"664 383 OFFCURVE",
"664 326 CURVE SMOOTH",
"664 269 OFFCURVE",
"716 249 OFFCURVE",
"767 236 CURVE",
"768 231 LINE",
"835 213 OFFCURVE",
"867 188 OFFCURVE",
"867 129 CURVE SMOOTH",
"867 44 OFFCURVE",
"782 4 OFFCURVE",
"547 4 CURVE SMOOTH",
"238 4 OFFCURVE",
"92 86 OFFCURVE",
"92 227 CURVE SMOOTH",
"92 328 OFFCURVE",
"169 393 OFFCURVE",
"297 393 CURVE SMOOTH",
"375 393 OFFCURVE",
"416 369 OFFCURVE",
"416 323 CURVE SMOOTH",
"416 275 OFFCURVE",
"372 251 OFFCURVE",
"289 251 CURVE SMOOTH",
"216 251 OFFCURVE",
"150 270 OFFCURVE",
"106 303 CURVE",
"92 285 LINE",
"139 251 OFFCURVE",
"209 227 OFFCURVE",
"289 227 CURVE SMOOTH",
"385 227 OFFCURVE",
"438 261 OFFCURVE",
"438 323 CURVE SMOOTH",
"438 384 OFFCURVE",
"387 417 OFFCURVE",
"296 417 CURVE SMOOTH",
"157 417 OFFCURVE",
"70 340 OFFCURVE",
"70 225 CURVE SMOOTH",
"70 68 OFFCURVE",
"230 -21 OFFCURVE",
"542 -21 CURVE SMOOTH",
"790 -21 OFFCURVE",
"889 27 OFFCURVE",
"889 128 CURVE SMOOTH",
"889 203 OFFCURVE",
"842 230 OFFCURVE",
"779 246 CURVE",
"778 249 LINE",
"729 263 OFFCURVE",
"686 282 OFFCURVE",
"686 324 CURVE SMOOTH",
"686 369 OFFCURVE",
"722 392 OFFCURVE",
"818 393 CURVE SMOOTH",
"903 394 OFFCURVE",
"949 371 OFFCURVE",
"949 325 CURVE SMOOTH",
"949 276 OFFCURVE",
"900 251 OFFCURVE",
"801 251 CURVE SMOOTH",
"496 251 LINE",
"496 229 LINE"
);
}
);
};
hints = (
{
horizontal = 1;
origin = "{0, 50}";
target = "{0, 19}";
type = TTStem;
},
{
horizontal = 1;
origin = "{0, 38}";
target = "{0, 31}";
type = TTStem;
},
{
horizontal = 1;
origin = "{0, 44}";
target = "{0, 25}";
type = TTStem;
},
{
horizontal = 1;
origin = "{0, 44}";
target = "{0, 6}";
type = Align;
},
{
horizontal = 1;
origin = "{0, 25}";
target = "{0, 63}";
type = Align;
},
{
horizontal = 1;
origin = "{0, 31}";
target = "{0, 70}";
type = Align;
},
{
horizontal = 1;
origin = "{0, 38}";
target = "{0, 71}";
type = Align;
},
{
horizontal = 1;
origin = "{0, 31}";
target = "{0, 69}";
type = Align;
}
);
layerId = "034236B8-3FA8-43DA-9EDA-EFF269A687EC";
name = Light;
paths = (
{
closed = 1;
nodes = (
"801 229 LINE SMOOTH",
"910 229 OFFCURVE",
"971 262 OFFCURVE",
"971 325 CURVE SMOOTH",
"971 383 OFFCURVE",
"917 417 OFFCURVE",
"818 417 CURVE SMOOTH",
"713 417 OFFCURVE",
"664 383 OFFCURVE",
"664 326 CURVE SMOOTH",
"664 269 OFFCURVE",
"716 249 OFFCURVE",
"767 236 CURVE",
"768 231 LINE",
"835 213 OFFCURVE",
"867 188 OFFCURVE",
"867 129 CURVE SMOOTH",
"867 44 OFFCURVE",
"782 4 OFFCURVE",
"547 4 CURVE SMOOTH",
"238 4 OFFCURVE",
"92 86 OFFCURVE",
"92 227 CURVE SMOOTH",
"92 328 OFFCURVE",
"169 393 OFFCURVE",
"297 393 CURVE SMOOTH",
"375 393 OFFCURVE",
"416 369 OFFCURVE",
"416 323 CURVE SMOOTH",
"416 275 OFFCURVE",
"372 251 OFFCURVE",
"289 251 CURVE SMOOTH",
"216 251 OFFCURVE",
"150 270 OFFCURVE",
"106 303 CURVE",
"92 285 LINE",
"139 251 OFFCURVE",
"209 227 OFFCURVE",
"289 227 CURVE SMOOTH",
"385 227 OFFCURVE",
"438 261 OFFCURVE",
"438 323 CURVE SMOOTH",
"438 384 OFFCURVE",
"387 417 OFFCURVE",
"296 417 CURVE SMOOTH",
"157 417 OFFCURVE",
"70 340 OFFCURVE",
"70 225 CURVE SMOOTH",
"70 68 OFFCURVE",
"230 -21 OFFCURVE",
"542 -21 CURVE SMOOTH",
"790 -21 OFFCURVE",
"889 27 OFFCURVE",
"889 128 CURVE SMOOTH",
"889 203 OFFCURVE",
"842 230 OFFCURVE",
"779 246 CURVE",
"778 249 LINE",
"729 263 OFFCURVE",
"686 282 OFFCURVE",
"686 324 CURVE SMOOTH",
"686 369 OFFCURVE",
"722 392 OFFCURVE",
"818 393 CURVE SMOOTH",
"903 394 OFFCURVE",
"949 371 OFFCURVE",
"949 325 CURVE SMOOTH",
"949 276 OFFCURVE",
"900 251 OFFCURVE",
"801 251 CURVE SMOOTH",
"496 251 LINE",
"496 229 LINE"
);
}
);
width = 1031;
}
);
leftKerningGroup = knLA;
unicode = 0C86;
category = Letter;
},
{
glyphname = knI;
lastChange = "2015-12-02 21:05:55 +0000";
layers = (
{
background = {
paths = (
{
closed = 1;
nodes = (
"854 392 OFFCURVE",
"932 344 OFFCURVE",
"932 241 CURVE SMOOTH",
"932 57 OFFCURVE",
"692 -5 OFFCURVE",
"490 -5 CURVE SMOOTH",
"404 -5 OFFCURVE",
"336 8 OFFCURVE",
"336 65 CURVE SMOOTH",
"336 113 OFFCURVE",
"388 130 OFFCURVE",
"479 130 CURVE SMOOTH",
"647 130 OFFCURVE",
"738 74 OFFCURVE",
"738 -100 CURVE",
"762 -98 LINE",
"762 86 OFFCURVE",
"651 152 OFFCURVE",
"483 152 CURVE SMOOTH",
"380 152 OFFCURVE",
"314 129 OFFCURVE",
"314 64 CURVE SMOOTH",
"314 -3 OFFCURVE",
"379 -29 OFFCURVE",
"495 -29 CURVE SMOOTH",
"695 -29 OFFCURVE",
"954 40 OFFCURVE",
"954 247 CURVE SMOOTH",
"954 368 OFFCURVE",
"862 417 OFFCURVE",
"751 417 CURVE SMOOTH",
"640 417 OFFCURVE",
"559 377 OFFCURVE",
"512 283 CURVE",
"465 377 OFFCURVE",
"384 417 OFFCURVE",
"272 417 CURVE SMOOTH",
"161 417 OFFCURVE",
"70 370 OFFCURVE",
"70 246 CURVE SMOOTH",
"70 209 OFFCURVE",
"78 175 OFFCURVE",
"94 144 CURVE",
"115 151 LINE",
"100 182 OFFCURVE",
"92 212 OFFCURVE",
"92 242 CURVE SMOOTH",
"92 346 OFFCURVE",
"172 392 OFFCURVE",
"276 392 CURVE SMOOTH",
"393 392 OFFCURVE",
"459 343 OFFCURVE",
"500 256 CURVE",
"524 256 LINE",
"565 343 OFFCURVE",
"631 392 OFFCURVE",
"748 392 CURVE SMOOTH"
);
}
);
};
guideLines = (
{
angle = 90;
position = "{70, 246}";
}
);
hints = (
{
horizontal = 1;
origin = "{1, 11}";
target = "{0, 43}";
type = TTStem;
},
{
horizontal = 1;
origin = "{1, 5}";
target = "{0, 37}";
type = TTStem;
},
{
horizontal = 1;
origin = "{0, 24}";
target = "{0, 5}";
type = TTStem;
},
{
horizontal = 1;
origin = "{0, 8}";
target = "{0, 21}";
type = TTStem;
},
{
horizontal = 1;
origin = "{0, 8}";
target = "{0, 2}";
type = Align;
},
{
horizontal = 1;
origin = "{0, 21}";
target = "{0, 28}";
type = Align;
},
{
horizontal = 1;
origin = "{0, 46}";
target = "{1, 8}";
type = TTStem;
},
{
horizontal = 1;
origin = "{1, 8}";
target = "{0, 34}";
type = Align;
},
{
horizontal = 1;
origin = "{0, 46}";
target = "{0, 55}";
type = Align;
},
{
horizontal = 1;
origin = "{0, 50}";
type = Anchor;
},
{
horizontal = 1;
origin = "{0, 14}";
type = Anchor;
}
);
layerId = "034236B8-3FA8-43DA-9EDA-EFF269A687EC";
name = Light;
paths = (
{
closed = 1;
nodes = (
"954 360 OFFCURVE",
"863 417 OFFCURVE",
"749 417 CURVE SMOOTH",
"642 417 OFFCURVE",
"563 376 OFFCURVE",
"512 283 CURVE",
"462 375 OFFCURVE",
"383 417 OFFCURVE",
"276 417 CURVE SMOOTH",
"169 417 OFFCURVE",
"70 370 OFFCURVE",
"70 246 CURVE SMOOTH",
"70 209 OFFCURVE",
"78 175 OFFCURVE",
"94 144 CURVE",
"115 151 LINE",
"100 182 OFFCURVE",
"92 212 OFFCURVE",
"92 242 CURVE SMOOTH",
"92 348 OFFCURVE",
"169 392 OFFCURVE",
"278 392 CURVE SMOOTH",
"392 392 OFFCURVE",
"458 342 OFFCURVE",
"500 256 CURVE",
"524 256 LINE",
"567 344 OFFCURVE",
"633 392 OFFCURVE",
"748 392 CURVE SMOOTH",
"866 392 OFFCURVE",
"932 336 OFFCURVE",
"932 236 CURVE SMOOTH",
"932 127 OFFCURVE",
"851 60 OFFCURVE",
"745 24 CURVE",
"710 122 OFFCURVE",
"623 163 OFFCURVE",
"505 163 CURVE SMOOTH",
"400 163 OFFCURVE",
"330 135 OFFCURVE",
"330 67 CURVE SMOOTH",
"330 -2 OFFCURVE",
"402 -33 OFFCURVE",
"533 -33 CURVE SMOOTH",
"596 -33 OFFCURVE",
"666 -24 OFFCURVE",
"729 -5 CURVE",
"735 -29 OFFCURVE",
"738 -58 OFFCURVE",
"738 -90 CURVE SMOOTH",
"738 -100 LINE",
"762 -98 LINE",
"762 -88 LINE SMOOTH",
"762 -54 OFFCURVE",
"758 -24 OFFCURVE",
"752 3 CURVE",
"864 41 OFFCURVE",
"954 116 OFFCURVE",
"954 237 CURVE SMOOTH"
);
},
{
closed = 1;
nodes = (
"429 -9 OFFCURVE",
"352 8 OFFCURVE",
"352 68 CURVE SMOOTH",
"352 119 OFFCURVE",
"407 141 OFFCURVE",
"501 141 CURVE SMOOTH",
"618 141 OFFCURVE",
"693 106 OFFCURVE",
"723 17 CURVE",
"661 -1 OFFCURVE",
"593 -9 OFFCURVE",
"528 -9 CURVE SMOOTH"
);
}
);
width = 1034;
},
{
associatedMasterId = "034236B8-3FA8-43DA-9EDA-EFF269A687EC";
background = {
paths = (
{
closed = 1;
nodes = (
"854 392 OFFCURVE",
"932 344 OFFCURVE",
"932 241 CURVE SMOOTH",
"932 57 OFFCURVE",
"692 -5 OFFCURVE",
"490 -5 CURVE SMOOTH",
"404 -5 OFFCURVE",
"336 8 OFFCURVE",
"336 65 CURVE SMOOTH",
"336 113 OFFCURVE",
"388 130 OFFCURVE",
"479 130 CURVE SMOOTH",
"647 130 OFFCURVE",
"738 74 OFFCURVE",
"738 -100 CURVE",
"762 -98 LINE",
"762 86 OFFCURVE",
"651 152 OFFCURVE",
"483 152 CURVE SMOOTH",
"380 152 OFFCURVE",
"314 129 OFFCURVE",
"314 64 CURVE SMOOTH",
"314 -3 OFFCURVE",
"379 -29 OFFCURVE",
"495 -29 CURVE SMOOTH",
"695 -29 OFFCURVE",
"954 40 OFFCURVE",
"954 247 CURVE SMOOTH",
"954 368 OFFCURVE",
"862 417 OFFCURVE",
"751 417 CURVE SMOOTH",
"640 417 OFFCURVE",
"559 377 OFFCURVE",
"512 283 CURVE",
"465 377 OFFCURVE",
"384 417 OFFCURVE",
"272 417 CURVE SMOOTH",
"161 417 OFFCURVE",
"70 370 OFFCURVE",
"70 246 CURVE SMOOTH",
"70 209 OFFCURVE",
"78 175 OFFCURVE",
"94 144 CURVE",
"115 151 LINE",
"100 182 OFFCURVE",
"92 212 OFFCURVE",
"92 242 CURVE SMOOTH",
"92 346 OFFCURVE",
"172 392 OFFCURVE",
"276 392 CURVE SMOOTH",
"393 392 OFFCURVE",
"459 343 OFFCURVE",
"500 256 CURVE",
"524 256 LINE",
"565 343 OFFCURVE",
"631 392 OFFCURVE",
"748 392 CURVE SMOOTH"
);
}
);
};
guideLines = (
{
angle = 90;
position = "{70, 246}";
}
);
hints = (
{
horizontal = 1;
origin = "{0, 8}";
target = "{0, 29}";
type = TTStem;
},
{
horizontal = 1;
origin = "{0, 14}";
target = "{0, 23}";
type = TTStem;
},
{
horizontal = 1;
origin = "{0, 60}";
target = "{0, 41}";
type = TTStem;
},
{
horizontal = 1;
origin = "{0, 44}";
target = "{0, 57}";
type = TTStem;
},
{
horizontal = 1;
origin = "{0, 44}";
target = "{0, 38}";
type = Align;
},
{
horizontal = 1;
origin = "{0, 57}";
target = "{0, 64}";
type = Align;
}
);
layerId = "0947C32B-9486-4D25-9B2B-9BCB3A6FE954";
name = "Light Nov 25 15, 10:32";
paths = (
{
closed = 1;
nodes = (
"866 392 OFFCURVE",
"932 336 OFFCURVE",
"932 236 CURVE SMOOTH",
"932 126 OFFCURVE",
"850 59 OFFCURVE",
"743 23 CURVE SMOOTH",
"676 1 OFFCURVE",
"600 -9 OFFCURVE",
"528 -9 CURVE SMOOTH",
"429 -9 OFFCURVE",
"352 8 OFFCURVE",
"352 68 CURVE SMOOTH",
"352 119 OFFCURVE",
"407 141 OFFCURVE",
"501 141 CURVE SMOOTH",
"656 141 OFFCURVE",
"738 80 OFFCURVE",
"738 -90 CURVE SMOOTH",
"738 -100 LINE",
"762 -98 LINE",
"762 -88 LINE SMOOTH",
"762 92 OFFCURVE",
"661 163 OFFCURVE",
"505 163 CURVE SMOOTH",
"400 163 OFFCURVE",
"330 135 OFFCURVE",
"330 67 CURVE SMOOTH",
"330 -2 OFFCURVE",
"402 -33 OFFCURVE",
"533 -33 CURVE SMOOTH",
"603 -33 OFFCURVE",
"681 -22 OFFCURVE",
"750 2 CURVE SMOOTH",
"863 40 OFFCURVE",
"954 115 OFFCURVE",
"954 237 CURVE SMOOTH",
"954 360 OFFCURVE",
"863 417 OFFCURVE",
"749 417 CURVE SMOOTH",
"642 417 OFFCURVE",
"563 376 OFFCURVE",
"512 283 CURVE",
"462 375 OFFCURVE",
"383 417 OFFCURVE",
"276 417 CURVE SMOOTH",
"169 417 OFFCURVE",
"70 370 OFFCURVE",
"70 246 CURVE SMOOTH",
"70 209 OFFCURVE",
"78 175 OFFCURVE",
"94 144 CURVE",
"115 151 LINE",
"100 182 OFFCURVE",
"92 212 OFFCURVE",
"92 242 CURVE SMOOTH",
"92 348 OFFCURVE",
"169 392 OFFCURVE",
"278 392 CURVE SMOOTH",
"392 392 OFFCURVE",
"458 342 OFFCURVE",
"500 256 CURVE",
"524 256 LINE",
"567 344 OFFCURVE",
"633 392 OFFCURVE",
"748 392 CURVE SMOOTH"
);
}
);
width = 1034;
}
);
leftKerningGroup = knvL;
unicode = 0C87;
category = Letter;
},
{
glyphname = knII;
lastChange = "2015-12-03 21:58:22 +0000";
layers = (
{
background = {
guideLines = (
{
angle = 90;
position = "{1016, 182}";
showMeasurement = 1;
}
);
paths = (
{
closed = 1;
nodes = (
"1199 184 OFFCURVE",
"1239 224 OFFCURVE",
"1239 296 CURVE SMOOTH",
"1239 359 OFFCURVE",
"1181 393 OFFCURVE",
"1113 393 CURVE SMOOTH",
"1046 393 OFFCURVE",
"983 365 OFFCURVE",
"983 294 CURVE SMOOTH",
"983 261 OFFCURVE",
"998 230 OFFCURVE",
"1023 211 CURVE SMOOTH",
"1051 189 OFFCURVE",
"1086 175 OFFCURVE",
"1127 162 CURVE SMOOTH",
"1158 152 OFFCURVE",
"1206 136 OFFCURVE",
"1206 81 CURVE SMOOTH",
"1206 37 OFFCURVE",
"1178 15 OFFCURVE",
"1089 15 CURVE",
"1095 -9 LINE",
"1194 -5 OFFCURVE",
"1228 22 OFFCURVE",
"1228 82 CURVE SMOOTH",
"1228 146 OFFCURVE",
"1175 168 OFFCURVE",
"1137 180 CURVE SMOOTH",
"1095 193 OFFCURVE",
"1063 205 OFFCURVE",
"1040 223 CURVE SMOOTH",
"1018 240 OFFCURVE",
"1005 266 OFFCURVE",
"1005 294 CURVE SMOOTH",
"1005 347 OFFCURVE",
"1054 369 OFFCURVE",
"1113 369 CURVE SMOOTH",
"1170 369 OFFCURVE",
"1217 341 OFFCURVE",
"1217 294 CURVE SMOOTH",
"1217 236 OFFCURVE",
"1184 208 OFFCURVE",
"1064 208 CURVE SMOOTH",
"15 208 LINE",
"15 184 LINE",
"1058 184 LINE SMOOTH"
);
}
);
};
components = (
{
name = knRA;
transform = "{1, 0, 0, 1, 148, 0}";
}
);
guideLines = (
{
angle = 90;
position = "{15, 208}";
},
{
position = "{1018, 204}";
}
);
hints = (
{
horizontal = 1;
origin = "{1, 47}";
target = "{1, 46}";
type = TTStem;
},
{
horizontal = 1;
origin = "{1, 38}";
target = "{1, 5}";
type = TTStem;
},
{
horizontal = 1;
origin = "{1, 22}";
target = "{1, 21}";
type = TTStem;
},
{
horizontal = 1;
origin = "{1, 46}";
target = "{1, 45}";
type = Align;
},
{
horizontal = 1;
origin = "{1, 47}";
target = "{1, 48}";
type = Align;
},
{
horizontal = 1;
origin = "{1, 47}";
target = "{1, 12}";
type = Align;
},
{
horizontal = 1;
origin = "{1, 46}";
target = "{1, 11}";
type = Align;
},
{
horizontal = 1;
origin = "{1, 46}";
target = "{1, 32}";
type = Align;
},
{
horizontal = 1;
origin = "{1, 47}";
target = "{1, 31}";
type = Align;
}
);
layerId = "034236B8-3FA8-43DA-9EDA-EFF269A687EC";
name = Light;
paths = (
{
closed = 0;
nodes = (
"850 -110 LINE"
);
},
{
closed = 1;
nodes = (
"1199 184 OFFCURVE",
"1239 224 OFFCURVE",
"1239 296 CURVE SMOOTH",
"1239 359 OFFCURVE",
"1181 393 OFFCURVE",
"1113 393 CURVE SMOOTH",
"1046 393 OFFCURVE",
"983 365 OFFCURVE",
"983 294 CURVE SMOOTH",
"983 260 OFFCURVE",
"997 225 OFFCURVE",
"1031 202 CURVE",
"1053 186 LINE",
"1112 167 OFFCURVE",
"1166 153 OFFCURVE",
"1186 132 CURVE SMOOTH",
"1197 121 OFFCURVE",
"1206 103 OFFCURVE",
"1206 81 CURVE SMOOTH",
"1206 37 OFFCURVE",
"1178 15 OFFCURVE",
"1089 15 CURVE",
"1095 -9 LINE",
"1194 -5 OFFCURVE",
"1228 22 OFFCURVE",
"1228 82 CURVE SMOOTH",
"1228 111 OFFCURVE",
"1217 131 OFFCURVE",
"1202 146 CURVE SMOOTH",
"1184 163 OFFCURVE",
"1156 176 OFFCURVE",
"1096 192 CURVE",
"1066 204 LINE",
"1024 227 OFFCURVE",
"1005 255 OFFCURVE",
"1005 294 CURVE SMOOTH",
"1005 347 OFFCURVE",
"1054 369 OFFCURVE",
"1113 369 CURVE SMOOTH",
"1170 369 OFFCURVE",
"1217 341 OFFCURVE",
"1217 294 CURVE SMOOTH",
"1217 236 OFFCURVE",
"1185 208 OFFCURVE",
"1059 208 CURVE SMOOTH",
"258 208 LINE",
"15 208 LINE",
"15 184 LINE",
"258 184 LINE",
"1058 184 LINE SMOOTH"
);
}
);
width = 1314;
},
{
associatedMasterId = "034236B8-3FA8-43DA-9EDA-EFF269A687EC";
background = {
guideLines = (
{
angle = 90;
position = "{1016, 182}";
showMeasurement = 1;
}
);
paths = (
{
closed = 1;
nodes = (
"1199 184 OFFCURVE",
"1239 224 OFFCURVE",
"1239 296 CURVE SMOOTH",
"1239 359 OFFCURVE",
"1181 393 OFFCURVE",
"1113 393 CURVE SMOOTH",
"1046 393 OFFCURVE",
"983 365 OFFCURVE",
"983 294 CURVE SMOOTH",
"983 261 OFFCURVE",
"998 230 OFFCURVE",
"1023 211 CURVE SMOOTH",
"1051 189 OFFCURVE",
"1086 175 OFFCURVE",
"1127 162 CURVE SMOOTH",
"1158 152 OFFCURVE",
"1206 136 OFFCURVE",
"1206 81 CURVE SMOOTH",
"1206 37 OFFCURVE",
"1178 15 OFFCURVE",
"1089 15 CURVE",
"1095 -9 LINE",
"1194 -5 OFFCURVE",
"1228 22 OFFCURVE",
"1228 82 CURVE SMOOTH",
"1228 146 OFFCURVE",
"1175 168 OFFCURVE",
"1137 180 CURVE SMOOTH",
"1095 193 OFFCURVE",
"1063 205 OFFCURVE",
"1040 223 CURVE SMOOTH",
"1018 240 OFFCURVE",
"1005 266 OFFCURVE",
"1005 294 CURVE SMOOTH",
"1005 347 OFFCURVE",
"1054 369 OFFCURVE",
"1113 369 CURVE SMOOTH",
"1170 369 OFFCURVE",
"1217 341 OFFCURVE",
"1217 294 CURVE SMOOTH",
"1217 236 OFFCURVE",
"1184 208 OFFCURVE",
"1064 208 CURVE SMOOTH",
"15 208 LINE",
"15 184 LINE",
"1058 184 LINE SMOOTH"
);
}
);
};
components = (
{
name = knRA;
transform = "{1, 0, 0, 1, 148, 0}";
}
);
guideLines = (
{
angle = 90;
position = "{15, 208}";
}
);
layerId = "CFF51CCA-D830-4E8A-84A6-D152F9C55D12";
name = "Light Nov 12 15, 10:35";
paths = (
{
closed = 1;
nodes = (
"1199 184 OFFCURVE",
"1239 224 OFFCURVE",
"1239 296 CURVE SMOOTH",
"1239 359 OFFCURVE",
"1181 393 OFFCURVE",
"1113 393 CURVE SMOOTH",
"1046 393 OFFCURVE",
"983 365 OFFCURVE",
"983 294 CURVE SMOOTH",
"983 261 OFFCURVE",
"998 230 OFFCURVE",
"1023 211 CURVE SMOOTH",
"1051 189 OFFCURVE",
"1086 175 OFFCURVE",
"1127 162 CURVE SMOOTH",
"1158 152 OFFCURVE",
"1206 136 OFFCURVE",
"1206 81 CURVE SMOOTH",
"1206 37 OFFCURVE",
"1178 15 OFFCURVE",
"1089 15 CURVE",
"1095 -9 LINE",
"1194 -5 OFFCURVE",
"1228 22 OFFCURVE",
"1228 82 CURVE SMOOTH",
"1228 146 OFFCURVE",
"1175 168 OFFCURVE",
"1137 180 CURVE SMOOTH",
"1095 193 OFFCURVE",
"1063 205 OFFCURVE",
"1040 223 CURVE SMOOTH",
"1018 240 OFFCURVE",
"1005 266 OFFCURVE",
"1005 294 CURVE SMOOTH",
"1005 347 OFFCURVE",
"1054 369 OFFCURVE",
"1113 369 CURVE SMOOTH",
"1170 369 OFFCURVE",
"1217 341 OFFCURVE",
"1217 294 CURVE SMOOTH",
"1217 236 OFFCURVE",
"1184 208 OFFCURVE",
"1064 208 CURVE SMOOTH",
"15 208 LINE",
"15 184 LINE",
"1058 184 LINE SMOOTH"
);
}
);
width = 1314;
}
);
unicode = 0C88;
category = Letter;
},
{
glyphname = knU;
lastChange = "2015-11-25 17:36:45 +0000";
layers = (
{
background = {
guideLines = (
{
angle = 90;
position = "{751, 107}";
}
);
paths = (
{
closed = 1;
nodes = (
"95 284 LINE",
"148 241 OFFCURVE",
"211 227 OFFCURVE",
"262 227 CURVE SMOOTH",
"341 227 OFFCURVE",
"394 261 OFFCURVE",
"394 323 CURVE SMOOTH",
"394 386 OFFCURVE",
"340 417 OFFCURVE",
"268 417 CURVE SMOOTH",
"153 417 OFFCURVE",
"70 338 OFFCURVE",
"70 214 CURVE SMOOTH",
"70 72 OFFCURVE",
"180 -21 OFFCURVE",
"357 -21 CURVE SMOOTH",
"467 -21 OFFCURVE",
"548 15 OFFCURVE",
"548 115 CURVE SMOOTH",
"548 158 OFFCURVE",
"533 223 OFFCURVE",
"533 269 CURVE SMOOTH",
"533 353 OFFCURVE",
"583 392 OFFCURVE",
"652 392 CURVE SMOOTH",
"720 392 OFFCURVE",
"771 354 OFFCURVE",
"771 270 CURVE SMOOTH",
"771 218 OFFCURVE",
"751 158 OFFCURVE",
"751 108 CURVE SMOOTH",
"751 18 OFFCURVE",
"814 -21 OFFCURVE",
"907 -21 CURVE SMOOTH",
"1036 -21 OFFCURVE",
"1102 55 OFFCURVE",
"1102 172 CURVE SMOOTH",
"1102 276 OFFCURVE",
"1050 349 OFFCURVE",
"945 395 CURVE",
"933 375 LINE",
"1033 334 OFFCURVE",
"1080 267 OFFCURVE",
"1080 173 CURVE SMOOTH",
"1080 70 OFFCURVE",
"1023 4 OFFCURVE",
"906 4 CURVE SMOOTH",
"818 4 OFFCURVE",
"773 41 OFFCURVE",
"773 108 CURVE SMOOTH",
"773 153 OFFCURVE",
"793 217 OFFCURVE",
"793 272 CURVE SMOOTH",
"793 367 OFFCURVE",
"734 417 OFFCURVE",
"652 417 CURVE SMOOTH",
"569 417 OFFCURVE",
"511 367 OFFCURVE",
"511 272 CURVE SMOOTH",
"511 220 OFFCURVE",
"528 154 OFFCURVE",
"526 110 CURVE SMOOTH",
"523 38 OFFCURVE",
"469 4 OFFCURVE",
"359 4 CURVE SMOOTH",
"190 4 OFFCURVE",
"92 84 OFFCURVE",
"92 214 CURVE SMOOTH",
"92 239 OFFCURVE",
"95 263 OFFCURVE",
"102 284 CURVE"
);
},
{
closed = 1;
nodes = (
"104 289 LINE",
"129 352 OFFCURVE",
"186 393 OFFCURVE",
"271 393 CURVE SMOOTH",
"333 393 OFFCURVE",
"372 371 OFFCURVE",
"372 323 CURVE SMOOTH",
"372 268 OFFCURVE",
"322 252 OFFCURVE",
"264 252 CURVE SMOOTH",
"209 252 OFFCURVE",
"144 267 OFFCURVE",
"100 303 CURVE"
);
}
);
};
hints = (
{
horizontal = 1;
origin = "{0, 27}";
target = "{0, 76}";
type = TTStem;
},
{
horizontal = 1;
origin = "{0, 15}";
target = "{0, 8}";
type = TTStem;
},
{
horizontal = 1;
origin = "{0, 21}";
target = "{0, 2}";
type = TTStem;
},
{
horizontal = 1;
origin = "{0, 21}";
target = "{0, 67}";
type = Align;
},
{
horizontal = 1;
origin = "{0, 2}";
target = "{0, 36}";
type = Align;
},
{
horizontal = 1;
origin = "{0, 76}";
target = "{0, 58}";
type = Align;
},
{
horizontal = 1;
origin = "{0, 45}";
target = "{0, 27}";
type = Align;
},
{
horizontal = 1;
origin = "{0, 52}";
target = "{0, 51}";
type = TTStem;
}
);
layerId = "034236B8-3FA8-43DA-9EDA-EFF269A687EC";
name = Light;
paths = (
{
closed = 1;
nodes = (
"92 326 OFFCURVE",
"163 393 OFFCURVE",
"271 393 CURVE SMOOTH",
"333 393 OFFCURVE",
"372 371 OFFCURVE",
"372 323 CURVE SMOOTH",
"372 268 OFFCURVE",
"322 252 OFFCURVE",
"264 252 CURVE SMOOTH",
"209 252 OFFCURVE",
"144 267 OFFCURVE",
"100 303 CURVE",
"95 284 LINE",
"148 241 OFFCURVE",
"211 227 OFFCURVE",
"262 227 CURVE SMOOTH",
"341 227 OFFCURVE",
"394 261 OFFCURVE",
"394 323 CURVE SMOOTH",
"394 386 OFFCURVE",
"340 417 OFFCURVE",
"268 417 CURVE SMOOTH",
"153 417 OFFCURVE",
"70 338 OFFCURVE",
"70 214 CURVE SMOOTH",
"70 72 OFFCURVE",
"180 -21 OFFCURVE",
"357 -21 CURVE SMOOTH",
"467 -21 OFFCURVE",
"548 15 OFFCURVE",
"548 115 CURVE SMOOTH",
"548 158 OFFCURVE",
"533 223 OFFCURVE",
"533 269 CURVE SMOOTH",
"533 353 OFFCURVE",
"583 392 OFFCURVE",
"652 392 CURVE SMOOTH",
"720 392 OFFCURVE",
"771 354 OFFCURVE",
"771 270 CURVE SMOOTH",
"771 218 OFFCURVE",
"751 158 OFFCURVE",
"751 108 CURVE SMOOTH",
"751 18 OFFCURVE",
"814 -21 OFFCURVE",
"907 -21 CURVE SMOOTH",
"1036 -21 OFFCURVE",
"1102 55 OFFCURVE",
"1102 172 CURVE SMOOTH",
"1102 276 OFFCURVE",
"1050 349 OFFCURVE",
"945 395 CURVE",
"933 375 LINE",
"1033 334 OFFCURVE",
"1080 267 OFFCURVE",
"1080 173 CURVE SMOOTH",
"1080 70 OFFCURVE",
"1023 4 OFFCURVE",
"906 4 CURVE SMOOTH",
"818 4 OFFCURVE",
"773 41 OFFCURVE",
"773 108 CURVE SMOOTH",
"773 153 OFFCURVE",
"793 217 OFFCURVE",
"793 272 CURVE SMOOTH",
"793 367 OFFCURVE",
"734 417 OFFCURVE",
"652 417 CURVE SMOOTH",
"569 417 OFFCURVE",
"511 367 OFFCURVE",
"511 272 CURVE SMOOTH",
"511 220 OFFCURVE",
"528 154 OFFCURVE",
"526 110 CURVE SMOOTH",
"523 38 OFFCURVE",
"469 4 OFFCURVE",
"359 4 CURVE SMOOTH",
"190 4 OFFCURVE",
"92 84 OFFCURVE",
"92 214 CURVE SMOOTH"
);
}
);
width = 1185;
},
{
associatedMasterId = "034236B8-3FA8-43DA-9EDA-EFF269A687EC";
background = {
paths = (
{
closed = 1;
nodes = (
"615 17 OFFCURVE",
"711 -21 OFFCURVE",
"816 -21 CURVE SMOOTH",
"968 -21 OFFCURVE",
"1072 59 OFFCURVE",
"1072 200 CURVE SMOOTH",
"1072 328 OFFCURVE",
"986 417 OFFCURVE",
"851 417 CURVE SMOOTH",
"772 417 OFFCURVE",
"712 386 OFFCURVE",
"712 323 CURVE SMOOTH",
"712 261 OFFCURVE",
"772 227 OFFCURVE",
"858 227 CURVE SMOOTH",
"916 227 OFFCURVE",
"988 242 OFFCURVE",
"1048 286 CURVE",
"1036 302 LINE",
"988 266 OFFCURVE",
"916 252 OFFCURVE",
"856 252 CURVE SMOOTH",
"792 252 OFFCURVE",
"734 268 OFFCURVE",
"734 323 CURVE SMOOTH",
"734 371 OFFCURVE",
"780 393 OFFCURVE",
"849 393 CURVE SMOOTH",
"991 393 OFFCURVE",
"1050 301 OFFCURVE",
"1050 202 CURVE SMOOTH",
"1050 85 OFFCURVE",
"967 4 OFFCURVE",
"814 4 CURVE SMOOTH",
"684 4 OFFCURVE",
"618 64 OFFCURVE",
"588 140 CURVE",
"564 140 LINE",
"534 64 OFFCURVE",
"468 4 OFFCURVE",
"338 4 CURVE SMOOTH",
"186 4 OFFCURVE",
"102 84 OFFCURVE",
"102 202 CURVE SMOOTH",
"102 301 OFFCURVE",
"161 393 OFFCURVE",
"303 393 CURVE SMOOTH",
"372 393 OFFCURVE",
"418 371 OFFCURVE",
"418 323 CURVE SMOOTH",
"418 268 OFFCURVE",
"360 252 OFFCURVE",
"296 252 CURVE SMOOTH",
"236 252 OFFCURVE",
"164 266 OFFCURVE",
"116 302 CURVE",
"104 286 LINE",
"164 242 OFFCURVE",
"236 227 OFFCURVE",
"294 227 CURVE SMOOTH",
"380 227 OFFCURVE",
"440 261 OFFCURVE",
"440 323 CURVE SMOOTH",
"440 386 OFFCURVE",
"380 417 OFFCURVE",
"301 417 CURVE SMOOTH",
"166 417 OFFCURVE",
"80 328 OFFCURVE",
"80 200 CURVE SMOOTH",
"80 59 OFFCURVE",
"184 -21 OFFCURVE",
"336 -21 CURVE SMOOTH",
"441 -21 OFFCURVE",
"537 17 OFFCURVE",
"576 113 CURVE"
);
}
);
};
layerId = "3879D685-2849-43C3-A048-4A52CFB37C0C";
name = "Light Sep 25 15, 12:14";
paths = (
{
closed = 1;
nodes = (
"758 485 LINE",
"849 485 OFFCURVE",
"901 393 OFFCURVE",
"901 272 CURVE SMOOTH",
"901 127 OFFCURVE",
"859 43 OFFCURVE",
"782 43 CURVE SMOOTH",
"709 43 OFFCURVE",
"686 94 OFFCURVE",
"686 165 CURVE SMOOTH",
"686 250 OFFCURVE",
"712 314 OFFCURVE",
"712 403 CURVE SMOOTH",
"712 489 OFFCURVE",
"664 556 OFFCURVE",
"563 556 CURVE SMOOTH",
"467 556 OFFCURVE",
"411 490 OFFCURVE",
"411 403 CURVE SMOOTH",
"411 315 OFFCURVE",
"430 272 OFFCURVE",
"430 189 CURVE SMOOTH",
"430 99 OFFCURVE",
"373 43 OFFCURVE",
"293 43 CURVE SMOOTH",
"171 43 OFFCURVE",
"101 150 OFFCURVE",
"101 286 CURVE SMOOTH",
"101 323 OFFCURVE",
"111 372 OFFCURVE",
"119 414 CURVE",
"100 415 LINE",
"100 333 OFFCURVE",
"152 277 OFFCURVE",
"230 277 CURVE SMOOTH",
"310 277 OFFCURVE",
"368 341 OFFCURVE",
"368 418 CURVE SMOOTH",
"368 492 OFFCURVE",
"311 556 OFFCURVE",
"230 556 CURVE SMOOTH",
"102 556 OFFCURVE",
"47 427 OFFCURVE",
"47 286 CURVE SMOOTH",
"47 126 OFFCURVE",
"130 -9 OFFCURVE",
"293 -9 CURVE SMOOTH",
"408 -9 OFFCURVE",
"492 69 OFFCURVE",
"492 182 CURVE SMOOTH",
"492 264 OFFCURVE",
"472 327 OFFCURVE",
"472 401 CURVE SMOOTH",
"472 466 OFFCURVE",
"510 503 OFFCURVE",
"564 503 CURVE SMOOTH",
"619 503 OFFCURVE",
"651 465 OFFCURVE",
"651 401 CURVE SMOOTH",
"651 325 OFFCURVE",
"624 242 OFFCURVE",
"624 159 CURVE SMOOTH",
"624 63 OFFCURVE",
"672 -9 OFFCURVE",
"784 -9 CURVE SMOOTH",
"898 -9 OFFCURVE",
"963 101 OFFCURVE",
"963 271 CURVE SMOOTH",
"963 427 OFFCURVE",
"889 546 OFFCURVE",
"758 546 CURVE"
);
},
{
closed = 1;
nodes = (
"227 329 CURVE SMOOTH",
"172 329 OFFCURVE",
"139 368 OFFCURVE",
"139 413 CURVE SMOOTH",
"139 462 OFFCURVE",
"177 503 OFFCURVE",
"224 503 CURVE SMOOTH",
"274 503 OFFCURVE",
"305 465 OFFCURVE",
"305 417 CURVE SMOOTH",
"305 370 OFFCURVE",
"276 329 OFFCURVE"
);
}
);
width = 1010;
},
{
associatedMasterId = "034236B8-3FA8-43DA-9EDA-EFF269A687EC";
background = {
paths = (
{
closed = 1;
nodes = (
"80 61 OFFCURVE",
"189 -21 OFFCURVE",
"343 -21 CURVE SMOOTH",
"456 -21 OFFCURVE",
"541 19 OFFCURVE",
"541 101 CURVE SMOOTH",
"541 164 OFFCURVE",
"521 201 OFFCURVE",
"521 268 CURVE SMOOTH",
"521 350 OFFCURVE",
"566 392 OFFCURVE",
"641 392 CURVE SMOOTH",
"715 392 OFFCURVE",
"761 350 OFFCURVE",
"761 268 CURVE SMOOTH",
"761 201 OFFCURVE",
"741 164 OFFCURVE",
"741 101 CURVE SMOOTH",
"741 19 OFFCURVE",
"801 -21 OFFCURVE",
"886 -21 CURVE SMOOTH",
"988 -21 OFFCURVE",
"1035 47 OFFCURVE",
"1035 169 CURVE SMOOTH",
"1035 263 OFFCURVE",
"1000 351 OFFCURVE",
"944 403 CURVE",
"927 386 LINE",
"979 338 OFFCURVE",
"1013 262 OFFCURVE",
"1013 171 CURVE SMOOTH",
"1013 62 OFFCURVE",
"975 4 OFFCURVE",
"886 4 CURVE SMOOTH",
"808 4 OFFCURVE",
"763 40 OFFCURVE",
"763 103 CURVE SMOOTH",
"763 159 OFFCURVE",
"783 199 OFFCURVE",
"783 269 CURVE SMOOTH",
"783 364 OFFCURVE",
"729 417 OFFCURVE",
"641 417 CURVE SMOOTH",
"552 417 OFFCURVE",
"499 364 OFFCURVE",
"499 269 CURVE SMOOTH",
"499 199 OFFCURVE",
"519 159 OFFCURVE",
"519 103 CURVE SMOOTH",
"519 40 OFFCURVE",
"451 4 OFFCURVE",
"343 4 CURVE SMOOTH",
"201 4 OFFCURVE",
"102 76 OFFCURVE",
"102 211 CURVE SMOOTH",
"102 301 OFFCURVE",
"153 393 OFFCURVE",
"281 393 CURVE SMOOTH",
"343 393 OFFCURVE",
"382 371 OFFCURVE",
"382 323 CURVE SMOOTH",
"382 268 OFFCURVE",
"332 252 OFFCURVE",
"274 252 CURVE SMOOTH",
"220 252 OFFCURVE",
"156 266 OFFCURVE",
"112 302 CURVE",
"102 286 LINE",
"156 242 OFFCURVE",
"220 227 OFFCURVE",
"273 227 CURVE SMOOTH",
"350 227 OFFCURVE",
"404 261 OFFCURVE",
"404 323 CURVE SMOOTH",
"404 386 OFFCURVE",
"350 417 OFFCURVE",
"279 417 CURVE SMOOTH",
"157 417 OFFCURVE",
"80 328 OFFCURVE",
"80 209 CURVE SMOOTH"
);
}
);
};
guideLines = (
{
angle = 90;
position = "{141, -37}";
},
{
position = "{131, 184}";
}
);
layerId = "A624ABCC-9A35-47B6-8D50-A9BB58C6ECD6";
leftMetricsKey = "=80";
rightMetricsKey = "=80";
name = "Light Oct 22 15, 14:46";
paths = (
{
closed = 1;
nodes = (
"80 61 OFFCURVE",
"188 -21 OFFCURVE",
"348 -21 CURVE SMOOTH",
"455 -21 OFFCURVE",
"541 16 OFFCURVE",
"541 109 CURVE SMOOTH",
"541 154 OFFCURVE",
"521 208 OFFCURVE",
"521 265 CURVE SMOOTH",
"521 351 OFFCURVE",
"566 392 OFFCURVE",
"641 392 CURVE SMOOTH",
"715 392 OFFCURVE",
"761 352 OFFCURVE",
"761 265 CURVE SMOOTH",
"761 207 OFFCURVE",
"741 157 OFFCURVE",
"741 106 CURVE SMOOTH",
"741 18 OFFCURVE",
"801 -21 OFFCURVE",
"882 -21 CURVE SMOOTH",
"988 -21 OFFCURVE",
"1035 46 OFFCURVE",
"1035 164 CURVE SMOOTH",
"1035 265 OFFCURVE",
"1001 349 OFFCURVE",
"944 403 CURVE",
"927 386 LINE",
"976 340 OFFCURVE",
"1013 270 OFFCURVE",
"1013 166 CURVE SMOOTH",
"1013 61 OFFCURVE",
"975 4 OFFCURVE",
"882 4 CURVE SMOOTH",
"808 4 OFFCURVE",
"763 40 OFFCURVE",
"763 107 CURVE SMOOTH",
"763 152 OFFCURVE",
"783 205 OFFCURVE",
"783 266 CURVE SMOOTH",
"783 366 OFFCURVE",
"729 417 OFFCURVE",
"641 417 CURVE SMOOTH",
"552 417 OFFCURVE",
"499 365 OFFCURVE",
"499 267 CURVE SMOOTH",
"499 206 OFFCURVE",
"519 149 OFFCURVE",
"519 110 CURVE SMOOTH",
"519 38 OFFCURVE",
"451 4 OFFCURVE",
"349 4 CURVE SMOOTH",
"200 4 OFFCURVE",
"102 76 OFFCURVE",
"102 207 CURVE SMOOTH",
"102 302 OFFCURVE",
"153 393 OFFCURVE",
"281 393 CURVE SMOOTH",
"343 393 OFFCURVE",
"382 371 OFFCURVE",
"382 323 CURVE SMOOTH",
"382 268 OFFCURVE",
"332 252 OFFCURVE",
"274 252 CURVE SMOOTH",
"220 252 OFFCURVE",
"156 266 OFFCURVE",
"112 302 CURVE",
"102 286 LINE",
"156 242 OFFCURVE",
"220 227 OFFCURVE",
"272 227 CURVE SMOOTH",
"351 227 OFFCURVE",
"404 261 OFFCURVE",
"404 323 CURVE SMOOTH",
"404 386 OFFCURVE",
"350 417 OFFCURVE",
"278 417 CURVE SMOOTH",
"157 417 OFFCURVE",
"80 329 OFFCURVE",
"80 206 CURVE SMOOTH"
);
}
);
width = 1115;
},
{
associatedMasterId = "034236B8-3FA8-43DA-9EDA-EFF269A687EC";
background = {
paths = (
{
closed = 1;
nodes = (
"80 61 OFFCURVE",
"188 -21 OFFCURVE",
"348 -21 CURVE SMOOTH",
"455 -21 OFFCURVE",
"541 16 OFFCURVE",
"541 109 CURVE SMOOTH",
"541 154 OFFCURVE",
"521 208 OFFCURVE",
"521 265 CURVE SMOOTH",
"521 351 OFFCURVE",
"566 392 OFFCURVE",
"641 392 CURVE SMOOTH",
"715 392 OFFCURVE",
"761 352 OFFCURVE",
"761 265 CURVE SMOOTH",
"761 207 OFFCURVE",
"741 157 OFFCURVE",
"741 106 CURVE SMOOTH",
"741 18 OFFCURVE",
"801 -21 OFFCURVE",
"882 -21 CURVE SMOOTH",
"988 -21 OFFCURVE",
"1035 46 OFFCURVE",
"1035 164 CURVE SMOOTH",
"1035 265 OFFCURVE",
"1001 349 OFFCURVE",
"944 403 CURVE",
"927 386 LINE",
"976 340 OFFCURVE",
"1013 270 OFFCURVE",
"1013 166 CURVE SMOOTH",
"1013 61 OFFCURVE",
"975 4 OFFCURVE",
"882 4 CURVE SMOOTH",
"808 4 OFFCURVE",
"763 40 OFFCURVE",
"763 107 CURVE SMOOTH",
"763 152 OFFCURVE",
"783 205 OFFCURVE",
"783 266 CURVE SMOOTH",
"783 366 OFFCURVE",
"729 417 OFFCURVE",
"641 417 CURVE SMOOTH",
"552 417 OFFCURVE",
"499 365 OFFCURVE",
"499 267 CURVE SMOOTH",
"499 206 OFFCURVE",
"519 149 OFFCURVE",
"519 110 CURVE SMOOTH",
"519 38 OFFCURVE",
"451 4 OFFCURVE",
"349 4 CURVE SMOOTH",
"200 4 OFFCURVE",
"102 76 OFFCURVE",
"102 207 CURVE SMOOTH",
"102 302 OFFCURVE",
"153 393 OFFCURVE",
"281 393 CURVE SMOOTH",
"343 393 OFFCURVE",
"382 371 OFFCURVE",
"382 323 CURVE SMOOTH",
"382 268 OFFCURVE",
"332 252 OFFCURVE",
"274 252 CURVE SMOOTH",
"220 252 OFFCURVE",
"156 266 OFFCURVE",
"112 302 CURVE",
"102 286 LINE",
"156 242 OFFCURVE",
"220 227 OFFCURVE",
"272 227 CURVE SMOOTH",
"351 227 OFFCURVE",
"404 261 OFFCURVE",
"404 323 CURVE SMOOTH",
"404 386 OFFCURVE",
"350 417 OFFCURVE",
"278 417 CURVE SMOOTH",
"157 417 OFFCURVE",
"80 329 OFFCURVE",
"80 206 CURVE SMOOTH"
);
}
);
};
guideLines = (
{
angle = 90;
position = "{141, -37}";
},
{
position = "{131, 184}";
}
);
layerId = "717041A1-19F0-4DF5-A417-DC3F289F6340";
leftMetricsKey = "=80";
rightMetricsKey = "=80";
name = "Light Oct 22 15, 15:09";
paths = (
{
closed = 1;
nodes = (
"455 -21 OFFCURVE",
"541 16 OFFCURVE",
"541 109 CURVE SMOOTH",
"541 154 OFFCURVE",
"521 208 OFFCURVE",
"521 265 CURVE SMOOTH",
"521 351 OFFCURVE",
"566 392 OFFCURVE",
"641 392 CURVE SMOOTH",
"715 392 OFFCURVE",
"761 352 OFFCURVE",
"761 265 CURVE SMOOTH",
"761 207 OFFCURVE",
"741 157 OFFCURVE",
"741 106 CURVE SMOOTH",
"741 18 OFFCURVE",
"801 -21 OFFCURVE",
"882 -21 CURVE SMOOTH",
"1021 -21 OFFCURVE",
"1101 59 OFFCURVE",
"1101 182 CURVE SMOOTH",
"1101 281 OFFCURVE",
"1049 351 OFFCURVE",
"944 395 CURVE",
"932 375 LINE",
"1032 336 OFFCURVE",
"1079 272 OFFCURVE",
"1079 183 CURVE SMOOTH",
"1079 74 OFFCURVE",
"1009 4 OFFCURVE",
"882 4 CURVE SMOOTH",
"808 4 OFFCURVE",
"763 40 OFFCURVE",
"763 107 CURVE SMOOTH",
"763 152 OFFCURVE",
"783 205 OFFCURVE",
"783 266 CURVE SMOOTH",
"783 366 OFFCURVE",
"729 417 OFFCURVE",
"641 417 CURVE SMOOTH",
"552 417 OFFCURVE",
"499 365 OFFCURVE",
"499 267 CURVE SMOOTH",
"499 206 OFFCURVE",
"519 149 OFFCURVE",
"519 110 CURVE SMOOTH",
"519 38 OFFCURVE",
"451 4 OFFCURVE",
"349 4 CURVE SMOOTH",
"200 4 OFFCURVE",
"102 76 OFFCURVE",
"102 207 CURVE SMOOTH",
"102 302 OFFCURVE",
"153 393 OFFCURVE",
"281 393 CURVE SMOOTH",
"343 393 OFFCURVE",
"382 371 OFFCURVE",
"382 323 CURVE SMOOTH",
"382 268 OFFCURVE",
"332 252 OFFCURVE",
"274 252 CURVE SMOOTH",
"220 252 OFFCURVE",
"156 266 OFFCURVE",
"112 302 CURVE",
"102 286 LINE",
"156 242 OFFCURVE",
"220 227 OFFCURVE",
"272 227 CURVE SMOOTH",
"351 227 OFFCURVE",
"404 261 OFFCURVE",
"404 323 CURVE SMOOTH",
"404 386 OFFCURVE",
"350 417 OFFCURVE",
"278 417 CURVE SMOOTH",
"157 417 OFFCURVE",
"80 329 OFFCURVE",
"80 206 CURVE SMOOTH",
"80 61 OFFCURVE",
"188 -21 OFFCURVE",
"348 -21 CURVE SMOOTH"
);
}
);
width = 1115;
}
);
leftKerningGroup = knLLLA;
leftMetricsKey = knLA.base;
rightKerningGroup = knmU;
rightMetricsKey = _part.knmU;
unicode = 0C89;
category = Letter;
},
{
glyphname = knUU;
lastChange = "2015-11-25 06:27:54 +0000";
layers = (
{
background = {
guideLines = (
{
angle = 90;
position = "{757, 106}";
}
);
paths = (
{
closed = 1;
nodes = (
"95 284 LINE",
"148 241 OFFCURVE",
"211 227 OFFCURVE",
"262 227 CURVE SMOOTH",
"341 227 OFFCURVE",
"394 261 OFFCURVE",
"394 323 CURVE SMOOTH",
"394 386 OFFCURVE",
"340 417 OFFCURVE",
"268 417 CURVE SMOOTH",
"153 417 OFFCURVE",
"70 338 OFFCURVE",
"70 214 CURVE SMOOTH",
"70 72 OFFCURVE",
"180 -21 OFFCURVE",
"357 -21 CURVE SMOOTH",
"467 -21 OFFCURVE",
"548 15 OFFCURVE",
"548 115 CURVE SMOOTH",
"548 158 OFFCURVE",
"533 223 OFFCURVE",
"533 269 CURVE SMOOTH",
"533 353 OFFCURVE",
"583 392 OFFCURVE",
"652 392 CURVE SMOOTH",
"720 392 OFFCURVE",
"771 354 OFFCURVE",
"771 270 CURVE SMOOTH",
"771 218 OFFCURVE",
"751 158 OFFCURVE",
"751 108 CURVE SMOOTH",
"751 18 OFFCURVE",
"814 -21 OFFCURVE",
"907 -21 CURVE SMOOTH",
"1036 -21 OFFCURVE",
"1102 55 OFFCURVE",
"1102 172 CURVE SMOOTH",
"1102 276 OFFCURVE",
"1050 349 OFFCURVE",
"945 395 CURVE",
"933 375 LINE",
"1033 334 OFFCURVE",
"1080 267 OFFCURVE",
"1080 173 CURVE SMOOTH",
"1080 70 OFFCURVE",
"1023 4 OFFCURVE",
"906 4 CURVE SMOOTH",
"818 4 OFFCURVE",
"773 41 OFFCURVE",
"773 108 CURVE SMOOTH",
"773 153 OFFCURVE",
"793 217 OFFCURVE",
"793 272 CURVE SMOOTH",
"793 367 OFFCURVE",
"734 417 OFFCURVE",
"652 417 CURVE SMOOTH",
"569 417 OFFCURVE",
"511 367 OFFCURVE",
"511 272 CURVE SMOOTH",
"511 220 OFFCURVE",
"528 154 OFFCURVE",
"526 110 CURVE SMOOTH",
"523 38 OFFCURVE",
"469 4 OFFCURVE",
"359 4 CURVE SMOOTH",
"190 4 OFFCURVE",
"92 84 OFFCURVE",
"92 214 CURVE SMOOTH",
"92 239 OFFCURVE",
"95 263 OFFCURVE",
"102 284 CURVE"
);
},
{
closed = 1;
nodes = (
"104 289 LINE",
"129 352 OFFCURVE",
"186 393 OFFCURVE",
"271 393 CURVE SMOOTH",
"333 393 OFFCURVE",
"372 371 OFFCURVE",
"372 323 CURVE SMOOTH",
"372 268 OFFCURVE",
"322 252 OFFCURVE",
"264 252 CURVE SMOOTH",
"209 252 OFFCURVE",
"144 267 OFFCURVE",
"100 303 CURVE"
);
}
);
};
hints = (
{
horizontal = 1;
origin = "{0, 120}";
target = "{0, 89}";
type = TTStem;
},
{
horizontal = 1;
origin = "{0, 108}";
target = "{0, 101}";
type = TTStem;
},
{
horizontal = 1;
origin = "{0, 114}";
target = "{0, 95}";
type = TTStem;
},
{
horizontal = 1;
origin = "{0, 38}";
target = "{0, 50}";
type = TTStem;
},
{
horizontal = 1;
origin = "{0, 114}";
target = "{0, 80}";
type = Align;
},
{
horizontal = 1;
origin = "{0, 114}";
target = "{0, 62}";
type = Align;
},
{
horizontal = 1;
origin = "{0, 95}";
target = "{0, 8}";
type = Align;
},
{
horizontal = 1;
origin = "{0, 95}";
target = "{0, 26}";
type = Align;
},
{
horizontal = 1;
origin = "{0, 89}";
target = "{0, 71}";
type = Align;
},
{
horizontal = 1;
origin = "{0, 89}";
target = "{0, 32}";
type = Align;
},
{
horizontal = 1;
origin = "{0, 120}";
target = "{0, 17}";
type = Align;
},
{
horizontal = 1;
origin = "{0, 120}";
target = "{0, 56}";
type = Align;
}
);
layerId = "034236B8-3FA8-43DA-9EDA-EFF269A687EC";
name = Light;
paths = (
{
closed = 1;
nodes = (
"467 -21 OFFCURVE",
"548 15 OFFCURVE",
"548 115 CURVE SMOOTH",
"548 158 OFFCURVE",
"533 223 OFFCURVE",
"533 269 CURVE SMOOTH",
"533 353 OFFCURVE",
"583 392 OFFCURVE",
"652 392 CURVE SMOOTH",
"720 392 OFFCURVE",
"771 354 OFFCURVE",
"771 270 CURVE SMOOTH",
"771 218 OFFCURVE",
"751 159 OFFCURVE",
"751 107 CURVE SMOOTH",
"751 18 OFFCURVE",
"807 -21 OFFCURVE",
"889 -21 CURVE SMOOTH",
"977 -21 OFFCURVE",
"1025 25 OFFCURVE",
"1025 101 CURVE SMOOTH",
"1025 152 OFFCURVE",
"1003 191 OFFCURVE",
"1003 243 CURVE SMOOTH",
"1003 342 OFFCURVE",
"1081 393 OFFCURVE",
"1194 393 CURVE SMOOTH",
"1349 393 OFFCURVE",
"1442 298 OFFCURVE",
"1442 172 CURVE SMOOTH",
"1442 93 OFFCURVE",
"1405 4 OFFCURVE",
"1275 4 CURVE SMOOTH",
"1194 4 OFFCURVE",
"1144 38 OFFCURVE",
"1144 99 CURVE SMOOTH",
"1144 147 OFFCURVE",
"1175 186 OFFCURVE",
"1225 194 CURVE",
"1222 189 OFFCURVE",
"1221 185 OFFCURVE",
"1221 180 CURVE SMOOTH",
"1221 163 OFFCURVE",
"1237 150 OFFCURVE",
"1269 150 CURVE SMOOTH",
"1299 150 OFFCURVE",
"1315 162 OFFCURVE",
"1315 183 CURVE SMOOTH",
"1315 202 OFFCURVE",
"1303 217 OFFCURVE",
"1256 217 CURVE SMOOTH",
"1173 217 OFFCURVE",
"1122 171 OFFCURVE",
"1122 100 CURVE SMOOTH",
"1122 25 OFFCURVE",
"1180 -21 OFFCURVE",
"1274 -21 CURVE SMOOTH",
"1402 -21 OFFCURVE",
"1464 63 OFFCURVE",
"1464 170 CURVE SMOOTH",
"1464 307 OFFCURVE",
"1361 417 OFFCURVE",
"1195 417 CURVE SMOOTH",
"1070 417 OFFCURVE",
"981 354 OFFCURVE",
"981 248 CURVE SMOOTH",
"981 196 OFFCURVE",
"1003 145 OFFCURVE",
"1003 99 CURVE SMOOTH",
"1003 34 OFFCURVE",
"960 4 OFFCURVE",
"890 4 CURVE SMOOTH",
"813 4 OFFCURVE",
"773 41 OFFCURVE",
"773 107 CURVE SMOOTH",
"773 154 OFFCURVE",
"793 216 OFFCURVE",
"793 272 CURVE SMOOTH",
"793 367 OFFCURVE",
"734 417 OFFCURVE",
"652 417 CURVE SMOOTH",
"569 417 OFFCURVE",
"511 367 OFFCURVE",
"511 272 CURVE SMOOTH",
"511 220 OFFCURVE",
"528 153 OFFCURVE",
"526 110 CURVE SMOOTH",
"523 38 OFFCURVE",
"469 4 OFFCURVE",
"359 4 CURVE SMOOTH",
"190 4 OFFCURVE",
"92 84 OFFCURVE",
"92 214 CURVE SMOOTH",
"92 326 OFFCURVE",
"163 393 OFFCURVE",
"271 393 CURVE SMOOTH",
"333 393 OFFCURVE",
"372 371 OFFCURVE",
"372 323 CURVE SMOOTH",
"372 268 OFFCURVE",
"322 252 OFFCURVE",
"264 252 CURVE SMOOTH",
"209 252 OFFCURVE",
"144 267 OFFCURVE",
"100 303 CURVE",
"95 284 LINE",
"148 241 OFFCURVE",
"211 227 OFFCURVE",
"262 227 CURVE SMOOTH",
"341 227 OFFCURVE",
"394 261 OFFCURVE",
"394 323 CURVE SMOOTH",
"394 386 OFFCURVE",
"340 417 OFFCURVE",
"268 417 CURVE SMOOTH",
"153 417 OFFCURVE",
"70 338 OFFCURVE",
"70 214 CURVE SMOOTH",
"70 72 OFFCURVE",
"180 -21 OFFCURVE",
"357 -21 CURVE SMOOTH"
);
}
);
width = 1544;
},
{
associatedMasterId = "034236B8-3FA8-43DA-9EDA-EFF269A687EC";
background = {
anchors = (
{
name = _knmU;
position = "{754, -21}";
}
);
paths = (
{
closed = 0;
nodes = (
"888 -21 LINE",
"965 -21 OFFCURVE",
"1009 21 OFFCURVE",
"1009 92 CURVE SMOOTH",
"1009 143 OFFCURVE",
"987 189 OFFCURVE",
"987 242 CURVE SMOOTH",
"987 343 OFFCURVE",
"1065 393 OFFCURVE",
"1178 393 CURVE SMOOTH",
"1333 393 OFFCURVE",
"1426 298 OFFCURVE",
"1426 172 CURVE SMOOTH",
"1426 93 OFFCURVE",
"1389 4 OFFCURVE",
"1259 4 CURVE SMOOTH",
"1178 4 OFFCURVE",
"1128 38 OFFCURVE",
"1128 99 CURVE SMOOTH",
"1128 147 OFFCURVE",
"1159 186 OFFCURVE",
"1209 194 CURVE",
"1206 189 OFFCURVE",
"1205 185 OFFCURVE",
"1205 180 CURVE SMOOTH",
"1205 163 OFFCURVE",
"1221 150 OFFCURVE",
"1253 150 CURVE SMOOTH",
"1283 150 OFFCURVE",
"1299 162 OFFCURVE",
"1299 183 CURVE SMOOTH",
"1299 202 OFFCURVE",
"1287 217 OFFCURVE",
"1240 217 CURVE SMOOTH",
"1157 217 OFFCURVE",
"1106 171 OFFCURVE",
"1106 100 CURVE SMOOTH",
"1106 25 OFFCURVE",
"1164 -21 OFFCURVE",
"1258 -21 CURVE SMOOTH",
"1386 -21 OFFCURVE",
"1448 63 OFFCURVE",
"1448 170 CURVE SMOOTH",
"1448 307 OFFCURVE",
"1345 417 OFFCURVE",
"1179 417 CURVE SMOOTH",
"1054 417 OFFCURVE",
"965 354 OFFCURVE",
"965 248 CURVE SMOOTH",
"965 195 OFFCURVE",
"987 136 OFFCURVE",
"987 90 CURVE SMOOTH",
"987 30 OFFCURVE",
"950 4 OFFCURVE",
"889 4 CURVE"
);
}
);
};
layerId = "8E8F0E9E-B32D-4FD8-A9D8-E97858FD7211";
leftMetricsKey = "=80";
rightMetricsKey = "=80";
name = "Light Oct 22 15, 14:44";
paths = (
{
closed = 1;
nodes = (
"1054 417 OFFCURVE",
"965 354 OFFCURVE",
"965 248 CURVE SMOOTH",
"965 195 OFFCURVE",
"987 136 OFFCURVE",
"987 90 CURVE SMOOTH",
"987 30 OFFCURVE",
"950 4 OFFCURVE",
"882 4 CURVE SMOOTH",
"808 4 OFFCURVE",
"763 40 OFFCURVE",
"763 107 CURVE SMOOTH",
"763 152 OFFCURVE",
"783 205 OFFCURVE",
"783 266 CURVE SMOOTH",
"783 366 OFFCURVE",
"729 417 OFFCURVE",
"641 417 CURVE SMOOTH",
"552 417 OFFCURVE",
"499 365 OFFCURVE",
"499 267 CURVE SMOOTH",
"499 206 OFFCURVE",
"519 149 OFFCURVE",
"519 110 CURVE SMOOTH",
"519 38 OFFCURVE",
"451 4 OFFCURVE",
"349 4 CURVE SMOOTH",
"200 4 OFFCURVE",
"102 76 OFFCURVE",
"102 207 CURVE SMOOTH",
"102 302 OFFCURVE",
"153 393 OFFCURVE",
"281 393 CURVE SMOOTH",
"343 393 OFFCURVE",
"382 371 OFFCURVE",
"382 323 CURVE SMOOTH",
"382 268 OFFCURVE",
"332 252 OFFCURVE",
"274 252 CURVE SMOOTH",
"220 252 OFFCURVE",
"156 266 OFFCURVE",
"112 302 CURVE",
"102 286 LINE",
"156 242 OFFCURVE",
"220 227 OFFCURVE",
"272 227 CURVE SMOOTH",
"351 227 OFFCURVE",
"404 261 OFFCURVE",
"404 323 CURVE SMOOTH",
"404 386 OFFCURVE",
"350 417 OFFCURVE",
"278 417 CURVE SMOOTH",
"157 417 OFFCURVE",
"80 329 OFFCURVE",
"80 206 CURVE SMOOTH",
"80 61 OFFCURVE",
"188 -21 OFFCURVE",
"348 -21 CURVE SMOOTH",
"455 -21 OFFCURVE",
"541 16 OFFCURVE",
"541 109 CURVE SMOOTH",
"541 154 OFFCURVE",
"521 208 OFFCURVE",
"521 265 CURVE SMOOTH",
"521 351 OFFCURVE",
"566 392 OFFCURVE",
"641 392 CURVE SMOOTH",
"715 392 OFFCURVE",
"761 352 OFFCURVE",
"761 265 CURVE SMOOTH",
"761 207 OFFCURVE",
"741 157 OFFCURVE",
"741 106 CURVE SMOOTH",
"741 18 OFFCURVE",
"801 -21 OFFCURVE",
"882 -21 CURVE SMOOTH",
"965 -21 OFFCURVE",
"1009 21 OFFCURVE",
"1009 92 CURVE SMOOTH",
"1009 143 OFFCURVE",
"987 189 OFFCURVE",
"987 242 CURVE SMOOTH",
"987 343 OFFCURVE",
"1065 393 OFFCURVE",
"1178 393 CURVE SMOOTH",
"1333 393 OFFCURVE",
"1426 298 OFFCURVE",
"1426 172 CURVE SMOOTH",
"1426 93 OFFCURVE",
"1389 4 OFFCURVE",
"1259 4 CURVE SMOOTH",
"1178 4 OFFCURVE",
"1128 38 OFFCURVE",
"1128 99 CURVE SMOOTH",
"1128 147 OFFCURVE",
"1159 186 OFFCURVE",
"1209 194 CURVE",
"1206 189 OFFCURVE",
"1205 185 OFFCURVE",
"1205 180 CURVE SMOOTH",
"1205 163 OFFCURVE",
"1221 150 OFFCURVE",
"1253 150 CURVE SMOOTH",
"1283 150 OFFCURVE",
"1299 162 OFFCURVE",
"1299 183 CURVE SMOOTH",
"1299 202 OFFCURVE",
"1287 217 OFFCURVE",
"1240 217 CURVE SMOOTH",
"1157 217 OFFCURVE",
"1106 171 OFFCURVE",
"1106 100 CURVE SMOOTH",
"1106 25 OFFCURVE",
"1164 -21 OFFCURVE",
"1258 -21 CURVE SMOOTH",
"1386 -21 OFFCURVE",
"1448 63 OFFCURVE",
"1448 170 CURVE SMOOTH",
"1448 307 OFFCURVE",
"1345 417 OFFCURVE",
"1179 417 CURVE SMOOTH"
);
}
);
width = 1528;
}
);
leftKerningGroup = knLLLA;
leftMetricsKey = knLA.base;
rightKerningGroup = knmUU;
rightMetricsKey = _part.knmUU;
unicode = 0C8A;
category = Letter;
},
{
glyphname = knvL;
lastChange = "2015-12-02 21:13:25 +0000";
layers = (
{
background = {
guideLines = (
{
position = "{970, 159}";
}
);
paths = (
{
closed = 1;
nodes = (
"950 365 OFFCURVE",
"859 417 OFFCURVE",
"751 417 CURVE SMOOTH",
"640 417 OFFCURVE",
"555 378 OFFCURVE",
"508 283 CURVE",
"461 377 OFFCURVE",
"380 417 OFFCURVE",
"268 417 CURVE SMOOTH",
"157 417 OFFCURVE",
"66 370 OFFCURVE",
"66 246 CURVE SMOOTH",
"66 209 OFFCURVE",
"74 175 OFFCURVE",
"90 144 CURVE",
"111 151 LINE",
"96 182 OFFCURVE",
"88 212 OFFCURVE",
"88 242 CURVE SMOOTH",
"88 346 OFFCURVE",
"168 392 OFFCURVE",
"272 392 CURVE SMOOTH",
"389 392 OFFCURVE",
"455 343 OFFCURVE",
"496 256 CURVE",
"520 256 LINE",
"561 344 OFFCURVE",
"631 392 OFFCURVE",
"748 392 CURVE SMOOTH",
"859 392 OFFCURVE",
"928 333 OFFCURVE",
"928 259 CURVE SMOOTH",
"928 209 OFFCURVE",
"910 193 OFFCURVE",
"889 169 CURVE SMOOTH",
"861 136 OFFCURVE",
"848 113 OFFCURVE",
"848 77 CURVE SMOOTH",
"848 20 OFFCURVE",
"889 -21 OFFCURVE",
"966 -21 CURVE SMOOTH",
"1038 -21 OFFCURVE",
"1076 20 OFFCURVE",
"1076 88 CURVE SMOOTH",
"1076 105 OFFCURVE",
"1074 121 OFFCURVE",
"1071 133 CURVE",
"1049 135 LINE",
"1052 120 OFFCURVE",
"1054 105 OFFCURVE",
"1054 88 CURVE SMOOTH",
"1054 34 OFFCURVE",
"1030 3 OFFCURVE",
"966 3 CURVE SMOOTH",
"898 3 OFFCURVE",
"870 34 OFFCURVE",
"870 77 CURVE SMOOTH",
"870 115 OFFCURVE",
"890 137 OFFCURVE",
"907 157 CURVE SMOOTH",
"929 183 OFFCURVE",
"950 203 OFFCURVE",
"950 261 CURVE SMOOTH"
);
}
);
};
guideLines = (
{
angle = 90;
position = "{70, 246}";
}
);
hints = (
{
horizontal = 1;
origin = "{0, 40}";
target = "{0, 53}";
type = TTStem;
},
{
horizontal = 1;
origin = "{0, 24}";
target = "{0, 5}";
type = TTStem;
},
{
horizontal = 1;
origin = "{0, 8}";
target = "{0, 21}";
type = TTStem;
},
{
horizontal = 1;
origin = "{0, 8}";
target = "{0, 2}";
type = Align;
},
{
horizontal = 1;
origin = "{0, 21}";
target = "{0, 28}";
type = Align;
},
{
horizontal = 1;
origin = "{0, 14}";
type = Anchor;
},
{
horizontal = 1;
origin = "{0, 59}";
target = "{0, 34}";
type = Align;
options = 4;
}
);
layerId = "034236B8-3FA8-43DA-9EDA-EFF269A687EC";
name = Light;
paths = (
{
closed = 1;
nodes = (
"946 365 OFFCURVE",
"855 417 OFFCURVE",
"747 417 CURVE SMOOTH",
"636 417 OFFCURVE",
"555 378 OFFCURVE",
"508 283 CURVE",
"461 377 OFFCURVE",
"384 417 OFFCURVE",
"272 417 CURVE SMOOTH",
"161 417 OFFCURVE",
"70 370 OFFCURVE",
"70 246 CURVE SMOOTH",
"70 209 OFFCURVE",
"78 175 OFFCURVE",
"94 144 CURVE",
"115 151 LINE",
"100 182 OFFCURVE",
"92 212 OFFCURVE",
"92 242 CURVE SMOOTH",
"92 346 OFFCURVE",
"172 392 OFFCURVE",
"276 392 CURVE SMOOTH",
"393 392 OFFCURVE",
"455 343 OFFCURVE",
"496 256 CURVE",
"520 256 LINE",
"561 344 OFFCURVE",
"627 392 OFFCURVE",
"744 392 CURVE SMOOTH",
"855 392 OFFCURVE",
"924 333 OFFCURVE",
"924 259 CURVE SMOOTH",
"924 209 OFFCURVE",
"906 193 OFFCURVE",
"885 169 CURVE SMOOTH",
"857 136 OFFCURVE",
"844 109 OFFCURVE",
"844 77 CURVE SMOOTH",
"844 20 OFFCURVE",
"885 -21 OFFCURVE",
"962 -21 CURVE SMOOTH",
"1034 -21 OFFCURVE",
"1072 20 OFFCURVE",
"1072 88 CURVE SMOOTH",
"1072 105 OFFCURVE",
"1070 121 OFFCURVE",
"1067 133 CURVE",
"1045 135 LINE",
"1048 120 OFFCURVE",
"1050 105 OFFCURVE",
"1050 88 CURVE SMOOTH",
"1050 34 OFFCURVE",
"1026 3 OFFCURVE",
"962 3 CURVE SMOOTH",
"894 3 OFFCURVE",
"866 34 OFFCURVE",
"866 77 CURVE SMOOTH",
"866 115 OFFCURVE",
"886 137 OFFCURVE",
"903 157 CURVE SMOOTH",
"925 183 OFFCURVE",
"946 203 OFFCURVE",
"946 261 CURVE SMOOTH"
);
}
);
width = 1097;
}
);
leftKerningGroup = knvL;
unicode = 0C8C;
category = Letter;
},
{
glyphname = knvLL;
lastChange = "2015-12-02 21:20:42 +0000";
layers = (
{
background = {
paths = (
{
closed = 1;
nodes = (
"946 357 OFFCURVE",
"866 417 OFFCURVE",
"741 417 CURVE SMOOTH",
"646 417 OFFCURVE",
"556 382 OFFCURVE",
"508 283 CURVE",
"462 376 OFFCURVE",
"383 417 OFFCURVE",
"275 417 CURVE SMOOTH",
"160 417 OFFCURVE",
"70 370 OFFCURVE",
"70 246 CURVE SMOOTH",
"70 209 OFFCURVE",
"78 175 OFFCURVE",
"94 144 CURVE",
"115 151 LINE",
"100 182 OFFCURVE",
"92 211 OFFCURVE",
"92 244 CURVE SMOOTH",
"92 346 OFFCURVE",
"171 392 OFFCURVE",
"279 392 CURVE SMOOTH",
"397 392 OFFCURVE",
"458 337 OFFCURVE",
"496 256 CURVE",
"520 256 LINE",
"559 342 OFFCURVE",
"629 392 OFFCURVE",
"738 392 CURVE SMOOTH",
"861 392 OFFCURVE",
"924 329 OFFCURVE",
"924 263 CURVE SMOOTH",
"924 171 OFFCURVE",
"804 166 OFFCURVE",
"804 70 CURVE SMOOTH",
"804 16 OFFCURVE",
"842 -21 OFFCURVE",
"930 -21 CURVE SMOOTH",
"1053 -21 OFFCURVE",
"1098 58 OFFCURVE",
"1098 194 CURVE SMOOTH",
"1098 264 OFFCURVE",
"1086 341 OFFCURVE",
"1058 405 CURVE",
"1036 405 LINE",
"1036 404 LINE",
"1061 336 OFFCURVE",
"1076 267 OFFCURVE",
"1076 187 CURVE SMOOTH",
"1076 72 OFFCURVE",
"1045 3 OFFCURVE",
"929 3 CURVE SMOOTH",
"852 3 OFFCURVE",
"826 30 OFFCURVE",
"826 70 CURVE SMOOTH",
"826 155 OFFCURVE",
"946 154 OFFCURVE",
"946 266 CURVE SMOOTH"
);
},
{
closed = 1;
nodes = (
"1197 147 OFFCURVE",
"1228 186 OFFCURVE",
"1278 194 CURVE",
"1275 189 OFFCURVE",
"1274 185 OFFCURVE",
"1274 180 CURVE SMOOTH",
"1274 163 OFFCURVE",
"1290 150 OFFCURVE",
"1322 150 CURVE SMOOTH",
"1352 150 OFFCURVE",
"1368 162 OFFCURVE",
"1368 183 CURVE SMOOTH",
"1368 202 OFFCURVE",
"1356 217 OFFCURVE",
"1309 217 CURVE SMOOTH",
"1226 217 OFFCURVE",
"1175 171 OFFCURVE",
"1175 100 CURVE SMOOTH",
"1175 25 OFFCURVE",
"1232 -21 OFFCURVE",
"1327 -21 CURVE SMOOTH",
"1445 -21 OFFCURVE",
"1517 51 OFFCURVE",
"1517 173 CURVE SMOOTH",
"1517 320 OFFCURVE",
"1413 405 OFFCURVE",
"1192 405 CURVE SMOOTH",
"1049 405 LINE",
"1057 383 LINE",
"1194 383 LINE SMOOTH",
"1389 383 OFFCURVE",
"1495 308 OFFCURVE",
"1495 170 CURVE SMOOTH",
"1495 66 OFFCURVE",
"1435 4 OFFCURVE",
"1327 4 CURVE SMOOTH",
"1238 4 OFFCURVE",
"1197 44 OFFCURVE",
"1197 101 CURVE SMOOTH"
);
}
);
};
hints = (
{
horizontal = 1;
origin = "{0, 57}";
target = "{0, 7}";
type = TTStem;
},
{
horizontal = 1;
origin = "{0, 41}";
target = "{0, 22}";
type = TTStem;
},
{
horizontal = 1;
origin = "{0, 0}";
target = "{0, 63}";
type = TTStem;
},
{
horizontal = 1;
origin = "{0, 25}";
target = "{0, 38}";
type = TTStem;
},
{
horizontal = 1;
origin = "{0, 25}";
target = "{0, 19}";
type = Align;
},
{
horizontal = 1;
origin = "{0, 38}";
target = "{0, 45}";
type = Align;
},
{
horizontal = 1;
origin = "{0, 7}";
target = "{0, 70}";
type = Align;
},
{
horizontal = 1;
origin = "{0, 57}";
target = "{0, 94}";
type = Align;
},
{
horizontal = 1;
origin = "{0, 76}";
target = "{0, 88}";
type = TTStem;
},
{
horizontal = 1;
origin = "{0, 31}";
type = Anchor;
},
{
horizontal = 1;
origin = "{0, 13}";
target = "{0, 51}";
type = Align;
options = 4;
}
);
layerId = "034236B8-3FA8-43DA-9EDA-EFF269A687EC";
name = Light;
paths = (
{
closed = 1;
nodes = (
"1036 405 LINE",
"1036 404 LINE",
"1061 336 OFFCURVE",
"1076 267 OFFCURVE",
"1076 186 CURVE SMOOTH",
"1076 70 OFFCURVE",
"1045 3 OFFCURVE",
"931 3 CURVE SMOOTH",
"856 3 OFFCURVE",
"826 30 OFFCURVE",
"826 71 CURVE SMOOTH",
"826 109 OFFCURVE",
"851 128 OFFCURVE",
"888 157 CURVE SMOOTH",
"927 188 OFFCURVE",
"946 215 OFFCURVE",
"946 265 CURVE SMOOTH",
"946 358 OFFCURVE",
"865 417 OFFCURVE",
"741 417 CURVE SMOOTH",
"646 417 OFFCURVE",
"556 382 OFFCURVE",
"508 283 CURVE",
"462 376 OFFCURVE",
"383 417 OFFCURVE",
"275 417 CURVE SMOOTH",
"160 417 OFFCURVE",
"70 370 OFFCURVE",
"70 246 CURVE SMOOTH",
"70 209 OFFCURVE",
"78 175 OFFCURVE",
"94 144 CURVE",
"115 151 LINE",
"100 182 OFFCURVE",
"92 211 OFFCURVE",
"92 244 CURVE SMOOTH",
"92 346 OFFCURVE",
"171 392 OFFCURVE",
"279 392 CURVE SMOOTH",
"397 392 OFFCURVE",
"458 337 OFFCURVE",
"496 256 CURVE",
"520 256 LINE",
"559 342 OFFCURVE",
"629 392 OFFCURVE",
"738 392 CURVE SMOOTH",
"861 392 OFFCURVE",
"924 330 OFFCURVE",
"924 262 CURVE SMOOTH",
"924 222 OFFCURVE",
"907 197 OFFCURVE",
"865 164 CURVE SMOOTH",
"834 140 OFFCURVE",
"804 117 OFFCURVE",
"804 71 CURVE SMOOTH",
"804 16 OFFCURVE",
"846 -21 OFFCURVE",
"932 -21 CURVE SMOOTH",
"1053 -21 OFFCURVE",
"1098 57 OFFCURVE",
"1098 194 CURVE SMOOTH",
"1098 256 OFFCURVE",
"1089 324 OFFCURVE",
"1067 383 CURVE",
"1197 383 LINE SMOOTH",
"1391 383 OFFCURVE",
"1495 310 OFFCURVE",
"1495 171 CURVE SMOOTH",
"1495 65 OFFCURVE",
"1435 4 OFFCURVE",
"1327 4 CURVE SMOOTH",
"1238 4 OFFCURVE",
"1197 45 OFFCURVE",
"1197 100 CURVE SMOOTH",
"1197 145 OFFCURVE",
"1225 185 OFFCURVE",
"1278 194 CURVE",
"1275 189 OFFCURVE",
"1274 185 OFFCURVE",
"1274 180 CURVE SMOOTH",
"1274 163 OFFCURVE",
"1290 150 OFFCURVE",
"1322 150 CURVE SMOOTH",
"1352 150 OFFCURVE",
"1368 162 OFFCURVE",
"1368 183 CURVE SMOOTH",
"1368 202 OFFCURVE",
"1356 217 OFFCURVE",
"1309 217 CURVE SMOOTH",
"1226 217 OFFCURVE",
"1175 171 OFFCURVE",
"1175 100 CURVE SMOOTH",
"1175 25 OFFCURVE",
"1232 -21 OFFCURVE",
"1327 -21 CURVE SMOOTH",
"1445 -21 OFFCURVE",
"1517 52 OFFCURVE",
"1517 172 CURVE SMOOTH",
"1517 317 OFFCURVE",
"1411 405 OFFCURVE",
"1192 405 CURVE SMOOTH"
);
}
);
width = 1597;
}
);
leftKerningGroup = knvL;
leftMetricsKey = knvL;
rightKerningGroup = knmUU;
rightMetricsKey = _part.knmUU;
unicode = 0CE1;
category = Letter;
},
{
glyphname = knE;
lastChange = "2015-11-25 06:27:54 +0000";
layers = (
{
background = {
paths = (
{
closed = 1;
nodes = (
"845 -21 OFFCURVE",
"923 36 OFFCURVE",
"923 144 CURVE SMOOTH",
"923 325 OFFCURVE",
"707 401 OFFCURVE",
"291 401 CURVE",
"289 381 LINE",
"653 381 OFFCURVE",
"901 318 OFFCURVE",
"901 144 CURVE SMOOTH",
"901 50 OFFCURVE",
"829 4 OFFCURVE",
"719 4 CURVE SMOOTH",
"604 4 OFFCURVE",
"534 54 OFFCURVE",
"494 140 CURVE",
"470 140 LINE",
"431 52 OFFCURVE",
"364 4 OFFCURVE",
"249 4 CURVE SMOOTH",
"155 4 OFFCURVE",
"87 36 OFFCURVE",
"87 108 CURVE SMOOTH",
"87 175 OFFCURVE",
"147 206 OFFCURVE",
"233 206 CURVE SMOOTH",
"268 206 OFFCURVE",
"300 201 OFFCURVE",
"328 191 CURVE",
"333 212 LINE",
"314 221 OFFCURVE",
"274 228 OFFCURVE",
"233 228 CURVE SMOOTH",
"135 228 OFFCURVE",
"65 189 OFFCURVE",
"65 105 CURVE SMOOTH",
"65 19 OFFCURVE",
"139 -21 OFFCURVE",
"248 -21 CURVE SMOOTH",
"363 -21 OFFCURVE",
"438 23 OFFCURVE",
"482 113 CURVE",
"528 20 OFFCURVE",
"612 -21 OFFCURVE",
"719 -21 CURVE SMOOTH"
);
}
);
};
hints = (
{
horizontal = 1;
origin = "{0, 38}";
target = "{0, 19}";
type = TTStem;
},
{
horizontal = 1;
origin = "{0, 41}";
target = "{0, 16}";
type = TTStem;
},
{
horizontal = 1;
origin = "{0, 25}";
target = "{0, 32}";
type = TTStem;
},
{
horizontal = 1;
origin = "{0, 6}";
target = "{0, 5}";
type = TTStem;
},
{
horizontal = 1;
origin = "{0, 19}";
target = "{0, 12}";
type = Align;
},
{
horizontal = 1;
origin = "{0, 38}";
target = "{0, 44}";
type = Align;
}
);
layerId = "034236B8-3FA8-43DA-9EDA-EFF269A687EC";
name = Light;
paths = (
{
closed = 1;
nodes = (
"845 -21 OFFCURVE",
"923 36 OFFCURVE",
"923 144 CURVE SMOOTH",
"923 325 OFFCURVE",
"707 401 OFFCURVE",
"291 401 CURVE",
"289 381 LINE",
"653 381 OFFCURVE",
"901 318 OFFCURVE",
"901 144 CURVE SMOOTH",
"901 50 OFFCURVE",
"829 4 OFFCURVE",
"719 4 CURVE SMOOTH",
"604 4 OFFCURVE",
"534 54 OFFCURVE",
"494 140 CURVE",
"470 140 LINE",
"431 52 OFFCURVE",
"364 4 OFFCURVE",
"249 4 CURVE SMOOTH",
"155 4 OFFCURVE",
"87 36 OFFCURVE",
"87 108 CURVE SMOOTH",
"87 175 OFFCURVE",
"147 206 OFFCURVE",
"233 206 CURVE SMOOTH",
"268 206 OFFCURVE",
"300 201 OFFCURVE",
"328 191 CURVE",
"333 212 LINE",
"312 221 OFFCURVE",
"275 228 OFFCURVE",
"233 228 CURVE SMOOTH",
"135 228 OFFCURVE",
"65 189 OFFCURVE",
"65 105 CURVE SMOOTH",
"65 19 OFFCURVE",
"139 -21 OFFCURVE",
"248 -21 CURVE SMOOTH",
"363 -21 OFFCURVE",
"438 23 OFFCURVE",
"482 113 CURVE",
"528 20 OFFCURVE",
"612 -21 OFFCURVE",
"719 -21 CURVE SMOOTH"
);
}
);
width = 1016;
}
);
leftKerningGroup = knvE;
rightKerningGroup = knvE;
unicode = 0C8E;
category = Letter;
},
{
glyphname = knEE;
lastChange = "2015-12-02 21:15:03 +0000";
layers = (
{
background = {
paths = (
{
closed = 1;
nodes = (
"343 -21 OFFCURVE",
"427 19 OFFCURVE",
"475 113 CURVE",
"523 19 OFFCURVE",
"607 -21 OFFCURVE",
"728 -21 CURVE SMOOTH",
"837 -21 OFFCURVE",
"930 28 OFFCURVE",
"930 149 CURVE SMOOTH",
"930 351 OFFCURVE",
"693 399 OFFCURVE",
"556 402 CURVE",
"556 383 LINE",
"683 383 OFFCURVE",
"908 329 OFFCURVE",
"908 153 CURVE SMOOTH",
"908 52 OFFCURVE",
"829 4 OFFCURVE",
"723 4 CURVE SMOOTH",
"597 4 OFFCURVE",
"530 53 OFFCURVE",
"487 140 CURVE",
"463 140 LINE",
"420 53 OFFCURVE",
"353 4 OFFCURVE",
"227 4 CURVE SMOOTH",
"121 4 OFFCURVE",
"42 52 OFFCURVE",
"42 153 CURVE SMOOTH",
"42 329 OFFCURVE",
"267 383 OFFCURVE",
"394 383 CURVE",
"394 402 LINE",
"257 399 OFFCURVE",
"20 351 OFFCURVE",
"20 149 CURVE SMOOTH",
"20 28 OFFCURVE",
"113 -21 OFFCURVE",
"222 -21 CURVE SMOOTH"
);
},
{
closed = 1;
nodes = (
"724 383 LINE",
"724 405 LINE",
"8 405 LINE",
"8 383 LINE"
);
}
);
};
hints = (
{
horizontal = 1;
origin = "{0, 44}";
target = "{0, 25}";
type = TTStem;
},
{
horizontal = 1;
origin = "{0, 47}";
target = "{0, 22}";
type = TTStem;
},
{
horizontal = 1;
origin = "{0, 31}";
target = "{0, 38}";
type = TTStem;
},
{
horizontal = 1;
origin = "{0, 9}";
target = "{0, 2}";
type = TTStem;
},
{
horizontal = 1;
origin = "{0, 25}";
target = "{0, 18}";
type = Align;
},
{
horizontal = 1;
origin = "{0, 50}";
target = "{0, 44}";
type = Align;
},
{
horizontal = 1;
origin = "{0, 56}";
target = "{0, 12}";
type = TTStem;
}
);
layerId = "034236B8-3FA8-43DA-9EDA-EFF269A687EC";
name = Light;
paths = (
{
closed = 1;
nodes = (
"603 345 OFFCURVE",
"553 310 OFFCURVE",
"479 310 CURVE SMOOTH",
"372 310 OFFCURVE",
"317 382 OFFCURVE",
"306 511 CURVE",
"284 507 LINE",
"294 368 OFFCURVE",
"359 285 OFFCURVE",
"479 285 CURVE SMOOTH",
"559 285 OFFCURVE",
"616 322 OFFCURVE",
"633 396 CURVE",
"807 369 OFFCURVE",
"908 301 OFFCURVE",
"908 169 CURVE SMOOTH",
"908 50 OFFCURVE",
"828 4 OFFCURVE",
"721 4 CURVE SMOOTH",
"610 4 OFFCURVE",
"537 54 OFFCURVE",
"499 140 CURVE",
"475 140 LINE",
"436 52 OFFCURVE",
"368 4 OFFCURVE",
"251 4 CURVE SMOOTH",
"155 4 OFFCURVE",
"87 36 OFFCURVE",
"87 108 CURVE SMOOTH",
"87 175 OFFCURVE",
"147 206 OFFCURVE",
"234 206 CURVE SMOOTH",
"269 206 OFFCURVE",
"302 201 OFFCURVE",
"330 191 CURVE",
"335 212 LINE",
"316 221 OFFCURVE",
"276 228 OFFCURVE",
"234 228 CURVE SMOOTH",
"136 228 OFFCURVE",
"65 189 OFFCURVE",
"65 105 CURVE SMOOTH",
"65 19 OFFCURVE",
"140 -21 OFFCURVE",
"251 -21 CURVE SMOOTH",
"367 -21 OFFCURVE",
"443 23 OFFCURVE",
"487 113 CURVE",
"533 15 OFFCURVE",
"626 -21 OFFCURVE",
"723 -21 CURVE SMOOTH",
"849 -21 OFFCURVE",
"930 39 OFFCURVE",
"930 167 CURVE SMOOTH",
"930 319 OFFCURVE",
"815 392 OFFCURVE",
"618 417 CURVE"
);
}
);
width = 1023;
}
);
leftKerningGroup = knvE;
rightKerningGroup = knvE;
rightMetricsKey = knE;
unicode = 0C8F;
category = Letter;
},
{
glyphname = knAI;
lastChange = "2015-11-25 06:27:54 +0000";
layers = (
{
background = {
paths = (
{
closed = 1;
nodes = (
"848 -21 OFFCURVE",
"977 58 OFFCURVE",
"977 185 CURVE SMOOTH",
"977 327 OFFCURVE",
"833 398 OFFCURVE",
"658 398 CURVE SMOOTH",
"483 398 OFFCURVE",
"339 327 OFFCURVE",
"339 185 CURVE SMOOTH",
"339 58 OFFCURVE",
"468 -21 OFFCURVE",
"658 -21 CURVE SMOOTH"
);
},
{
closed = 1;
nodes = (
"473 4 OFFCURVE",
"362 77 OFFCURVE",
"362 189 CURVE SMOOTH",
"362 310 OFFCURVE",
"494 383 OFFCURVE",
"658 383 CURVE SMOOTH",
"822 383 OFFCURVE",
"954 310 OFFCURVE",
"954 189 CURVE SMOOTH",
"954 77 OFFCURVE",
"843 4 OFFCURVE",
"658 4 CURVE SMOOTH"
);
},
{
closed = 1;
nodes = (
"837 383 LINE",
"837 405 LINE",
"327 405 LINE",
"327 383 LINE"
);
}
);
};
hints = (
{
horizontal = 1;
origin = "{0, 51}";
target = "{0, 32}";
type = TTStem;
},
{
horizontal = 1;
origin = "{0, 54}";
target = "{0, 29}";
type = TTStem;
},
{
horizontal = 1;
origin = "{0, 38}";
target = "{0, 45}";
type = TTStem;
},
{
horizontal = 1;
origin = "{0, 5}";
target = "{0, 12}";
type = TTStem;
},
{
horizontal = 1;
origin = "{0, 5}";
target = "{0, 63}";
type = Align;
},
{
horizontal = 1;
origin = "{0, 12}";
target = "{0, 19}";
type = Align;
},
{
horizontal = 1;
origin = "{0, 15}";
target = "{0, 2}";
type = TTStem;
},
{
horizontal = 1;
origin = "{0, 32}";
target = "{0, 25}";
type = Align;
},
{
horizontal = 1;
origin = "{0, 51}";
target = "{0, 57}";
type = Align;
}
);
layerId = "034236B8-3FA8-43DA-9EDA-EFF269A687EC";
name = Light;
paths = (
{
closed = 1;
nodes = (
"651 417 OFFCURVE",
"575 378 OFFCURVE",
"528 291 CURVE",
"478 385 OFFCURVE",
"397 417 OFFCURVE",
"307 417 CURVE SMOOTH",
"208 417 OFFCURVE",
"131 373 OFFCURVE",
"97 276 CURVE",
"116 266 LINE",
"147 344 OFFCURVE",
"198 393 OFFCURVE",
"306 393 CURVE SMOOTH",
"412 393 OFFCURVE",
"475 350 OFFCURVE",
"517 266 CURVE",
"541 266 LINE",
"583 353 OFFCURVE",
"647 393 OFFCURVE",
"746 393 CURVE SMOOTH",
"867 393 OFFCURVE",
"955 337 OFFCURVE",
"955 194 CURVE SMOOTH",
"955 55 OFFCURVE",
"872 4 OFFCURVE",
"761 4 CURVE SMOOTH",
"660 4 OFFCURVE",
"584 47 OFFCURVE",
"541 140 CURVE",
"517 140 LINE",
"471 49 OFFCURVE",
"395 4 OFFCURVE",
"272 4 CURVE SMOOTH",
"169 4 OFFCURVE",
"97 35 OFFCURVE",
"97 106 CURVE SMOOTH",
"97 172 OFFCURVE",
"158 206 OFFCURVE",
"257 206 CURVE SMOOTH",
"291 206 OFFCURVE",
"327 202 OFFCURVE",
"357 192 CURVE",
"362 213 LINE",
"340 222 OFFCURVE",
"296 228 OFFCURVE",
"255 228 CURVE SMOOTH",
"149 228 OFFCURVE",
"75 186 OFFCURVE",
"75 104 CURVE SMOOTH",
"75 19 OFFCURVE",
"152 -21 OFFCURVE",
"272 -21 CURVE SMOOTH",
"390 -21 OFFCURVE",
"479 18 OFFCURVE",
"529 113 CURVE",
"576 15 OFFCURVE",
"667 -21 OFFCURVE",
"762 -21 CURVE SMOOTH",
"896 -21 OFFCURVE",
"977 51 OFFCURVE",
"977 193 CURVE SMOOTH",
"977 337 OFFCURVE",
"892 417 OFFCURVE",
"749 417 CURVE SMOOTH"
);
}
);
width = 1057;
}
);
unicode = 0C90;
category = Letter;
},
{
glyphname = knO;
lastChange = "2015-12-03 05:26:15 +0000";
layers = (
{
anchors = (
{
name = dot;
position = "{516, 246}";
},
{
name = headline;
position = "{979, 383}";
},
{
name = knmU;
position = "{966, -21}";
},
{
name = teardrop;
position = "{516, 0}";
}
);
background = {
paths = (
{
closed = 1;
nodes = (
"382 -21 OFFCURVE",
"465 15 OFFCURVE",
"516 112 CURVE",
"554 18 OFFCURVE",
"639 -21 OFFCURVE",
"754 -21 CURVE SMOOTH",
"891 -21 OFFCURVE",
"979 35 OFFCURVE",
"979 163 CURVE SMOOTH",
"979 204 OFFCURVE",
"970 238 OFFCURVE",
"952 271 CURVE",
"931 264 LINE",
"947 235 OFFCURVE",
"957 203 OFFCURVE",
"957 165 CURVE SMOOTH",
"957 52 OFFCURVE",
"877 4 OFFCURVE",
"751 4 CURVE SMOOTH",
"629 4 OFFCURVE",
"563 48 OFFCURVE",
"528 140 CURVE",
"504 140 LINE",
"455 43 OFFCURVE",
"387 4 OFFCURVE",
"269 4 CURVE SMOOTH",
"162 4 OFFCURVE",
"87 31 OFFCURVE",
"87 100 CURVE SMOOTH",
"87 169 OFFCURVE",
"150 181 OFFCURVE",
"244 204 CURVE SMOOTH",
"333 226 OFFCURVE",
"372 260 OFFCURVE",
"372 315 CURVE SMOOTH",
"372 374 OFFCURVE",
"335 417 OFFCURVE",
"246 417 CURVE SMOOTH",
"166 417 OFFCURVE",
"112 379 OFFCURVE",
"112 309 CURVE SMOOTH",
"112 295 OFFCURVE",
"114 282 OFFCURVE",
"117 271 CURVE",
"140 269 LINE",
"136 282 OFFCURVE",
"134 295 OFFCURVE",
"134 309 CURVE SMOOTH",
"134 365 OFFCURVE",
"175 393 OFFCURVE",
"246 393 CURVE SMOOTH",
"323 393 OFFCURVE",
"350 363 OFFCURVE",
"350 318 CURVE SMOOTH",
"350 261 OFFCURVE",
"301 241 OFFCURVE",
"224 222 CURVE SMOOTH",
"134 200 OFFCURVE",
"65 181 OFFCURVE",
"65 101 CURVE SMOOTH",
"65 10 OFFCURVE",
"154 -21 OFFCURVE",
"266 -21 CURVE SMOOTH"
);
}
);
};
hints = (
{
horizontal = 1;
origin = "{0, 62}";
target = "{0, 25}";
type = TTStem;
},
{
horizontal = 1;
origin = "{0, 2}";
target = "{0, 22}";
type = TTStem;
},
{
horizontal = 1;
origin = "{0, 37}";
target = "{0, 50}";
type = TTStem;
},
{
horizontal = 1;
origin = "{0, 25}";
target = "{0, 18}";
type = Align;
},
{
horizontal = 1;
origin = "{0, 62}";
target = "{0, 5}";
type = Align;
},
{
horizontal = 1;
origin = "{0, 31}";
target = "{0, 56}";
type = TTStem;
}
);
layerId = "034236B8-3FA8-43DA-9EDA-EFF269A687EC";
name = Light;
paths = (
{
closed = 1;
nodes = (
"382 -21 OFFCURVE",
"465 15 OFFCURVE",
"516 112 CURVE",
"564 17 OFFCURVE",
"648 -21 OFFCURVE",
"759 -21 CURVE SMOOTH",
"891 -21 OFFCURVE",
"979 41 OFFCURVE",
"979 161 CURVE SMOOTH",
"979 204 OFFCURVE",
"970 238 OFFCURVE",
"952 271 CURVE",
"931 264 LINE",
"947 235 OFFCURVE",
"957 203 OFFCURVE",
"957 162 CURVE SMOOTH",
"957 56 OFFCURVE",
"877 4 OFFCURVE",
"756 4 CURVE SMOOTH",
"638 4 OFFCURVE",
"571 48 OFFCURVE",
"528 140 CURVE",
"504 140 LINE",
"456 43 OFFCURVE",
"387 4 OFFCURVE",
"269 4 CURVE SMOOTH",
"162 4 OFFCURVE",
"87 31 OFFCURVE",
"87 100 CURVE SMOOTH",
"87 169 OFFCURVE",
"150 181 OFFCURVE",
"244 204 CURVE SMOOTH",
"333 226 OFFCURVE",
"372 260 OFFCURVE",
"372 315 CURVE SMOOTH",
"372 374 OFFCURVE",
"335 417 OFFCURVE",
"246 417 CURVE SMOOTH",
"166 417 OFFCURVE",
"112 379 OFFCURVE",
"112 309 CURVE SMOOTH",
"112 295 OFFCURVE",
"114 282 OFFCURVE",
"117 271 CURVE",
"140 269 LINE",
"136 282 OFFCURVE",
"134 295 OFFCURVE",
"134 309 CURVE SMOOTH",
"134 365 OFFCURVE",
"175 393 OFFCURVE",
"246 393 CURVE SMOOTH",
"323 393 OFFCURVE",
"350 363 OFFCURVE",
"350 318 CURVE SMOOTH",
"350 261 OFFCURVE",
"301 241 OFFCURVE",
"224 222 CURVE SMOOTH",
"134 200 OFFCURVE",
"65 181 OFFCURVE",
"65 101 CURVE SMOOTH",
"65 10 OFFCURVE",
"154 -21 OFFCURVE",
"266 -21 CURVE SMOOTH"
);
}
);
width = 1059;
},
{
anchors = (
{
name = dot;
position = "{523, 246}";
},
{
name = headline;
position = "{986, 381}";
},
{
name = knmU;
position = "{973, -21}";
},
{
name = teardrop;
position = "{523, 0}";
}
);
associatedMasterId = "034236B8-3FA8-43DA-9EDA-EFF269A687EC";
background = {
paths = (
{
closed = 1;
nodes = (
"389 -21 OFFCURVE",
"472 15 OFFCURVE",
"523 112 CURVE",
"561 18 OFFCURVE",
"646 -21 OFFCURVE",
"761 -21 CURVE SMOOTH",
"898 -21 OFFCURVE",
"986 35 OFFCURVE",
"986 163 CURVE SMOOTH",
"986 204 OFFCURVE",
"977 238 OFFCURVE",
"959 271 CURVE",
"938 264 LINE",
"954 235 OFFCURVE",
"964 203 OFFCURVE",
"964 165 CURVE SMOOTH",
"964 52 OFFCURVE",
"884 4 OFFCURVE",
"758 4 CURVE SMOOTH",
"636 4 OFFCURVE",
"570 48 OFFCURVE",
"535 140 CURVE",
"511 140 LINE",
"462 43 OFFCURVE",
"394 4 OFFCURVE",
"276 4 CURVE SMOOTH",
"169 4 OFFCURVE",
"94 31 OFFCURVE",
"94 100 CURVE SMOOTH",
"94 169 OFFCURVE",
"157 181 OFFCURVE",
"251 204 CURVE SMOOTH",
"340 226 OFFCURVE",
"379 260 OFFCURVE",
"379 315 CURVE SMOOTH",
"379 374 OFFCURVE",
"342 417 OFFCURVE",
"253 417 CURVE SMOOTH",
"173 417 OFFCURVE",
"119 379 OFFCURVE",
"119 309 CURVE SMOOTH",
"119 295 OFFCURVE",
"121 282 OFFCURVE",
"124 271 CURVE",
"147 269 LINE",
"143 282 OFFCURVE",
"141 295 OFFCURVE",
"141 309 CURVE SMOOTH",
"141 365 OFFCURVE",
"182 393 OFFCURVE",
"253 393 CURVE SMOOTH",
"330 393 OFFCURVE",
"357 363 OFFCURVE",
"357 318 CURVE SMOOTH",
"357 261 OFFCURVE",
"308 241 OFFCURVE",
"231 222 CURVE SMOOTH",
"141 200 OFFCURVE",
"72 181 OFFCURVE",
"72 101 CURVE SMOOTH",
"72 10 OFFCURVE",
"161 -21 OFFCURVE",
"273 -21 CURVE SMOOTH"
);
}
);
};
layerId = "04E2EB99-DE4E-4C67-B100-DB9C6DFA439B";
name = Short;
paths = (
{
closed = 1;
nodes = (
"389 -21 OFFCURVE",
"472 15 OFFCURVE",
"523 112 CURVE",
"571 17 OFFCURVE",
"655 -21 OFFCURVE",
"766 -21 CURVE SMOOTH",
"898 -21 OFFCURVE",
"986 41 OFFCURVE",
"986 162 CURVE SMOOTH",
"986 164 OFFCURVE",
"986 166 OFFCURVE",
"986 167 CURVE",
"964 167 LINE",
"964 166 OFFCURVE",
"964 164 OFFCURVE",
"964 162 CURVE SMOOTH",
"964 56 OFFCURVE",
"884 4 OFFCURVE",
"763 4 CURVE SMOOTH",
"645 4 OFFCURVE",
"578 48 OFFCURVE",
"535 140 CURVE",
"511 140 LINE",
"463 43 OFFCURVE",
"394 4 OFFCURVE",
"276 4 CURVE SMOOTH",
"169 4 OFFCURVE",
"94 31 OFFCURVE",
"94 100 CURVE SMOOTH",
"94 169 OFFCURVE",
"157 181 OFFCURVE",
"251 204 CURVE SMOOTH",
"340 226 OFFCURVE",
"379 260 OFFCURVE",
"379 315 CURVE SMOOTH",
"379 374 OFFCURVE",
"342 417 OFFCURVE",
"253 417 CURVE SMOOTH",
"173 417 OFFCURVE",
"119 379 OFFCURVE",
"119 309 CURVE SMOOTH",
"119 295 OFFCURVE",
"121 282 OFFCURVE",
"124 271 CURVE",
"147 269 LINE",
"143 282 OFFCURVE",
"141 295 OFFCURVE",
"141 309 CURVE SMOOTH",
"141 365 OFFCURVE",
"182 393 OFFCURVE",
"253 393 CURVE SMOOTH",
"330 393 OFFCURVE",
"357 363 OFFCURVE",
"357 318 CURVE SMOOTH",
"357 261 OFFCURVE",
"308 241 OFFCURVE",
"231 222 CURVE SMOOTH",
"141 200 OFFCURVE",
"72 181 OFFCURVE",
"72 101 CURVE SMOOTH",
"72 10 OFFCURVE",
"161 -21 OFFCURVE",
"273 -21 CURVE SMOOTH"
);
}
);
width = 1066;
}
);
leftKerningGroup = knBA;
leftMetricsKey = knBA.base;
rightKerningGroup = knvO;
unicode = 0C92;
},
{
glyphname = knOO;
lastChange = "2015-11-25 06:27:54 +0000";
layers = (
{
background = {
guideLines = (
{
angle = 90;
position = "{246, 417}";
}
);
paths = (
{
closed = 1;
nodes = (
"246 402 LINE",
"246 417 LINE",
"233 417 LINE SMOOTH",
"204 417 OFFCURVE",
"148 429 OFFCURVE",
"148 479 CURVE SMOOTH",
"148 524 OFFCURVE",
"192 540 OFFCURVE",
"252 540 CURVE SMOOTH",
"267 540 OFFCURVE",
"298 539 OFFCURVE",
"326 531 CURVE",
"330 554 LINE",
"304 561 OFFCURVE",
"273 564 OFFCURVE",
"248 564 CURVE SMOOTH",
"171 564 OFFCURVE",
"126 534 OFFCURVE",
"126 480 CURVE SMOOTH",
"126 431 OFFCURVE",
"164 402 OFFCURVE",
"233 402 CURVE SMOOTH"
);
}
);
};
components = (
{
name = knO;
}
);
guideLines = (
{
angle = 90;
position = "{246, 437}";
}
);
hints = (
{
horizontal = 1;
origin = "{0, 7}";
target = "{0, 14}";
type = TTStem;
}
);
layerId = "034236B8-3FA8-43DA-9EDA-EFF269A687EC";
name = Light;
paths = (
{
closed = 1;
nodes = (
"246 402 CURVE",
"246 417 LINE",
"183 417 OFFCURVE",
"148 439 OFFCURVE",
"148 479 CURVE SMOOTH",
"148 524 OFFCURVE",
"192 540 OFFCURVE",
"252 540 CURVE SMOOTH",
"267 540 OFFCURVE",
"298 539 OFFCURVE",
"326 531 CURVE",
"330 554 LINE",
"304 561 OFFCURVE",
"273 564 OFFCURVE",
"248 564 CURVE SMOOTH",
"171 564 OFFCURVE",
"126 534 OFFCURVE",
"126 480 CURVE SMOOTH",
"126 426 OFFCURVE",
"166 402 OFFCURVE"
);
}
);
width = 1059;
}
);
leftKerningGroup = knBA;
leftMetricsKey = knBA.base;
rightKerningGroup = knvO;
rightMetricsKey = knO;
unicode = 0C93;
},
{
glyphname = knAU;
lastChange = "2015-12-03 21:55:30 +0000";
layers = (
{
anchors = (
{
name = dot;
position = "{516, 246}";
},
{
name = headline;
position = "{979, 383}";
},
{
name = knmU;
position = "{966, -21}";
},
{
name = teardrop;
position = "{516, 0}";
}
);
associatedMasterId = "034236B8-3FA8-43DA-9EDA-EFF269A687EC";
background = {
paths = (
{
closed = 1;
nodes = (
"123 555 LINE",
"123 533 LINE",
"354 533 LINE",
"360 520 OFFCURVE",
"365 504 OFFCURVE",
"365 486 CURVE SMOOTH",
"365 437 OFFCURVE",
"335 417 OFFCURVE",
"254 417 CURVE",
"261 395 LINE",
"348 395 OFFCURVE",
"387 426 OFFCURVE",
"387 483 CURVE SMOOTH",
"387 502 OFFCURVE",
"382 520 OFFCURVE",
"374 533 CURVE",
"613 533 LINE SMOOTH",
"794 533 OFFCURVE",
"866 464 OFFCURVE",
"866 352 CURVE SMOOTH",
"866 257 OFFCURVE",
"811 211 OFFCURVE",
"712 211 CURVE SMOOTH",
"625 211 OFFCURVE",
"586 245 OFFCURVE",
"586 294 CURVE SMOOTH",
"586 334 OFFCURVE",
"608 363 OFFCURVE",
"665 372 CURVE",
"662 367 OFFCURVE",
"661 362 OFFCURVE",
"661 358 CURVE SMOOTH",
"661 340 OFFCURVE",
"676 327 OFFCURVE",
"708 327 CURVE SMOOTH",
"739 327 OFFCURVE",
"755 339 OFFCURVE",
"755 361 CURVE SMOOTH",
"755 380 OFFCURVE",
"742 394 OFFCURVE",
"692 394 CURVE SMOOTH",
"615 394 OFFCURVE",
"564 357 OFFCURVE",
"564 291 CURVE SMOOTH",
"564 227 OFFCURVE",
"619 186 OFFCURVE",
"713 186 CURVE SMOOTH",
"821 186 OFFCURVE",
"888 242 OFFCURVE",
"888 353 CURVE SMOOTH",
"888 486 OFFCURVE",
"795 555 OFFCURVE",
"603 555 CURVE SMOOTH"
);
}
);
};
guideLines = (
{
angle = 90;
position = "{246, 417}";
}
);
hints = (
{
horizontal = 1;
origin = "{0, 70}";
target = "{0, 69}";
type = TTStem;
},
{
horizontal = 1;
origin = "{0, 44}";
target = "{0, 56}";
type = TTStem;
},
{
horizontal = 1;
origin = "{0, 62}";
target = "{0, 38}";
type = TTStem;
},
{
horizontal = 1;
origin = "{0, 70}";
target = "{0, 32}";
type = Align;
},
{
horizontal = 1;
origin = "{0, 102}";
target = "{0, 13}";
type = TTStem;
},
{
horizontal = 1;
origin = "{0, 105}";
target = "{0, 10}";
type = TTStem;
},
{
horizontal = 1;
origin = "{0, 77}";
target = "{0, 90}";
type = TTStem;
},
{
horizontal = 1;
origin = "{0, 13}";
target = "{0, 6}";
type = Align;
},
{
horizontal = 1;
origin = "{0, 102}";
target = "{0, 108}";
type = Align;
},
{
horizontal = 1;
origin = "{0, 19}";
target = "{0, 96}";
type = TTStem;
}
);
layerId = "9D9AA66E-FF71-4972-A247-A7CEECA7953B";
name = "Light Dec 3 15, 14:51";
paths = (
{
closed = 1;
nodes = (
"931 264 LINE",
"947 235 OFFCURVE",
"957 203 OFFCURVE",
"957 162 CURVE SMOOTH",
"957 56 OFFCURVE",
"877 4 OFFCURVE",
"756 4 CURVE SMOOTH",
"638 4 OFFCURVE",
"571 48 OFFCURVE",
"528 140 CURVE",
"504 140 LINE",
"456 43 OFFCURVE",
"387 4 OFFCURVE",
"269 4 CURVE SMOOTH",
"162 4 OFFCURVE",
"87 31 OFFCURVE",
"87 100 CURVE SMOOTH",
"87 169 OFFCURVE",
"150 181 OFFCURVE",
"244 204 CURVE SMOOTH",
"333 226 OFFCURVE",
"372 260 OFFCURVE",
"372 315 CURVE SMOOTH",
"372 353 OFFCURVE",
"357 384 OFFCURVE",
"322 402 CURVE",
"366 414 OFFCURVE",
"387 442 OFFCURVE",
"387 483 CURVE SMOOTH",
"387 502 OFFCURVE",
"382 520 OFFCURVE",
"374 533 CURVE",
"613 533 LINE SMOOTH",
"794 533 OFFCURVE",
"866 464 OFFCURVE",
"866 352 CURVE SMOOTH",
"866 257 OFFCURVE",
"811 211 OFFCURVE",
"712 211 CURVE SMOOTH",
"625 211 OFFCURVE",
"586 245 OFFCURVE",
"586 294 CURVE SMOOTH",
"586 334 OFFCURVE",
"608 363 OFFCURVE",
"665 372 CURVE",
"662 367 OFFCURVE",
"661 362 OFFCURVE",
"661 358 CURVE SMOOTH",
"661 340 OFFCURVE",
"676 327 OFFCURVE",
"708 327 CURVE SMOOTH",
"739 327 OFFCURVE",
"755 339 OFFCURVE",
"755 361 CURVE SMOOTH",
"755 380 OFFCURVE",
"742 394 OFFCURVE",
"692 394 CURVE SMOOTH",
"615 394 OFFCURVE",
"564 357 OFFCURVE",
"564 291 CURVE SMOOTH",
"564 227 OFFCURVE",
"619 186 OFFCURVE",
"713 186 CURVE SMOOTH",
"821 186 OFFCURVE",
"888 242 OFFCURVE",
"888 353 CURVE SMOOTH",
"888 486 OFFCURVE",
"795 555 OFFCURVE",
"603 555 CURVE SMOOTH",
"123 555 LINE",
"123 533 LINE",
"354 533 LINE",
"360 520 OFFCURVE",
"365 504 OFFCURVE",
"365 486 CURVE SMOOTH",
"365 437 OFFCURVE",
"335 417 OFFCURVE",
"246 417 CURVE SMOOTH",
"166 417 OFFCURVE",
"112 379 OFFCURVE",
"112 309 CURVE SMOOTH",
"112 295 OFFCURVE",
"114 282 OFFCURVE",
"117 271 CURVE",
"140 269 LINE",
"136 282 OFFCURVE",
"134 295 OFFCURVE",
"134 309 CURVE SMOOTH",
"134 365 OFFCURVE",
"175 393 OFFCURVE",
"246 393 CURVE SMOOTH",
"323 393 OFFCURVE",
"350 363 OFFCURVE",
"350 318 CURVE SMOOTH",
"350 261 OFFCURVE",
"301 241 OFFCURVE",
"224 222 CURVE SMOOTH",
"134 200 OFFCURVE",
"65 181 OFFCURVE",
"65 101 CURVE SMOOTH",
"65 10 OFFCURVE",
"154 -21 OFFCURVE",
"266 -21 CURVE SMOOTH",
"382 -21 OFFCURVE",
"465 15 OFFCURVE",
"516 112 CURVE",
"564 17 OFFCURVE",
"648 -21 OFFCURVE",
"759 -21 CURVE SMOOTH",
"891 -21 OFFCURVE",
"979 41 OFFCURVE",
"979 161 CURVE SMOOTH",
"979 204 OFFCURVE",
"970 238 OFFCURVE",
"952 271 CURVE"
);
}
);
width = 1064;
},
{
background = {
paths = (
{
closed = 1;
nodes = (
"123 555 LINE",
"123 533 LINE",
"354 533 LINE",
"360 520 OFFCURVE",
"365 504 OFFCURVE",
"365 486 CURVE SMOOTH",
"365 437 OFFCURVE",
"335 417 OFFCURVE",
"254 417 CURVE",
"261 395 LINE",
"348 395 OFFCURVE",
"387 426 OFFCURVE",
"387 483 CURVE SMOOTH",
"387 502 OFFCURVE",
"382 520 OFFCURVE",
"374 533 CURVE",
"613 533 LINE SMOOTH",
"794 533 OFFCURVE",
"866 464 OFFCURVE",
"866 352 CURVE SMOOTH",
"866 257 OFFCURVE",
"811 211 OFFCURVE",
"712 211 CURVE SMOOTH",
"625 211 OFFCURVE",
"586 245 OFFCURVE",
"586 294 CURVE SMOOTH",
"586 334 OFFCURVE",
"608 363 OFFCURVE",
"665 372 CURVE",
"662 367 OFFCURVE",
"661 362 OFFCURVE",
"661 358 CURVE SMOOTH",
"661 340 OFFCURVE",
"676 327 OFFCURVE",
"708 327 CURVE SMOOTH",
"739 327 OFFCURVE",
"755 339 OFFCURVE",
"755 361 CURVE SMOOTH",
"755 380 OFFCURVE",
"742 394 OFFCURVE",
"692 394 CURVE SMOOTH",
"615 394 OFFCURVE",
"564 357 OFFCURVE",
"564 291 CURVE SMOOTH",
"564 227 OFFCURVE",
"619 186 OFFCURVE",
"713 186 CURVE SMOOTH",
"821 186 OFFCURVE",
"888 242 OFFCURVE",
"888 353 CURVE SMOOTH",
"888 486 OFFCURVE",
"795 555 OFFCURVE",
"603 555 CURVE SMOOTH"
);
}
);
};
components = (
{
name = knO;
}
);
guideLines = (
{
angle = 90;
position = "{246, 417}";
}
);
hints = (
{
horizontal = 1;
origin = "{0, 1}";
target = "{0, 0}";
type = TTStem;
},
{
horizontal = 1;
origin = "{0, 28}";
target = "{0, 40}";
type = TTStem;
},
{
horizontal = 1;
origin = "{0, 46}";
target = "{0, 22}";
type = TTStem;
},
{
horizontal = 1;
origin = "{0, 1}";
target = "{0, 16}";
type = Align;
}
);
layerId = "034236B8-3FA8-43DA-9EDA-EFF269A687EC";
name = Light;
paths = (
{
closed = 1;
nodes = (
"123 555 LINE",
"123 533 LINE",
"349 533 LINE",
"355 520 OFFCURVE",
"360 504 OFFCURVE",
"360 486 CURVE SMOOTH",
"360 437 OFFCURVE",
"335 417 OFFCURVE",
"246 417 CURVE",
"311 399 LINE",
"358 409 OFFCURVE",
"382 434 OFFCURVE",
"382 483 CURVE SMOOTH",
"382 502 OFFCURVE",
"377 520 OFFCURVE",
"369 533 CURVE",
"613 533 LINE SMOOTH",
"794 533 OFFCURVE",
"866 464 OFFCURVE",
"866 352 CURVE SMOOTH",
"866 257 OFFCURVE",
"811 211 OFFCURVE",
"712 211 CURVE SMOOTH",
"625 211 OFFCURVE",
"586 245 OFFCURVE",
"586 294 CURVE SMOOTH",
"586 334 OFFCURVE",
"608 363 OFFCURVE",
"665 372 CURVE",
"662 367 OFFCURVE",
"661 362 OFFCURVE",
"661 358 CURVE SMOOTH",
"661 340 OFFCURVE",
"676 327 OFFCURVE",
"708 327 CURVE SMOOTH",
"739 327 OFFCURVE",
"755 339 OFFCURVE",
"755 361 CURVE SMOOTH",
"755 380 OFFCURVE",
"742 394 OFFCURVE",
"692 394 CURVE SMOOTH",
"615 394 OFFCURVE",
"564 357 OFFCURVE",
"564 291 CURVE SMOOTH",
"564 227 OFFCURVE",
"619 186 OFFCURVE",
"713 186 CURVE SMOOTH",
"821 186 OFFCURVE",
"888 242 OFFCURVE",
"888 353 CURVE SMOOTH",
"888 486 OFFCURVE",
"795 555 OFFCURVE",
"603 555 CURVE SMOOTH"
);
}
);
width = 1064;
}
);
leftKerningGroup = knBA;
leftMetricsKey = knBA.base;
rightKerningGroup = knBA;
rightMetricsKey = knBA;
unicode = 0C94;
},
{
glyphname = knmAA;
lastChange = "2015-11-25 06:27:54 +0000";
layers = (
{
background = {
guideLines = (
{
position = "{315, 250}";
},
{
position = "{333, 52}";
},
{
angle = 90;
position = "{194, 155}";
},
{
angle = 257.074;
position = "{411, 268}";
}
);
paths = (
{
closed = 0;
nodes = (
"339 76 LINE",
"266 76 OFFCURVE",
"216 100 OFFCURVE",
"216 154 CURVE SMOOTH",
"216 203 OFFCURVE",
"260 226 OFFCURVE",
"324 226 CURVE SMOOTH",
"352 226 OFFCURVE",
"377 222 OFFCURVE",
"399 215 CURVE",
"404 239 LINE",
"388 245 OFFCURVE",
"359 250 OFFCURVE",
"322 250 CURVE SMOOTH",
"250 250 OFFCURVE",
"194 219 OFFCURVE",
"194 152 CURVE SMOOTH",
"194 84 OFFCURVE",
"253 52 OFFCURVE",
"336 52 CURVE"
);
}
);
};
components = (
{
name = _part.knmAA;
}
);
layerId = "034236B8-3FA8-43DA-9EDA-EFF269A687EC";
name = Light;
width = 693;
}
);
rightKerningGroup = knmAA;
rightMetricsKey = _part.knmAA;
unicode = 0CBE;
category = Mark;
subCategory = Spacing;
},
{
glyphname = knmI;
lastChange = "2015-11-25 06:27:54 +0000";
layers = (
{
background = {
paths = (
{
closed = 1;
nodes = (
"230 360 OFFCURVE",
"198 290 OFFCURVE",
"74 290 CURVE",
"74 266 LINE",
"209 266 OFFCURVE",
"250 350 OFFCURVE",
"250 420 CURVE SMOOTH",
"250 498 OFFCURVE",
"197 555 OFFCURVE",
"110 555 CURVE SMOOTH",
"47 555 OFFCURVE",
"0 525 OFFCURVE",
"0 473 CURVE SMOOTH",
"0 419 OFFCURVE",
"51 391 OFFCURVE",
"119 391 CURVE SMOOTH",
"158 391 OFFCURVE",
"210 400 OFFCURVE",
"242 420 CURVE",
"236 438 LINE",
"208 424 OFFCURVE",
"159 415 OFFCURVE",
"120 415 CURVE SMOOTH",
"61 415 OFFCURVE",
"22 436 OFFCURVE",
"22 474 CURVE SMOOTH",
"22 513 OFFCURVE",
"61 531 OFFCURVE",
"109 531 CURVE SMOOTH",
"173 531 OFFCURVE",
"230 498 OFFCURVE",
"230 419 CURVE SMOOTH"
);
}
);
};
hints = (
{
horizontal = 1;
origin = "{0, 3}";
target = "{0, 2}";
type = TTStem;
},
{
horizontal = 1;
origin = "{0, 22}";
target = "{0, 15}";
type = TTStem;
},
{
horizontal = 1;
origin = "{0, 28}";
target = "{0, 9}";
type = TTStem;
}
);
layerId = "034236B8-3FA8-43DA-9EDA-EFF269A687EC";
name = Light;
paths = (
{
closed = 1;
nodes = (
"224 353 OFFCURVE",
"189 288 OFFCURVE",
"74 288 CURVE",
"74 266 LINE",
"199 266 OFFCURVE",
"244 341 OFFCURVE",
"244 420 CURVE SMOOTH",
"244 498 OFFCURVE",
"192 555 OFFCURVE",
"107 555 CURVE SMOOTH",
"46 555 OFFCURVE",
"0 525 OFFCURVE",
"0 473 CURVE SMOOTH",
"0 419 OFFCURVE",
"50 391 OFFCURVE",
"116 391 CURVE SMOOTH",
"154 391 OFFCURVE",
"205 400 OFFCURVE",
"236 420 CURVE",
"230 438 LINE",
"203 424 OFFCURVE",
"155 415 OFFCURVE",
"117 415 CURVE SMOOTH",
"60 415 OFFCURVE",
"22 436 OFFCURVE",
"22 474 CURVE SMOOTH",
"22 513 OFFCURVE",
"60 531 OFFCURVE",
"106 531 CURVE SMOOTH",
"168 531 OFFCURVE",
"224 498 OFFCURVE",
"224 419 CURVE SMOOTH"
);
}
);
width = 0;
},
{
associatedMasterId = "034236B8-3FA8-43DA-9EDA-EFF269A687EC";
layerId = "60343B02-7708-4724-9EDB-6EC27977734D";
name = "Light Oct 15 15, 12:59";
paths = (
{
closed = 1;
nodes = (
"230 360 OFFCURVE",
"198 290 OFFCURVE",
"74 290 CURVE",
"74 266 LINE",
"209 266 OFFCURVE",
"250 350 OFFCURVE",
"250 420 CURVE SMOOTH",
"250 498 OFFCURVE",
"197 555 OFFCURVE",
"110 555 CURVE SMOOTH",
"47 555 OFFCURVE",
"0 525 OFFCURVE",
"0 473 CURVE SMOOTH",
"0 419 OFFCURVE",
"51 391 OFFCURVE",
"119 391 CURVE SMOOTH",
"158 391 OFFCURVE",
"210 400 OFFCURVE",
"242 420 CURVE",
"236 438 LINE",
"208 424 OFFCURVE",
"159 415 OFFCURVE",
"120 415 CURVE SMOOTH",
"61 415 OFFCURVE",
"22 436 OFFCURVE",
"22 474 CURVE SMOOTH",
"22 513 OFFCURVE",
"61 531 OFFCURVE",
"109 531 CURVE SMOOTH",
"173 531 OFFCURVE",
"230 498 OFFCURVE",
"230 419 CURVE SMOOTH"
);
}
);
width = 0;
}
);
unicode = 0CBF;
},
{
glyphname = knmII;
lastChange = "2015-11-25 06:27:54 +0000";
layers = (
{
background = {
guideLines = (
{
angle = 90;
position = "{294, 374}";
}
);
paths = (
{
closed = 0;
nodes = (
"67 -64 LINE"
);
}
);
};
components = (
{
name = knmI;
}
);
hints = (
{
horizontal = 1;
origin = "{0, 15}";
target = "{0, 8}";
type = TTStem;
},
{
horizontal = 1;
origin = "{0, 21}";
target = "{0, 2}";
type = TTStem;
},
{
horizontal = 1;
origin = "{0, 27}";
target = "{0, 28}";
type = TTStem;
}
);
layerId = "034236B8-3FA8-43DA-9EDA-EFF269A687EC";
name = Light;
paths = (
{
closed = 1;
nodes = (
"298 357 OFFCURVE",
"375 393 OFFCURVE",
"444 393 CURVE SMOOTH",
"502 393 OFFCURVE",
"548 371 OFFCURVE",
"548 325 CURVE SMOOTH",
"548 275 OFFCURVE",
"500 250 OFFCURVE",
"432 250 CURVE SMOOTH",
"383 250 OFFCURVE",
"327 262 OFFCURVE",
"293 283 CURVE",
"293 260 LINE",
"333 236 OFFCURVE",
"388 226 OFFCURVE",
"432 226 CURVE SMOOTH",
"511 226 OFFCURVE",
"570 262 OFFCURVE",
"570 325 CURVE SMOOTH",
"570 384 OFFCURVE",
"515 417 OFFCURVE",
"445 417 CURVE SMOOTH",
"370 417 OFFCURVE",
"279 373 OFFCURVE",
"279 238 CURVE SMOOTH",
"279 99 OFFCURVE",
"370 23 OFFCURVE",
"498 -5 CURVE",
"506 19 LINE",
"379 46 OFFCURVE",
"301 116 OFFCURVE",
"299 237 CURVE SMOOTH"
);
}
);
width = 615;
},
{
associatedMasterId = "034236B8-3FA8-43DA-9EDA-EFF269A687EC";
background = {
components = (
{
name = knLengthmark;
transform = "{1, 0, 0, 1, 259, 0}";
},
{
name = knmI;
}
);
guideLines = (
{
angle = 90;
position = "{294, 374}";
}
);
};
layerId = "1FDC4D4F-5C98-49ED-BBC6-7A01CCA9CE86";
name = "Light Nov 3 15, 22:52";
paths = (
{
closed = 1;
nodes = (
"298 357 OFFCURVE",
"375 393 OFFCURVE",
"444 393 CURVE SMOOTH",
"502 393 OFFCURVE",
"548 371 OFFCURVE",
"548 325 CURVE SMOOTH",
"548 275 OFFCURVE",
"500 250 OFFCURVE",
"432 250 CURVE SMOOTH",
"383 250 OFFCURVE",
"327 262 OFFCURVE",
"293 283 CURVE",
"293 260 LINE",
"333 236 OFFCURVE",
"388 226 OFFCURVE",
"432 226 CURVE SMOOTH",
"511 226 OFFCURVE",
"570 262 OFFCURVE",
"570 325 CURVE SMOOTH",
"570 384 OFFCURVE",
"515 417 OFFCURVE",
"445 417 CURVE SMOOTH",
"370 417 OFFCURVE",
"279 373 OFFCURVE",
"279 238 CURVE SMOOTH",
"279 99 OFFCURVE",
"370 23 OFFCURVE",
"498 -5 CURVE",
"506 19 LINE",
"379 46 OFFCURVE",
"301 116 OFFCURVE",
"299 237 CURVE SMOOTH"
);
},
{
closed = 1;
nodes = (
"224 353 OFFCURVE",
"189 290 OFFCURVE",
"74 290 CURVE",
"74 266 LINE",
"199 266 OFFCURVE",
"244 341 OFFCURVE",
"244 420 CURVE SMOOTH",
"244 498 OFFCURVE",
"192 555 OFFCURVE",
"107 555 CURVE SMOOTH",
"46 555 OFFCURVE",
"0 525 OFFCURVE",
"0 473 CURVE SMOOTH",
"0 419 OFFCURVE",
"50 391 OFFCURVE",
"116 391 CURVE SMOOTH",
"154 391 OFFCURVE",
"205 400 OFFCURVE",
"236 420 CURVE",
"230 438 LINE",
"203 424 OFFCURVE",
"155 415 OFFCURVE",
"117 415 CURVE SMOOTH",
"60 415 OFFCURVE",
"22 436 OFFCURVE",
"22 474 CURVE SMOOTH",
"22 513 OFFCURVE",
"60 531 OFFCURVE",
"106 531 CURVE SMOOTH",
"168 531 OFFCURVE",
"224 498 OFFCURVE",
"224 419 CURVE SMOOTH"
);
}
);
width = 615;
}
);
rightKerningGroup = knLengthmark;
rightMetricsKey = knLengthmark;
unicode = 0CC0;
category = Mark;
subCategory = Spacing;
},
{
glyphname = knmU;
lastChange = "2015-11-25 06:27:54 +0000";
layers = (
{
background = {
paths = (
{
closed = 1;
nodes = (
"-99 131 LINE",
"-52 32 OFFCURVE",
"43 -21 OFFCURVE",
"171 -21 CURVE SMOOTH",
"314 -21 OFFCURVE",
"404 61 OFFCURVE",
"404 190 CURVE SMOOTH",
"404 296 OFFCURVE",
"348 373 OFFCURVE",
"226 403 CURVE",
"220 384 LINE",
"314 360 OFFCURVE",
"382 303 OFFCURVE",
"382 193 CURVE SMOOTH",
"382 77 OFFCURVE",
"305 4 OFFCURVE",
"172 4 CURVE SMOOTH",
"46 4 OFFCURVE",
"-40 56 OFFCURVE",
"-87 151 CURVE"
);
}
);
};
components = (
{
name = _part.knmU;
}
);
layerId = "034236B8-3FA8-43DA-9EDA-EFF269A687EC";
name = Light;
width = 399;
}
);
rightKerningGroup = knmU;
rightMetricsKey = _part.knmU;
unicode = 0CC1;
category = Mark;
subCategory = Spacing;
},
{
glyphname = knmUU;
lastChange = "2015-11-25 06:27:54 +0000";
layers = (
{
background = {
paths = (
{
closed = 1;
nodes = (
"-14 155 LINE",
"-14 58 OFFCURVE",
"25 -9 OFFCURVE",
"124 -9 CURVE SMOOTH",
"220 -9 OFFCURVE",
"272 57 OFFCURVE",
"272 143 CURVE SMOOTH",
"272 232 OFFCURVE",
"254 273 OFFCURVE",
"254 358 CURVE SMOOTH",
"254 447 OFFCURVE",
"310 503 OFFCURVE",
"391 503 CURVE SMOOTH",
"513 503 OFFCURVE",
"584 397 OFFCURVE",
"584 259 CURVE SMOOTH",
"584 177 OFFCURVE",
"558 43 OFFCURVE",
"460 43 CURVE SMOOTH",
"410 43 OFFCURVE",
"379 79 OFFCURVE",
"379 128 CURVE SMOOTH",
"380 183 OFFCURVE",
"417 211 OFFCURVE",
"466 211 CURVE SMOOTH",
"481 211 OFFCURVE",
"497 208 OFFCURVE",
"514 203 CURVE",
"514 256 LINE",
"495 261 OFFCURVE",
"476 264 OFFCURVE",
"458 264 CURVE SMOOTH",
"382 264 OFFCURVE",
"317 217 OFFCURVE",
"316 127 CURVE SMOOTH",
"316 52 OFFCURVE",
"374 -9 OFFCURVE",
"456 -9 CURVE SMOOTH",
"582 -9 OFFCURVE",
"638 119 OFFCURVE",
"638 260 CURVE SMOOTH",
"638 419 OFFCURVE",
"555 556 OFFCURVE",
"391 556 CURVE SMOOTH",
"274 556 OFFCURVE",
"192 476 OFFCURVE",
"192 364 CURVE SMOOTH",
"192 282 OFFCURVE",
"211 220 OFFCURVE",
"211 145 CURVE SMOOTH",
"211 81 OFFCURVE",
"175 43 OFFCURVE",
"120 43 CURVE SMOOTH",
"64 43 OFFCURVE",
"31 79 OFFCURVE",
"31 155 CURVE"
);
}
);
};
components = (
{
name = _part.knmUU;
transform = "{1, 0, 0, 1, -11, 0}";
}
);
layerId = "034236B8-3FA8-43DA-9EDA-EFF269A687EC";
name = Light;
width = 710;
}
);
leftMetricsKey = knmUU;
rightKerningGroup = knmUU;
rightMetricsKey = _part.knmUU;
unicode = 0CC2;
category = Mark;
subCategory = Spacing;
},
{
glyphname = knmvR;
lastChange = "2015-11-25 06:27:54 +0000";
layers = (
{
background = {
paths = (
{
closed = 1;
nodes = (
"-2 -354 OFFCURVE",
"65 -288 OFFCURVE",
"65 -160 CURVE SMOOTH",
"65 -107 OFFCURVE",
"52 -37 OFFCURVE",
"26 24 CURVE",
"1 26 LINE",
"1 25 LINE",
"27 -29 OFFCURVE",
"43 -103 OFFCURVE",
"43 -161 CURVE SMOOTH",
"43 -275 OFFCURVE",
"-13 -329 OFFCURVE",
"-117 -329 CURVE SMOOTH",
"-206 -329 OFFCURVE",
"-254 -293 OFFCURVE",
"-254 -234 CURVE SMOOTH",
"-254 -177 OFFCURVE",
"-213 -144 OFFCURVE",
"-145 -144 CURVE SMOOTH",
"-105 -144 OFFCURVE",
"-83 -155 OFFCURVE",
"-83 -184 CURVE SMOOTH",
"-83 -212 OFFCURVE",
"-105 -225 OFFCURVE",
"-148 -225 CURVE SMOOTH",
"-189 -225 OFFCURVE",
"-225 -213 OFFCURVE",
"-251 -192 CURVE",
"-262 -211 LINE",
"-226 -239 OFFCURVE",
"-184 -249 OFFCURVE",
"-149 -249 CURVE SMOOTH",
"-98 -249 OFFCURVE",
"-62 -228 OFFCURVE",
"-62 -183 CURVE SMOOTH",
"-62 -139 OFFCURVE",
"-98 -120 OFFCURVE",
"-147 -120 CURVE SMOOTH",
"-221 -120 OFFCURVE",
"-274 -164 OFFCURVE",
"-274 -235 CURVE SMOOTH",
"-274 -309 OFFCURVE",
"-212 -354 OFFCURVE",
"-117 -354 CURVE SMOOTH"
);
}
);
};
hints = (
{
horizontal = 1;
origin = "{0, 44}";
target = "{0, 13}";
type = TTStem;
},
{
horizontal = 1;
origin = "{0, 32}";
target = "{0, 25}";
type = TTStem;
},
{
horizontal = 1;
origin = "{0, 19}";
target = "{0, 38}";
type = TTStem;
},
{
horizontal = 1;
origin = "{0, 7}";
type = Anchor;
}
);
layerId = "034236B8-3FA8-43DA-9EDA-EFF269A687EC";
name = Light;
paths = (
{
closed = 1;
nodes = (
"-12 -352 OFFCURVE",
"55 -286 OFFCURVE",
"55 -158 CURVE SMOOTH",
"55 -105 OFFCURVE",
"42 -35 OFFCURVE",
"16 26 CURVE",
"-8 26 LINE",
"-8 25 LINE",
"17 -27 OFFCURVE",
"33 -101 OFFCURVE",
"33 -159 CURVE SMOOTH",
"33 -273 OFFCURVE",
"-23 -327 OFFCURVE",
"-127 -327 CURVE SMOOTH",
"-216 -327 OFFCURVE",
"-264 -291 OFFCURVE",
"-264 -232 CURVE SMOOTH",
"-264 -175 OFFCURVE",
"-223 -142 OFFCURVE",
"-155 -142 CURVE SMOOTH",
"-115 -142 OFFCURVE",
"-93 -153 OFFCURVE",
"-93 -182 CURVE SMOOTH",
"-93 -210 OFFCURVE",
"-115 -223 OFFCURVE",
"-158 -223 CURVE SMOOTH",
"-199 -223 OFFCURVE",
"-235 -211 OFFCURVE",
"-261 -190 CURVE",
"-272 -209 LINE",
"-236 -237 OFFCURVE",
"-194 -247 OFFCURVE",
"-159 -247 CURVE SMOOTH",
"-108 -247 OFFCURVE",
"-72 -226 OFFCURVE",
"-72 -181 CURVE SMOOTH",
"-72 -137 OFFCURVE",
"-108 -118 OFFCURVE",
"-157 -118 CURVE SMOOTH",
"-231 -118 OFFCURVE",
"-284 -162 OFFCURVE",
"-284 -233 CURVE SMOOTH",
"-284 -307 OFFCURVE",
"-222 -352 OFFCURVE",
"-127 -352 CURVE SMOOTH"
);
}
);
width = 0;
},
{
associatedMasterId = "034236B8-3FA8-43DA-9EDA-EFF269A687EC";
background = {
paths = (
{
closed = 1;
nodes = (
"13 -353 OFFCURVE",
"78 -287 OFFCURVE",
"78 -161 CURVE SMOOTH",
"78 -107 OFFCURVE",
"65 -40 OFFCURVE",
"40 24 CURVE",
"16 26 LINE",
"16 25 LINE",
"40 -35 OFFCURVE",
"57 -98 OFFCURVE",
"57 -163 CURVE SMOOTH",
"57 -273 OFFCURVE",
"5 -330 OFFCURVE",
"-99 -330 CURVE SMOOTH",
"-190 -330 OFFCURVE",
"-238 -293 OFFCURVE",
"-238 -235 CURVE SMOOTH",
"-238 -178 OFFCURVE",
"-196 -145 OFFCURVE",
"-130 -145 CURVE SMOOTH",
"-90 -145 OFFCURVE",
"-70 -157 OFFCURVE",
"-70 -184 CURVE SMOOTH",
"-70 -210 OFFCURVE",
"-90 -223 OFFCURVE",
"-132 -223 CURVE SMOOTH",
"-172 -223 OFFCURVE",
"-208 -211 OFFCURVE",
"-230 -193 CURVE",
"-241 -211 LINE",
"-209 -236 OFFCURVE",
"-167 -246 OFFCURVE",
"-133 -246 CURVE SMOOTH",
"-83 -246 OFFCURVE",
"-49 -225 OFFCURVE",
"-49 -183 CURVE SMOOTH",
"-49 -141 OFFCURVE",
"-83 -122 OFFCURVE",
"-131 -122 CURVE SMOOTH",
"-204 -122 OFFCURVE",
"-257 -165 OFFCURVE",
"-257 -236 CURVE SMOOTH",
"-257 -309 OFFCURVE",
"-197 -353 OFFCURVE",
"-99 -353 CURVE SMOOTH"
);
}
);
};
layerId = "D0C3A5F5-632A-4710-A169-7414E4F64027";
name = "Light Sep 28 15, 10:13";
paths = (
{
closed = 1;
nodes = (
"13 -353 OFFCURVE",
"78 -287 OFFCURVE",
"78 -161 CURVE SMOOTH",
"78 -107 OFFCURVE",
"65 -40 OFFCURVE",
"40 24 CURVE",
"16 26 LINE",
"16 25 LINE",
"40 -35 OFFCURVE",
"57 -98 OFFCURVE",
"57 -163 CURVE SMOOTH",
"57 -273 OFFCURVE",
"5 -330 OFFCURVE",
"-99 -330 CURVE SMOOTH",
"-190 -330 OFFCURVE",
"-238 -293 OFFCURVE",
"-238 -235 CURVE SMOOTH",
"-238 -178 OFFCURVE",
"-196 -145 OFFCURVE",
"-130 -145 CURVE SMOOTH",
"-90 -145 OFFCURVE",
"-70 -157 OFFCURVE",
"-70 -184 CURVE SMOOTH",
"-70 -210 OFFCURVE",
"-90 -223 OFFCURVE",
"-132 -223 CURVE SMOOTH",
"-172 -223 OFFCURVE",
"-208 -211 OFFCURVE",
"-230 -193 CURVE",
"-241 -211 LINE",
"-209 -236 OFFCURVE",
"-167 -246 OFFCURVE",
"-133 -246 CURVE SMOOTH",
"-83 -246 OFFCURVE",
"-49 -225 OFFCURVE",
"-49 -183 CURVE SMOOTH",
"-49 -141 OFFCURVE",
"-83 -122 OFFCURVE",
"-131 -122 CURVE SMOOTH",
"-204 -122 OFFCURVE",
"-257 -165 OFFCURVE",
"-257 -236 CURVE SMOOTH",
"-257 -309 OFFCURVE",
"-197 -353 OFFCURVE",
"-99 -353 CURVE SMOOTH"
);
}
);
width = 45;
}
);
unicode = 0CC3;
category = Mark;
subCategory = Spacing;
},
{
glyphname = knmvRR;
lastChange = "2015-11-25 06:27:54 +0000";
layers = (
{
background = {
guideLines = (
{
angle = 90;
position = "{-102, -363}";
}
);
paths = (
{
closed = 1;
nodes = (
"339 -320 OFFCURVE",
"402 -268 OFFCURVE",
"402 -174 CURVE SMOOTH",
"402 -43 OFFCURVE",
"307 26 OFFCURVE",
"121 26 CURVE SMOOTH",
"-15 26 LINE",
"-2 4 LINE",
"126 4 LINE SMOOTH",
"289 4 OFFCURVE",
"380 -54 OFFCURVE",
"380 -177 CURVE SMOOTH",
"380 -253 OFFCURVE",
"331 -295 OFFCURVE",
"250 -295 CURVE SMOOTH",
"172 -295 OFFCURVE",
"137 -263 OFFCURVE",
"137 -220 CURVE SMOOTH",
"137 -181 OFFCURVE",
"159 -157 OFFCURVE",
"201 -151 CURVE",
"200 -156 OFFCURVE",
"200 -157 OFFCURVE",
"200 -160 CURVE SMOOTH",
"200 -178 OFFCURVE",
"218 -191 OFFCURVE",
"247 -191 CURVE SMOOTH",
"275 -191 OFFCURVE",
"293 -178 OFFCURVE",
"293 -160 CURVE SMOOTH",
"293 -139 OFFCURVE",
"278 -127 OFFCURVE",
"238 -127 CURVE SMOOTH",
"163 -127 OFFCURVE",
"115 -160 OFFCURVE",
"115 -222 CURVE SMOOTH",
"115 -280 OFFCURVE",
"165 -320 OFFCURVE",
"251 -320 CURVE SMOOTH"
);
},
{
closed = 1;
nodes = (
"-19 -352 OFFCURVE",
"48 -286 OFFCURVE",
"48 -158 CURVE SMOOTH",
"48 -105 OFFCURVE",
"35 -35 OFFCURVE",
"9 26 CURVE",
"-15 26 LINE",
"-15 25 LINE",
"10 -27 OFFCURVE",
"26 -101 OFFCURVE",
"26 -159 CURVE SMOOTH",
"26 -273 OFFCURVE",
"-30 -327 OFFCURVE",
"-134 -327 CURVE SMOOTH",
"-223 -327 OFFCURVE",
"-271 -291 OFFCURVE",
"-271 -232 CURVE SMOOTH",
"-271 -175 OFFCURVE",
"-230 -142 OFFCURVE",
"-162 -142 CURVE SMOOTH",
"-122 -142 OFFCURVE",
"-100 -153 OFFCURVE",
"-100 -182 CURVE SMOOTH",
"-100 -210 OFFCURVE",
"-122 -223 OFFCURVE",
"-165 -223 CURVE SMOOTH",
"-206 -223 OFFCURVE",
"-242 -211 OFFCURVE",
"-268 -190 CURVE",
"-279 -209 LINE",
"-243 -237 OFFCURVE",
"-201 -247 OFFCURVE",
"-166 -247 CURVE SMOOTH",
"-115 -247 OFFCURVE",
"-79 -226 OFFCURVE",
"-79 -181 CURVE SMOOTH",
"-79 -137 OFFCURVE",
"-115 -118 OFFCURVE",
"-164 -118 CURVE SMOOTH",
"-238 -118 OFFCURVE",
"-291 -162 OFFCURVE",
"-291 -233 CURVE SMOOTH",
"-291 -307 OFFCURVE",
"-229 -352 OFFCURVE",
"-134 -352 CURVE SMOOTH"
);
}
);
};
hints = (
{
horizontal = 1;
origin = "{0, 82}";
target = "{0, 51}";
type = TTStem;
},
{
horizontal = 1;
origin = "{0, 70}";
target = "{0, 63}";
type = TTStem;
},
{
horizontal = 1;
origin = "{0, 57}";
target = "{0, 76}";
type = TTStem;
},
{
horizontal = 1;
origin = "{0, 6}";
target = "{0, 44}";
type = TTStem;
},
{
horizontal = 1;
origin = "{0, 37}";
target = "{0, 13}";
type = TTStem;
},
{
horizontal = 1;
origin = "{0, 19}";
target = "{0, 31}";
type = TTStem;
}
);
layerId = "034236B8-3FA8-43DA-9EDA-EFF269A687EC";
name = Light;
paths = (
{
closed = 1;
nodes = (
"-19 -352 OFFCURVE",
"48 -286 OFFCURVE",
"48 -158 CURVE SMOOTH",
"48 -109 OFFCURVE",
"37 -46 OFFCURVE",
"15 11 CURVE",
"13 4 LINE",
"126 4 LINE SMOOTH",
"289 4 OFFCURVE",
"380 -54 OFFCURVE",
"380 -177 CURVE SMOOTH",
"380 -253 OFFCURVE",
"331 -295 OFFCURVE",
"250 -295 CURVE SMOOTH",
"172 -295 OFFCURVE",
"137 -263 OFFCURVE",
"137 -220 CURVE SMOOTH",
"137 -181 OFFCURVE",
"159 -157 OFFCURVE",
"201 -151 CURVE",
"200 -156 OFFCURVE",
"200 -157 OFFCURVE",
"200 -160 CURVE SMOOTH",
"200 -178 OFFCURVE",
"218 -191 OFFCURVE",
"247 -191 CURVE SMOOTH",
"275 -191 OFFCURVE",
"293 -178 OFFCURVE",
"293 -160 CURVE SMOOTH",
"293 -139 OFFCURVE",
"278 -127 OFFCURVE",
"238 -127 CURVE SMOOTH",
"163 -127 OFFCURVE",
"115 -160 OFFCURVE",
"115 -222 CURVE SMOOTH",
"115 -280 OFFCURVE",
"165 -320 OFFCURVE",
"251 -320 CURVE SMOOTH",
"339 -320 OFFCURVE",
"402 -268 OFFCURVE",
"402 -174 CURVE SMOOTH",
"402 -43 OFFCURVE",
"307 26 OFFCURVE",
"121 26 CURVE SMOOTH",
"-15 26 LINE",
"-15 25 LINE",
"10 -27 OFFCURVE",
"26 -101 OFFCURVE",
"26 -159 CURVE SMOOTH",
"26 -273 OFFCURVE",
"-30 -327 OFFCURVE",
"-134 -327 CURVE SMOOTH",
"-223 -327 OFFCURVE",
"-271 -291 OFFCURVE",
"-271 -232 CURVE SMOOTH",
"-271 -175 OFFCURVE",
"-230 -142 OFFCURVE",
"-162 -142 CURVE SMOOTH",
"-122 -142 OFFCURVE",
"-100 -153 OFFCURVE",
"-100 -182 CURVE SMOOTH",
"-100 -210 OFFCURVE",
"-122 -223 OFFCURVE",
"-165 -223 CURVE SMOOTH",
"-206 -223 OFFCURVE",
"-242 -211 OFFCURVE",
"-268 -190 CURVE",
"-279 -209 LINE",
"-243 -237 OFFCURVE",
"-201 -247 OFFCURVE",
"-166 -247 CURVE SMOOTH",
"-115 -247 OFFCURVE",
"-79 -226 OFFCURVE",
"-79 -181 CURVE SMOOTH",
"-79 -137 OFFCURVE",
"-115 -118 OFFCURVE",
"-164 -118 CURVE SMOOTH",
"-238 -118 OFFCURVE",
"-291 -162 OFFCURVE",
"-291 -233 CURVE SMOOTH",
"-291 -307 OFFCURVE",
"-229 -352 OFFCURVE",
"-134 -352 CURVE SMOOTH"
);
}
);
width = 322;
},
{
associatedMasterId = "034236B8-3FA8-43DA-9EDA-EFF269A687EC";
background = {
guideLines = (
{
angle = 90;
position = "{-100, -363}";
}
);
paths = (
{
closed = 1;
nodes = (
"285 -179 OFFCURVE",
"299 -169 OFFCURVE",
"299 -154 CURVE SMOOTH",
"299 -139 OFFCURVE",
"285 -129 OFFCURVE",
"266 -129 CURVE SMOOTH",
"247 -129 OFFCURVE",
"233 -139 OFFCURVE",
"233 -154 CURVE SMOOTH",
"233 -169 OFFCURVE",
"247 -179 OFFCURVE",
"266 -179 CURVE SMOOTH"
);
}
);
};
components = (
{
name = knmvR;
}
);
guideLines = (
{
position = "{28, -122}";
},
{
angle = 90;
position = "{-100, -363}";
},
{
position = "{40, -330}";
},
{
position = "{23, -236}";
}
);
layerId = "D821D022-E154-4C16-BC2F-813ACD85CF89";
name = "Light Oct 14 15, 16:22";
paths = (
{
closed = 1;
nodes = (
"367 -318 OFFCURVE",
"427 -267 OFFCURVE",
"427 -174 CURVE SMOOTH",
"427 -43 OFFCURVE",
"333 26 OFFCURVE",
"152 26 CURVE SMOOTH",
"13 26 LINE",
"26 4 LINE",
"154 4 LINE SMOOTH",
"315 4 OFFCURVE",
"406 -54 OFFCURVE",
"406 -177 CURVE SMOOTH",
"406 -253 OFFCURVE",
"357 -295 OFFCURVE",
"276 -295 CURVE SMOOTH",
"198 -295 OFFCURVE",
"163 -263 OFFCURVE",
"163 -220 CURVE SMOOTH",
"163 -178 OFFCURVE",
"188 -154 OFFCURVE",
"237 -150 CURVE",
"234 -155 OFFCURVE",
"233 -160 OFFCURVE",
"233 -165 CURVE SMOOTH",
"233 -185 OFFCURVE",
"248 -196 OFFCURVE",
"274 -196 CURVE SMOOTH",
"301 -196 OFFCURVE",
"316 -183 OFFCURVE",
"316 -162 CURVE SMOOTH",
"316 -138 OFFCURVE",
"298 -128 OFFCURVE",
"260 -128 CURVE SMOOTH",
"187 -128 OFFCURVE",
"142 -160 OFFCURVE",
"142 -222 CURVE SMOOTH",
"142 -279 OFFCURVE",
"191 -318 OFFCURVE",
"277 -318 CURVE SMOOTH"
);
}
);
width = 357;
}
);
unicode = 0CC4;
category = Mark;
subCategory = Spacing;
},
{
glyphname = knmvL;
lastChange = "2015-12-02 21:17:16 +0000";
layers = (
{
background = {
paths = (
{
closed = 1;
nodes = (
"115 -328 OFFCURVE",
"143 -357 OFFCURVE",
"195 -357 CURVE SMOOTH",
"243 -357 OFFCURVE",
"271 -327 OFFCURVE",
"271 -284 CURVE SMOOTH",
"271 -273 OFFCURVE",
"270 -263 OFFCURVE",
"268 -255 CURVE",
"247 -254 LINE",
"249 -264 OFFCURVE",
"250 -273 OFFCURVE",
"250 -284 CURVE SMOOTH",
"250 -312 OFFCURVE",
"238 -333 OFFCURVE",
"195 -333 CURVE SMOOTH",
"154 -333 OFFCURVE",
"136 -314 OFFCURVE",
"136 -291 CURVE SMOOTH",
"136 -267 OFFCURVE",
"149 -253 OFFCURVE",
"160 -240 CURVE SMOOTH",
"173 -224 OFFCURVE",
"187 -211 OFFCURVE",
"187 -174 CURVE SMOOTH",
"187 -113 OFFCURVE",
"134 -75 OFFCURVE",
"70 -75 CURVE SMOOTH",
"2 -75 OFFCURVE",
"-52 -102 OFFCURVE",
"-81 -160 CURVE",
"-114 -102 OFFCURVE",
"-163 -75 OFFCURVE",
"-228 -75 CURVE SMOOTH",
"-294 -75 OFFCURVE",
"-350 -110 OFFCURVE",
"-350 -184 CURVE SMOOTH",
"-350 -207 OFFCURVE",
"-346 -229 OFFCURVE",
"-334 -255 CURVE",
"-314 -247 LINE",
"-322 -232 OFFCURVE",
"-329 -210 OFFCURVE",
"-329 -186 CURVE SMOOTH",
"-329 -130 OFFCURVE",
"-289 -98 OFFCURVE",
"-228 -98 CURVE SMOOTH",
"-162 -98 OFFCURVE",
"-124 -124 OFFCURVE",
"-93 -184 CURVE",
"-70 -184 LINE",
"-43 -125 OFFCURVE",
"0 -98 OFFCURVE",
"68 -98 CURVE SMOOTH",
"125 -98 OFFCURVE",
"166 -129 OFFCURVE",
"166 -175 CURVE SMOOTH",
"166 -198 OFFCURVE",
"162 -208 OFFCURVE",
"145 -227 CURVE SMOOTH",
"123 -252 OFFCURVE",
"115 -269 OFFCURVE",
"115 -291 CURVE SMOOTH"
);
}
);
};
hints = (
{
horizontal = 1;
origin = "{0, 2}";
target = "{0, 15}";
type = TTStem;
},
{
horizontal = 1;
origin = "{0, 43}";
target = "{0, 30}";
type = TTStem;
},
{
horizontal = 1;
origin = "{0, 30}";
target = "{0, 24}";
type = Align;
},
{
horizontal = 1;
origin = "{0, 50}";
target = "{0, 43}";
type = Align;
},
{
horizontal = 1;
origin = "{0, 36}";
type = Anchor;
},
{
horizontal = 1;
origin = "{0, 46}";
target = "{0, 27}";
type = Align;
options = 4;
}
);
layerId = "034236B8-3FA8-43DA-9EDA-EFF269A687EC";
name = Light;
paths = (
{
closed = 1;
nodes = (
"121 -343 OFFCURVE",
"146 -375 OFFCURVE",
"198 -375 CURVE SMOOTH",
"246 -375 OFFCURVE",
"274 -342 OFFCURVE",
"274 -302 CURVE SMOOTH",
"274 -288 OFFCURVE",
"273 -278 OFFCURVE",
"271 -270 CURVE",
"250 -269 LINE",
"252 -279 OFFCURVE",
"253 -288 OFFCURVE",
"253 -302 CURVE SMOOTH",
"253 -327 OFFCURVE",
"241 -351 OFFCURVE",
"198 -351 CURVE SMOOTH",
"157 -351 OFFCURVE",
"142 -329 OFFCURVE",
"142 -306 CURVE SMOOTH",
"142 -257 OFFCURVE",
"186 -254 OFFCURVE",
"186 -189 CURVE SMOOTH",
"186 -128 OFFCURVE",
"134 -90 OFFCURVE",
"70 -90 CURVE SMOOTH",
"2 -90 OFFCURVE",
"-52 -117 OFFCURVE",
"-81 -175 CURVE",
"-114 -117 OFFCURVE",
"-163 -90 OFFCURVE",
"-228 -90 CURVE SMOOTH",
"-294 -90 OFFCURVE",
"-350 -125 OFFCURVE",
"-350 -199 CURVE SMOOTH",
"-350 -222 OFFCURVE",
"-346 -244 OFFCURVE",
"-334 -270 CURVE",
"-314 -262 LINE",
"-322 -247 OFFCURVE",
"-329 -225 OFFCURVE",
"-329 -201 CURVE SMOOTH",
"-329 -145 OFFCURVE",
"-289 -113 OFFCURVE",
"-228 -113 CURVE SMOOTH",
"-162 -113 OFFCURVE",
"-124 -139 OFFCURVE",
"-93 -199 CURVE",
"-70 -199 LINE",
"-43 -140 OFFCURVE",
"0 -113 OFFCURVE",
"68 -113 CURVE SMOOTH",
"125 -113 OFFCURVE",
"166 -144 OFFCURVE",
"166 -191 CURVE SMOOTH",
"166 -247 OFFCURVE",
"121 -249 OFFCURVE",
"121 -308 CURVE SMOOTH"
);
}
);
width = 0;
}
);
unicode = 0CE2;
},
{
glyphname = knmvLL;
lastChange = "2015-12-02 21:23:50 +0000";
layers = (
{
background = {
paths = (
{
closed = 1;
nodes = (
"236 -98 LINE",
"251 -142 OFFCURVE",
"264 -186 OFFCURVE",
"264 -234 CURVE SMOOTH",
"264 -307 OFFCURVE",
"240 -348 OFFCURVE",
"172 -348 CURVE SMOOTH",
"130 -348 OFFCURVE",
"112 -331 OFFCURVE",
"112 -308 CURVE SMOOTH",
"112 -261 OFFCURVE",
"186 -262 OFFCURVE",
"186 -188 CURVE SMOOTH",
"186 -128 OFFCURVE",
"134 -90 OFFCURVE",
"70 -90 CURVE SMOOTH",
"2 -90 OFFCURVE",
"-52 -117 OFFCURVE",
"-81 -175 CURVE",
"-114 -117 OFFCURVE",
"-163 -90 OFFCURVE",
"-228 -90 CURVE SMOOTH",
"-294 -90 OFFCURVE",
"-350 -125 OFFCURVE",
"-350 -199 CURVE SMOOTH",
"-350 -222 OFFCURVE",
"-346 -244 OFFCURVE",
"-334 -270 CURVE",
"-314 -262 LINE",
"-322 -247 OFFCURVE",
"-329 -225 OFFCURVE",
"-329 -201 CURVE SMOOTH",
"-329 -145 OFFCURVE",
"-289 -113 OFFCURVE",
"-228 -113 CURVE SMOOTH",
"-162 -113 OFFCURVE",
"-124 -139 OFFCURVE",
"-93 -199 CURVE",
"-70 -199 LINE",
"-43 -140 OFFCURVE",
"0 -113 OFFCURVE",
"68 -113 CURVE SMOOTH",
"125 -113 OFFCURVE",
"166 -144 OFFCURVE",
"166 -191 CURVE SMOOTH",
"166 -250 OFFCURVE",
"92 -247 OFFCURVE",
"92 -309 CURVE SMOOTH",
"92 -345 OFFCURVE",
"118 -371 OFFCURVE",
"172 -371 CURVE SMOOTH",
"250 -371 OFFCURVE",
"284 -319 OFFCURVE",
"284 -232 CURVE SMOOTH",
"284 -194 OFFCURVE",
"275 -154 OFFCURVE",
"263 -118 CURVE",
"335 -118 LINE SMOOTH",
"455 -118 OFFCURVE",
"525 -162 OFFCURVE",
"525 -247 CURVE SMOOTH",
"525 -309 OFFCURVE",
"491 -345 OFFCURVE",
"425 -345 CURVE SMOOTH",
"374 -345 OFFCURVE",
"349 -323 OFFCURVE",
"349 -290 CURVE SMOOTH",
"349 -263 OFFCURVE",
"365 -243 OFFCURVE",
"393 -237 CURVE",
"392 -241 OFFCURVE",
"392 -243 OFFCURVE",
"392 -245 CURVE SMOOTH",
"392 -258 OFFCURVE",
"405 -268 OFFCURVE",
"430 -268 CURVE SMOOTH",
"454 -268 OFFCURVE",
"466 -257 OFFCURVE",
"466 -243 CURVE SMOOTH",
"466 -227 OFFCURVE",
"454 -216 OFFCURVE",
"423 -216 CURVE SMOOTH",
"368 -216 OFFCURVE",
"329 -241 OFFCURVE",
"329 -291 CURVE SMOOTH",
"329 -339 OFFCURVE",
"366 -368 OFFCURVE",
"426 -368 CURVE SMOOTH",
"501 -368 OFFCURVE",
"545 -323 OFFCURVE",
"545 -246 CURVE SMOOTH",
"545 -152 OFFCURVE",
"473 -98 OFFCURVE",
"331 -98 CURVE SMOOTH"
);
}
);
};
hints = (
{
horizontal = 1;
origin = "{0, 96}";
target = "{0, 72}";
type = TTStem;
},
{
horizontal = 1;
origin = "{0, 59}";
target = "{0, 9}";
type = TTStem;
},
{
horizontal = 1;
origin = "{0, 40}";
target = "{0, 27}";
type = TTStem;
},
{
horizontal = 1;
origin = "{0, 43}";
target = "{0, 24}";
type = Align;
options = 4;
},
{
horizontal = 1;
origin = "{0, 27}";
target = "{0, 21}";
type = Align;
},
{
horizontal = 1;
origin = "{0, 40}";
target = "{0, 47}";
type = Align;
},
{
horizontal = 1;
origin = "{0, 27}";
target = "{0, 2}";
type = Align;
},
{
horizontal = 1;
origin = "{0, 65}";
target = "{0, 40}";
type = Align;
},
{
horizontal = 1;
origin = "{0, 78}";
target = "{0, 90}";
type = TTStem;
},
{
horizontal = 1;
origin = "{0, 33}";
type = Anchor;
},
{
horizontal = 1;
origin = "{0, 15}";
target = "{0, 53}";
type = Align;
options = 4;
}
);
layerId = "034236B8-3FA8-43DA-9EDA-EFF269A687EC";
name = Light;
paths = (
{
closed = 1;
nodes = (
"236 -98 LINE",
"236 -98 OFFCURVE",
"236 -99 OFFCURVE",
"236 -99 CURVE SMOOTH",
"251 -143 OFFCURVE",
"264 -186 OFFCURVE",
"264 -234 CURVE SMOOTH",
"264 -307 OFFCURVE",
"240 -348 OFFCURVE",
"172 -348 CURVE SMOOTH",
"130 -348 OFFCURVE",
"112 -331 OFFCURVE",
"112 -308 CURVE SMOOTH",
"112 -291 OFFCURVE",
"117 -282 OFFCURVE",
"142 -263 CURVE SMOOTH",
"176 -239 OFFCURVE",
"186 -219 OFFCURVE",
"186 -188 CURVE SMOOTH",
"186 -128 OFFCURVE",
"134 -90 OFFCURVE",
"70 -90 CURVE SMOOTH",
"2 -90 OFFCURVE",
"-52 -117 OFFCURVE",
"-81 -175 CURVE",
"-114 -117 OFFCURVE",
"-163 -90 OFFCURVE",
"-228 -90 CURVE SMOOTH",
"-294 -90 OFFCURVE",
"-350 -125 OFFCURVE",
"-350 -199 CURVE SMOOTH",
"-350 -222 OFFCURVE",
"-346 -244 OFFCURVE",
"-334 -270 CURVE",
"-314 -262 LINE",
"-322 -247 OFFCURVE",
"-329 -225 OFFCURVE",
"-329 -201 CURVE SMOOTH",
"-329 -145 OFFCURVE",
"-289 -113 OFFCURVE",
"-228 -113 CURVE SMOOTH",
"-162 -113 OFFCURVE",
"-124 -139 OFFCURVE",
"-93 -199 CURVE",
"-70 -199 LINE",
"-43 -140 OFFCURVE",
"0 -113 OFFCURVE",
"68 -113 CURVE SMOOTH",
"125 -113 OFFCURVE",
"166 -144 OFFCURVE",
"166 -191 CURVE SMOOTH",
"166 -214 OFFCURVE",
"160 -227 OFFCURVE",
"132 -247 CURVE SMOOTH",
"102 -267 OFFCURVE",
"92 -285 OFFCURVE",
"92 -309 CURVE SMOOTH",
"92 -345 OFFCURVE",
"118 -371 OFFCURVE",
"172 -371 CURVE SMOOTH",
"250 -371 OFFCURVE",
"284 -319 OFFCURVE",
"284 -232 CURVE SMOOTH",
"284 -194 OFFCURVE",
"275 -154 OFFCURVE",
"263 -118 CURVE",
"335 -118 LINE SMOOTH",
"455 -118 OFFCURVE",
"525 -162 OFFCURVE",
"525 -247 CURVE SMOOTH",
"525 -309 OFFCURVE",
"491 -345 OFFCURVE",
"425 -345 CURVE SMOOTH",
"374 -345 OFFCURVE",
"349 -323 OFFCURVE",
"349 -290 CURVE SMOOTH",
"349 -263 OFFCURVE",
"365 -243 OFFCURVE",
"393 -237 CURVE",
"392 -241 OFFCURVE",
"392 -243 OFFCURVE",
"392 -245 CURVE SMOOTH",
"392 -258 OFFCURVE",
"405 -268 OFFCURVE",
"430 -268 CURVE SMOOTH",
"454 -268 OFFCURVE",
"466 -257 OFFCURVE",
"466 -243 CURVE SMOOTH",
"466 -227 OFFCURVE",
"454 -216 OFFCURVE",
"423 -216 CURVE SMOOTH",
"368 -216 OFFCURVE",
"329 -241 OFFCURVE",
"329 -291 CURVE SMOOTH",
"329 -339 OFFCURVE",
"366 -368 OFFCURVE",
"426 -368 CURVE SMOOTH",
"501 -368 OFFCURVE",
"545 -323 OFFCURVE",
"545 -246 CURVE SMOOTH",
"545 -152 OFFCURVE",
"473 -98 OFFCURVE",
"331 -98 CURVE SMOOTH"
);
}
);
width = 0;
},
{
associatedMasterId = "034236B8-3FA8-43DA-9EDA-EFF269A687EC";
background = {
paths = (
{
closed = 1;
nodes = (
"499 -353 OFFCURVE",
"547 -313 OFFCURVE",
"547 -239 CURVE SMOOTH",
"547 -136 OFFCURVE",
"473 -81 OFFCURVE",
"329 -81 CURVE SMOOTH",
"219 -81 LINE",
"230 -98 LINE",
"331 -98 LINE SMOOTH",
"458 -98 OFFCURVE",
"530 -144 OFFCURVE",
"530 -242 CURVE SMOOTH",
"530 -302 OFFCURVE",
"492 -335 OFFCURVE",
"427 -335 CURVE SMOOTH",
"366 -335 OFFCURVE",
"338 -310 OFFCURVE",
"338 -276 CURVE SMOOTH",
"338 -245 OFFCURVE",
"355 -226 OFFCURVE",
"389 -221 CURVE",
"388 -225 OFFCURVE",
"388 -226 OFFCURVE",
"388 -228 CURVE SMOOTH",
"388 -243 OFFCURVE",
"402 -253 OFFCURVE",
"425 -253 CURVE SMOOTH",
"448 -253 OFFCURVE",
"462 -243 OFFCURVE",
"462 -228 CURVE SMOOTH",
"462 -211 OFFCURVE",
"450 -202 OFFCURVE",
"418 -202 CURVE SMOOTH",
"359 -202 OFFCURVE",
"321 -228 OFFCURVE",
"321 -277 CURVE SMOOTH",
"321 -322 OFFCURVE",
"360 -353 OFFCURVE",
"428 -353 CURVE SMOOTH"
);
}
);
};
guideLines = (
{
angle = 130.417;
position = "{131, -227}";
showMeasurement = 1;
},
{
angle = 90;
position = "{-81, -160}";
},
{
position = "{183, -330}";
},
{
position = "{348, -103}";
}
);
layerId = "24AEC979-520A-4242-A458-4E8CAFAAA7C7";
name = "Light Oct 14 15, 16:29";
paths = (
{
closed = 1;
nodes = (
"-336 -256 CURVE",
"-316 -248 LINE",
"-327 -225 OFFCURVE",
"-334 -207 OFFCURVE",
"-334 -184 CURVE SMOOTH",
"-334 -129 OFFCURVE",
"-294 -98 OFFCURVE",
"-224 -98 CURVE SMOOTH",
"-159 -98 OFFCURVE",
"-119 -125 OFFCURVE",
"-92 -184 CURVE",
"-68 -184 LINE",
"-45 -127 OFFCURVE",
"-1 -98 OFFCURVE",
"63 -98 CURVE SMOOTH",
"128 -98 OFFCURVE",
"173 -128 OFFCURVE",
"173 -175 CURVE SMOOTH",
"173 -235 OFFCURVE",
"98 -232 OFFCURVE",
"98 -294 CURVE SMOOTH",
"98 -330 OFFCURVE",
"124 -353 OFFCURVE",
"178 -353 CURVE SMOOTH",
"256 -353 OFFCURVE",
"285 -304 OFFCURVE",
"285 -217 CURVE SMOOTH",
"285 -172 OFFCURVE",
"277 -123 OFFCURVE",
"262 -83 CURVE",
"242 -83 LINE",
"257 -127 OFFCURVE",
"265 -171 OFFCURVE",
"265 -219 CURVE SMOOTH",
"265 -292 OFFCURVE",
"246 -330 OFFCURVE",
"178 -330 CURVE SMOOTH",
"136 -330 OFFCURVE",
"118 -316 OFFCURVE",
"118 -293 CURVE SMOOTH",
"118 -246 OFFCURVE",
"193 -247 OFFCURVE",
"193 -173 CURVE SMOOTH",
"193 -112 OFFCURVE",
"143 -75 OFFCURVE",
"65 -75 CURVE SMOOTH",
"6 -75 OFFCURVE",
"-51 -97 OFFCURVE",
"-81 -160 CURVE",
"-109 -101 OFFCURVE",
"-159 -75 OFFCURVE",
"-226 -75 CURVE SMOOTH",
"-298 -75 OFFCURVE",
"-354 -106 OFFCURVE",
"-354 -181 CURVE SMOOTH",
"-354 -204 OFFCURVE",
"-349 -226 OFFCURVE"
);
},
{
closed = 1;
nodes = (
"369 -201 OFFCURVE",
"330 -227 OFFCURVE",
"330 -276 CURVE SMOOTH",
"330 -324 OFFCURVE",
"367 -353 OFFCURVE",
"427 -353 CURVE SMOOTH",
"502 -353 OFFCURVE",
"546 -308 OFFCURVE",
"546 -231 CURVE SMOOTH",
"546 -136 OFFCURVE",
"478 -83 OFFCURVE",
"341 -83 CURVE SMOOTH",
"254 -83 LINE",
"259 -103 LINE",
"342 -103 LINE SMOOTH",
"460 -103 OFFCURVE",
"526 -147 OFFCURVE",
"526 -232 CURVE SMOOTH",
"526 -294 OFFCURVE",
"492 -330 OFFCURVE",
"426 -330 CURVE SMOOTH",
"375 -330 OFFCURVE",
"350 -308 OFFCURVE",
"350 -275 CURVE SMOOTH",
"350 -245 OFFCURVE",
"370 -224 OFFCURVE",
"404 -220 CURVE",
"399 -218 LINE",
"403 -222 LINE",
"400 -226 OFFCURVE",
"399 -230 OFFCURVE",
"399 -234 CURVE SMOOTH",
"399 -247 OFFCURVE",
"409 -255 OFFCURVE",
"429 -255 CURVE SMOOTH",
"449 -255 OFFCURVE",
"462 -247 OFFCURVE",
"462 -230 CURVE SMOOTH",
"462 -211 OFFCURVE",
"448 -201 OFFCURVE",
"417 -201 CURVE SMOOTH"
);
}
);
width = 100;
},
{
associatedMasterId = "034236B8-3FA8-43DA-9EDA-EFF269A687EC";
background = {
paths = (
{
closed = 1;
nodes = (
"240 -354 OFFCURVE",
"288 -307 OFFCURVE",
"288 -215 CURVE SMOOTH",
"288 -177 OFFCURVE",
"279 -127 OFFCURVE",
"260 -83 CURVE",
"242 -82 LINE",
"242 -83 LINE",
"261 -121 OFFCURVE",
"272 -174 OFFCURVE",
"272 -216 CURVE SMOOTH",
"272 -297 OFFCURVE",
"232 -336 OFFCURVE",
"158 -336 CURVE SMOOTH",
"94 -336 OFFCURVE",
"60 -310 OFFCURVE",
"60 -268 CURVE SMOOTH",
"60 -227 OFFCURVE",
"89 -204 OFFCURVE",
"138 -204 CURVE SMOOTH",
"166 -204 OFFCURVE",
"182 -212 OFFCURVE",
"182 -232 CURVE SMOOTH",
"182 -252 OFFCURVE",
"166 -262 OFFCURVE",
"136 -262 CURVE SMOOTH",
"106 -262 OFFCURVE",
"81 -253 OFFCURVE",
"62 -238 CURVE",
"54 -252 LINE",
"80 -272 OFFCURVE",
"110 -279 OFFCURVE",
"135 -279 CURVE SMOOTH",
"171 -279 OFFCURVE",
"197 -264 OFFCURVE",
"197 -232 CURVE SMOOTH",
"197 -200 OFFCURVE",
"171 -187 OFFCURVE",
"136 -187 CURVE SMOOTH",
"83 -187 OFFCURVE",
"45 -218 OFFCURVE",
"45 -269 CURVE SMOOTH",
"45 -322 OFFCURVE",
"90 -354 OFFCURVE",
"158 -354 CURVE SMOOTH"
);
}
);
};
guideLines = (
{
angle = 130.417;
position = "{131, -227}";
showMeasurement = 1;
},
{
angle = 90;
position = "{-81, -160}";
},
{
position = "{183, -330}";
},
{
angle = 90;
position = "{340, -275}";
}
);
layerId = "C610174B-7ECE-400A-A3F2-FC1A23693C0C";
name = "Light Oct 19 15, 10:13";
paths = (
{
closed = 1;
nodes = (
"-336 -256 CURVE",
"-316 -248 LINE",
"-327 -225 OFFCURVE",
"-334 -207 OFFCURVE",
"-334 -184 CURVE SMOOTH",
"-334 -129 OFFCURVE",
"-293 -98 OFFCURVE",
"-221 -98 CURVE SMOOTH",
"-159 -98 OFFCURVE",
"-121 -125 OFFCURVE",
"-92 -184 CURVE",
"-68 -184 LINE",
"-43 -126 OFFCURVE",
"-1 -98 OFFCURVE",
"63 -98 CURVE SMOOTH",
"128 -98 OFFCURVE",
"173 -128 OFFCURVE",
"173 -175 CURVE SMOOTH",
"173 -235 OFFCURVE",
"98 -232 OFFCURVE",
"98 -294 CURVE SMOOTH",
"98 -330 OFFCURVE",
"124 -353 OFFCURVE",
"178 -353 CURVE SMOOTH",
"256 -353 OFFCURVE",
"290 -304 OFFCURVE",
"290 -217 CURVE SMOOTH",
"290 -172 OFFCURVE",
"277 -123 OFFCURVE",
"262 -83 CURVE",
"242 -83 LINE",
"257 -127 OFFCURVE",
"270 -171 OFFCURVE",
"270 -219 CURVE SMOOTH",
"270 -292 OFFCURVE",
"246 -330 OFFCURVE",
"178 -330 CURVE SMOOTH",
"136 -330 OFFCURVE",
"118 -316 OFFCURVE",
"118 -293 CURVE SMOOTH",
"118 -246 OFFCURVE",
"193 -247 OFFCURVE",
"193 -173 CURVE SMOOTH",
"193 -112 OFFCURVE",
"143 -75 OFFCURVE",
"65 -75 CURVE SMOOTH",
"6 -75 OFFCURVE",
"-49 -96 OFFCURVE",
"-81 -160 CURVE",
"-111 -101 OFFCURVE",
"-159 -75 OFFCURVE",
"-223 -75 CURVE SMOOTH",
"-295 -75 OFFCURVE",
"-354 -106 OFFCURVE",
"-354 -181 CURVE SMOOTH",
"-354 -204 OFFCURVE",
"-349 -226 OFFCURVE"
);
},
{
closed = 1;
nodes = (
"374 -201 OFFCURVE",
"335 -226 OFFCURVE",
"335 -276 CURVE SMOOTH",
"335 -324 OFFCURVE",
"372 -353 OFFCURVE",
"432 -353 CURVE SMOOTH",
"507 -353 OFFCURVE",
"551 -308 OFFCURVE",
"551 -231 CURVE SMOOTH",
"551 -137 OFFCURVE",
"479 -83 OFFCURVE",
"337 -83 CURVE SMOOTH",
"254 -83 LINE",
"259 -103 LINE",
"341 -103 LINE SMOOTH",
"461 -103 OFFCURVE",
"531 -147 OFFCURVE",
"531 -232 CURVE SMOOTH",
"531 -294 OFFCURVE",
"497 -330 OFFCURVE",
"431 -330 CURVE SMOOTH",
"380 -330 OFFCURVE",
"355 -308 OFFCURVE",
"355 -275 CURVE SMOOTH",
"355 -248 OFFCURVE",
"371 -228 OFFCURVE",
"399 -222 CURVE",
"398 -226 OFFCURVE",
"398 -228 OFFCURVE",
"398 -230 CURVE SMOOTH",
"398 -243 OFFCURVE",
"411 -253 OFFCURVE",
"436 -253 CURVE SMOOTH",
"460 -253 OFFCURVE",
"472 -242 OFFCURVE",
"472 -228 CURVE SMOOTH",
"472 -212 OFFCURVE",
"460 -201 OFFCURVE",
"429 -201 CURVE SMOOTH"
);
}
);
width = 100;
}
);
unicode = 0CE3;
},
{
glyphname = knmE;
lastChange = "2015-11-25 06:27:54 +0000";
layers = (
{
background = {
paths = (
{
closed = 1;
nodes = (
"-180 492 LINE",
"139 492 LINE SMOOTH",
"222 492 OFFCURVE",
"271 537 OFFCURVE",
"271 607 CURVE SMOOTH",
"271 666 OFFCURVE",
"232 717 OFFCURVE",
"158 717 CURVE SMOOTH",
"144 717 OFFCURVE",
"127 716 OFFCURVE",
"113 712 CURVE",
"113 661 LINE",
"126 663 OFFCURVE",
"138 664 OFFCURVE",
"148 664 CURVE SMOOTH",
"190 664 OFFCURVE",
"210 643 OFFCURVE",
"210 607 CURVE SMOOTH",
"210 570 OFFCURVE",
"188 546 OFFCURVE",
"130 546 CURVE SMOOTH",
"-180 546 LINE"
);
}
);
};
components = (
{
name = _part.knmE;
piece = {
Width = 350;
};
}
);
guideLines = (
{
angle = 90;
position = "{210, 469}";
}
);
layerId = "034236B8-3FA8-43DA-9EDA-EFF269A687EC";
name = Light;
width = 0;
}
);
unicode = 0CC6;
category = Mark;
subCategory = Spacing;
},
{
glyphname = knmEE;
lastChange = "2015-11-25 06:27:54 +0000";
layers = (
{
anchors = (
{
name = _headline;
position = "{146, 383}";
}
);
background = {
paths = (
{
closed = 0;
nodes = (
"21 -17 LINE"
);
},
{
closed = 1;
nodes = (
"146 357 OFFCURVE",
"223 393 OFFCURVE",
"292 393 CURVE SMOOTH",
"350 393 OFFCURVE",
"396 371 OFFCURVE",
"396 325 CURVE SMOOTH",
"396 275 OFFCURVE",
"348 250 OFFCURVE",
"280 250 CURVE SMOOTH",
"231 250 OFFCURVE",
"175 262 OFFCURVE",
"141 283 CURVE",
"141 260 LINE",
"181 236 OFFCURVE",
"236 226 OFFCURVE",
"280 226 CURVE SMOOTH",
"359 226 OFFCURVE",
"418 262 OFFCURVE",
"418 325 CURVE SMOOTH",
"418 384 OFFCURVE",
"363 417 OFFCURVE",
"293 417 CURVE SMOOTH",
"218 417 OFFCURVE",
"127 373 OFFCURVE",
"127 238 CURVE SMOOTH",
"127 99 OFFCURVE",
"218 23 OFFCURVE",
"346 -5 CURVE",
"354 19 LINE",
"227 46 OFFCURVE",
"149 116 OFFCURVE",
"147 237 CURVE SMOOTH"
);
}
);
};
hints = (
{
horizontal = 1;
origin = "{0, 15}";
target = "{0, 8}";
type = TTStem;
},
{
horizontal = 1;
origin = "{1, 24}";
target = "{1, 25}";
type = TTStem;
},
{
horizontal = 1;
origin = "{1, 17}";
target = "{1, 32}";
type = TTStem;
},
{
horizontal = 1;
origin = "{0, 21}";
target = "{0, 2}";
type = TTStem;
},
{
horizontal = 1;
origin = "{0, 27}";
target = "{0, 28}";
type = TTStem;
}
);
layerId = "034236B8-3FA8-43DA-9EDA-EFF269A687EC";
name = Light;
paths = (
{
closed = 1;
nodes = (
"146 357 OFFCURVE",
"223 393 OFFCURVE",
"292 393 CURVE SMOOTH",
"350 393 OFFCURVE",
"396 371 OFFCURVE",
"396 325 CURVE SMOOTH",
"396 275 OFFCURVE",
"348 250 OFFCURVE",
"280 250 CURVE SMOOTH",
"231 250 OFFCURVE",
"175 262 OFFCURVE",
"141 283 CURVE",
"141 260 LINE",
"181 236 OFFCURVE",
"236 226 OFFCURVE",
"280 226 CURVE SMOOTH",
"359 226 OFFCURVE",
"418 262 OFFCURVE",
"418 325 CURVE SMOOTH",
"418 384 OFFCURVE",
"363 417 OFFCURVE",
"293 417 CURVE SMOOTH",
"218 417 OFFCURVE",
"127 373 OFFCURVE",
"127 238 CURVE SMOOTH",
"127 99 OFFCURVE",
"218 23 OFFCURVE",
"346 -5 CURVE",
"354 19 LINE",
"227 46 OFFCURVE",
"149 116 OFFCURVE",
"147 237 CURVE SMOOTH"
);
},
{
closed = 1;
nodes = (
"6 563 OFFCURVE",
"-33 555 OFFCURVE",
"-52 548 CURVE SMOOTH",
"-72 541 OFFCURVE",
"-83 531 OFFCURVE",
"-83 513 CURVE SMOOTH",
"-83 493 OFFCURVE",
"-68 481 OFFCURVE",
"-40 481 CURVE SMOOTH",
"-12 481 OFFCURVE",
"5 492 OFFCURVE",
"5 513 CURVE SMOOTH",
"5 522 OFFCURVE",
"1 530 OFFCURVE",
"-7 537 CURVE",
"6 541 OFFCURVE",
"23 543 OFFCURVE",
"40 543 CURVE SMOOTH",
"103 543 OFFCURVE",
"135 516 OFFCURVE",
"135 470 CURVE SMOOTH",
"135 425 OFFCURVE",
"105 405 OFFCURVE",
"38 405 CURVE SMOOTH",
"-111 405 LINE",
"-111 383 LINE",
"38 383 LINE SMOOTH",
"118 383 OFFCURVE",
"157 411 OFFCURVE",
"157 469 CURVE SMOOTH",
"157 529 OFFCURVE",
"115 563 OFFCURVE",
"40 563 CURVE SMOOTH"
);
}
);
width = 463;
}
);
leftMetricsKey = _part.knmE;
rightMetricsKey = knLengthmark;
unicode = 0CC7;
category = Mark;
subCategory = Spacing;
},
{
glyphname = knmAI;
lastChange = "2015-12-03 21:46:18 +0000";
layers = (
{
anchors = (
{
name = _headline;
position = "{146, 383}";
}
);
background = {
components = (
{
name = knmE;
},
{
name = knAIlengthmark;
transform = "{1, 0, 0, 1, 239, 0}";
}
);
};
hints = (
{
horizontal = 1;
origin = "{0, 52}";
target = "{0, 21}";
type = TTStem;
},
{
horizontal = 1;
origin = "{0, 40}";
target = "{0, 33}";
type = TTStem;
},
{
horizontal = 1;
origin = "{0, 27}";
target = "{0, 46}";
type = TTStem;
},
{
horizontal = 1;
place = "{-38.000000, 17.000000}";
},
{
horizontal = 1;
origin = "{1, 24}";
target = "{1, 25}";
type = TTStem;
},
{
horizontal = 1;
origin = "{1, 17}";
target = "{1, 32}";
type = TTStem;
},
{
horizontal = 1;
origin = "{0, 14}";
target = "{0, 15}";
type = TTStem;
},
{
horizontal = 1;
origin = "{0, 7}";
type = Anchor;
}
);
layerId = "034236B8-3FA8-43DA-9EDA-EFF269A687EC";
name = Light;
paths = (
{
closed = 1;
nodes = (
"246 -39 LINE",
"306 -32 OFFCURVE",
"338 -1 OFFCURVE",
"338 48 CURVE SMOOTH",
"338 78 OFFCURVE",
"326 106 OFFCURVE",
"310 130 CURVE",
"290 120 LINE",
"307 97 OFFCURVE",
"316 74 OFFCURVE",
"316 51 CURVE SMOOTH",
"316 10 OFFCURVE",
"288 -21 OFFCURVE",
"227 -21 CURVE SMOOTH",
"210 -21 LINE",
"210 -43 LINE",
"293 -66 OFFCURVE",
"327 -119 OFFCURVE",
"327 -191 CURVE SMOOTH",
"327 -275 OFFCURVE",
"280 -329 OFFCURVE",
"171 -329 CURVE SMOOTH",
"84 -329 OFFCURVE",
"29 -294 OFFCURVE",
"29 -232 CURVE SMOOTH",
"29 -178 OFFCURVE",
"71 -144 OFFCURVE",
"138 -144 CURVE SMOOTH",
"177 -144 OFFCURVE",
"200 -155 OFFCURVE",
"200 -184 CURVE SMOOTH",
"200 -212 OFFCURVE",
"178 -225 OFFCURVE",
"135 -225 CURVE SMOOTH",
"94 -225 OFFCURVE",
"58 -213 OFFCURVE",
"32 -192 CURVE",
"21 -211 LINE",
"57 -239 OFFCURVE",
"99 -249 OFFCURVE",
"134 -249 CURVE SMOOTH",
"185 -249 OFFCURVE",
"221 -228 OFFCURVE",
"221 -183 CURVE SMOOTH",
"221 -139 OFFCURVE",
"185 -120 OFFCURVE",
"137 -120 CURVE SMOOTH",
"62 -120 OFFCURVE",
"9 -166 OFFCURVE",
"9 -233 CURVE SMOOTH",
"9 -310 OFFCURVE",
"78 -354 OFFCURVE",
"173 -354 CURVE SMOOTH",
"289 -354 OFFCURVE",
"349 -288 OFFCURVE",
"349 -191 CURVE SMOOTH",
"349 -110 OFFCURVE",
"308 -59 OFFCURVE",
"246 -35 CURVE"
);
},
{
closed = 1;
nodes = (
"6 563 OFFCURVE",
"-33 555 OFFCURVE",
"-52 548 CURVE SMOOTH",
"-72 541 OFFCURVE",
"-83 531 OFFCURVE",
"-83 513 CURVE SMOOTH",
"-83 493 OFFCURVE",
"-68 481 OFFCURVE",
"-40 481 CURVE SMOOTH",
"-12 481 OFFCURVE",
"5 492 OFFCURVE",
"5 513 CURVE SMOOTH",
"5 522 OFFCURVE",
"1 530 OFFCURVE",
"-7 537 CURVE",
"6 541 OFFCURVE",
"23 543 OFFCURVE",
"40 543 CURVE SMOOTH",
"103 543 OFFCURVE",
"135 516 OFFCURVE",
"135 470 CURVE SMOOTH",
"135 425 OFFCURVE",
"105 405 OFFCURVE",
"38 405 CURVE SMOOTH",
"-111 405 LINE",
"-111 383 LINE",
"38 383 LINE SMOOTH",
"118 383 OFFCURVE",
"157 411 OFFCURVE",
"157 469 CURVE SMOOTH",
"157 529 OFFCURVE",
"115 563 OFFCURVE",
"40 563 CURVE SMOOTH"
);
}
);
width = 349;
},
{
associatedMasterId = "034236B8-3FA8-43DA-9EDA-EFF269A687EC";
background = {
components = (
{
name = knmE;
},
{
name = knAIlengthmark;
transform = "{1, 0, 0, 1, 239, 0}";
}
);
};
components = (
{
name = knmE;
},
{
name = knAIlengthmark;
transform = "{1, 0, 0, 1, 239, 0}";
}
);
layerId = "AFB35A10-B930-444D-952D-CCDEB265183A";
name = "Light Nov 3 15, 22:54";
width = 349;
},
{
anchors = (
{
name = _headline;
position = "{146, 383}";
}
);
associatedMasterId = "034236B8-3FA8-43DA-9EDA-EFF269A687EC";
background = {
components = (
{
name = knmE;
},
{
name = knAIlengthmark;
transform = "{1, 0, 0, 1, 239, 0}";
}
);
};
hints = (
{
horizontal = 1;
origin = "{0, 37}";
target = "{0, 6}";
type = TTStem;
},
{
horizontal = 1;
origin = "{0, 25}";
target = "{0, 18}";
type = TTStem;
},
{
horizontal = 1;
origin = "{0, 12}";
target = "{0, 31}";
type = TTStem;
},
{
horizontal = 1;
place = "{-38.000000, 17.000000}";
},
{
horizontal = 1;
origin = "{1, 24}";
target = "{1, 25}";
type = TTStem;
},
{
horizontal = 1;
origin = "{1, 17}";
target = "{1, 32}";
type = TTStem;
},
{
horizontal = 1;
origin = "{0, 58}";
target = "{0, 0}";
type = TTStem;
},
{
horizontal = 1;
origin = "{0, 51}";
type = Anchor;
},
{
horizontal = 1;
origin = "{0, 0}";
target = "{0, 58}";
other1 = "{0, 43}";
type = Interpolate;
}
);
layerId = "46F61B64-45A1-4C2B-A5DB-3E879C433881";
name = "Light Dec 2 15, 14:24";
paths = (
{
closed = 1;
nodes = (
"210 -43 LINE",
"293 -66 OFFCURVE",
"327 -119 OFFCURVE",
"327 -191 CURVE SMOOTH",
"327 -275 OFFCURVE",
"280 -329 OFFCURVE",
"171 -329 CURVE SMOOTH",
"84 -329 OFFCURVE",
"29 -294 OFFCURVE",
"29 -232 CURVE SMOOTH",
"29 -178 OFFCURVE",
"71 -144 OFFCURVE",
"138 -144 CURVE SMOOTH",
"177 -144 OFFCURVE",
"200 -155 OFFCURVE",
"200 -184 CURVE SMOOTH",
"200 -212 OFFCURVE",
"178 -225 OFFCURVE",
"135 -225 CURVE SMOOTH",
"94 -225 OFFCURVE",
"58 -213 OFFCURVE",
"32 -192 CURVE",
"21 -211 LINE",
"57 -239 OFFCURVE",
"99 -249 OFFCURVE",
"134 -249 CURVE SMOOTH",
"185 -249 OFFCURVE",
"221 -228 OFFCURVE",
"221 -183 CURVE SMOOTH",
"221 -139 OFFCURVE",
"185 -120 OFFCURVE",
"137 -120 CURVE SMOOTH",
"62 -120 OFFCURVE",
"9 -166 OFFCURVE",
"9 -233 CURVE SMOOTH",
"9 -310 OFFCURVE",
"78 -354 OFFCURVE",
"173 -354 CURVE SMOOTH",
"289 -354 OFFCURVE",
"349 -288 OFFCURVE",
"349 -191 CURVE SMOOTH",
"349 -102 OFFCURVE",
"299 -49 OFFCURVE",
"226 -29 CURVE",
"226 -40 LINE",
"299 -38 OFFCURVE",
"338 -6 OFFCURVE",
"338 48 CURVE SMOOTH",
"338 78 OFFCURVE",
"326 106 OFFCURVE",
"310 130 CURVE",
"290 120 LINE",
"307 97 OFFCURVE",
"316 74 OFFCURVE",
"316 51 CURVE SMOOTH",
"316 10 OFFCURVE",
"288 -21 OFFCURVE",
"227 -21 CURVE SMOOTH",
"210 -21 LINE"
);
},
{
closed = 1;
nodes = (
"6 563 OFFCURVE",
"-33 555 OFFCURVE",
"-52 548 CURVE SMOOTH",
"-72 541 OFFCURVE",
"-83 531 OFFCURVE",
"-83 513 CURVE SMOOTH",
"-83 493 OFFCURVE",
"-68 481 OFFCURVE",
"-40 481 CURVE SMOOTH",
"-12 481 OFFCURVE",
"5 492 OFFCURVE",
"5 513 CURVE SMOOTH",
"5 522 OFFCURVE",
"1 530 OFFCURVE",
"-7 537 CURVE",
"6 541 OFFCURVE",
"23 543 OFFCURVE",
"40 543 CURVE SMOOTH",
"103 543 OFFCURVE",
"135 516 OFFCURVE",
"135 470 CURVE SMOOTH",
"135 425 OFFCURVE",
"105 405 OFFCURVE",
"38 405 CURVE SMOOTH",
"-111 405 LINE",
"-111 383 LINE",
"38 383 LINE SMOOTH",
"118 383 OFFCURVE",
"157 411 OFFCURVE",
"157 469 CURVE SMOOTH",
"157 529 OFFCURVE",
"115 563 OFFCURVE",
"40 563 CURVE SMOOTH"
);
}
);
width = 349;
}
);
rightMetricsKey = knAIlengthmark;
unicode = 0CC8;
category = Mark;
subCategory = Spacing;
},
{
glyphname = knmO;
lastChange = "2015-11-25 06:27:54 +0000";
layers = (
{
anchors = (
{
name = _knmU;
position = "{-64, -21}";
}
);
background = {
components = (
{
disableAlignment = 1;
name = knmUU;
},
{
name = _part.knmE;
transform = "{1, 0, 0, 1, -1, 0}";
}
);
};
hints = (
{
horizontal = 1;
origin = "{0, 42}";
target = "{0, 35}";
type = TTStem;
},
{
horizontal = 1;
origin = "{0, 2}";
target = "{0, 14}";
type = TTStem;
},
{
horizontal = 1;
origin = "{1, 24}";
target = "{1, 25}";
type = TTStem;
},
{
horizontal = 1;
origin = "{1, 17}";
target = "{1, 32}";
type = TTStem;
},
{
horizontal = 1;
origin = "{0, 26}";
target = "{0, 51}";
type = TTStem;
},
{
horizontal = 1;
origin = "{0, 42}";
target = "{0, 20}";
type = Align;
},
{
horizontal = 1;
origin = "{0, 35}";
target = "{0, 57}";
type = Align;
}
);
layerId = "034236B8-3FA8-43DA-9EDA-EFF269A687EC";
name = Light;
paths = (
{
closed = 1;
nodes = (
"310 147 OFFCURVE",
"341 186 OFFCURVE",
"391 194 CURVE",
"388 189 OFFCURVE",
"387 185 OFFCURVE",
"387 180 CURVE SMOOTH",
"387 163 OFFCURVE",
"403 150 OFFCURVE",
"435 150 CURVE SMOOTH",
"465 150 OFFCURVE",
"481 162 OFFCURVE",
"481 183 CURVE SMOOTH",
"481 202 OFFCURVE",
"469 217 OFFCURVE",
"422 217 CURVE SMOOTH",
"339 217 OFFCURVE",
"288 171 OFFCURVE",
"288 100 CURVE SMOOTH",
"288 25 OFFCURVE",
"346 -21 OFFCURVE",
"440 -21 CURVE SMOOTH",
"568 -21 OFFCURVE",
"630 63 OFFCURVE",
"630 170 CURVE SMOOTH",
"630 307 OFFCURVE",
"527 417 OFFCURVE",
"361 417 CURVE SMOOTH",
"236 417 OFFCURVE",
"147 354 OFFCURVE",
"147 248 CURVE SMOOTH",
"147 195 OFFCURVE",
"169 136 OFFCURVE",
"169 90 CURVE SMOOTH",
"169 30 OFFCURVE",
"132 4 OFFCURVE",
"71 4 CURVE SMOOTH",
"12 4 OFFCURVE",
"-35 28 OFFCURVE",
"-64 101 CURVE",
"-76 81 LINE",
"-49 14 OFFCURVE",
"-1 -21 OFFCURVE",
"70 -21 CURVE SMOOTH",
"147 -21 OFFCURVE",
"191 21 OFFCURVE",
"191 92 CURVE SMOOTH",
"191 143 OFFCURVE",
"169 189 OFFCURVE",
"169 242 CURVE SMOOTH",
"169 343 OFFCURVE",
"247 393 OFFCURVE",
"360 393 CURVE SMOOTH",
"515 393 OFFCURVE",
"608 298 OFFCURVE",
"608 172 CURVE SMOOTH",
"608 93 OFFCURVE",
"571 4 OFFCURVE",
"441 4 CURVE SMOOTH",
"360 4 OFFCURVE",
"310 38 OFFCURVE",
"310 99 CURVE SMOOTH"
);
},
{
closed = 1;
nodes = (
"5 563 OFFCURVE",
"-34 555 OFFCURVE",
"-53 548 CURVE SMOOTH",
"-73 541 OFFCURVE",
"-84 531 OFFCURVE",
"-84 513 CURVE SMOOTH",
"-84 493 OFFCURVE",
"-69 481 OFFCURVE",
"-41 481 CURVE SMOOTH",
"-13 481 OFFCURVE",
"4 492 OFFCURVE",
"4 513 CURVE SMOOTH",
"4 522 OFFCURVE",
"0 530 OFFCURVE",
"-8 537 CURVE",
"5 541 OFFCURVE",
"22 543 OFFCURVE",
"39 543 CURVE SMOOTH",
"102 543 OFFCURVE",
"134 516 OFFCURVE",
"134 470 CURVE SMOOTH",
"134 425 OFFCURVE",
"104 405 OFFCURVE",
"37 405 CURVE SMOOTH",
"-112 405 LINE",
"-112 383 LINE",
"37 383 LINE SMOOTH",
"117 383 OFFCURVE",
"156 411 OFFCURVE",
"156 469 CURVE SMOOTH",
"156 529 OFFCURVE",
"114 563 OFFCURVE",
"39 563 CURVE SMOOTH"
);
}
);
width = 710;
},
{
associatedMasterId = "034236B8-3FA8-43DA-9EDA-EFF269A687EC";
background = {
components = (
{
disableAlignment = 1;
name = knmUU;
},
{
name = _part.knmE;
transform = "{1, 0, 0, 1, -1, 0}";
}
);
};
components = (
{
disableAlignment = 1;
name = knmUU;
},
{
name = _part.knmE;
transform = "{1, 0, 0, 1, -1, 0}";
}
);
layerId = "5F3A5B79-974F-416B-B1DF-66006E1BB9B4";
name = "Light Nov 3 15, 22:55";
width = 710;
},
{
associatedMasterId = "034236B8-3FA8-43DA-9EDA-EFF269A687EC";
background = {
components = (
{
disableAlignment = 1;
name = knmUU;
},
{
name = _part.knmE;
transform = "{1, 0, 0, 1, -1, 0}";
}
);
};
components = (
{
disableAlignment = 1;
name = knmUU;
},
{
name = _part.knmE;
transform = "{1, 0, 0, 1, -1, 0}";
}
);
layerId = "485445D0-4EB3-44FA-95E9-D601537F84E1";
name = "Light Nov 3 15, 22:55";
width = 710;
}
);
rightKerningGroup = knmUU;
rightMetricsKey = _part.knmUU;
unicode = 0CCA;
category = Mark;
subCategory = Spacing;
},
{
glyphname = knmOO;
lastChange = "2015-11-25 06:27:54 +0000";
layers = (
{
background = {
components = (
{
disableAlignment = 1;
name = knLengthmark;
transform = "{1, 0, 0, 1, 730, 0}";
},
{
disableAlignment = 1;
name = _part.knmUU;
transform = "{1, 0, 0, 1, -51, 0}";
},
{
disableAlignment = 1;
name = _part.knmE;
transform = "{1, 0, 0, 1, -524, 0}";
piece = {
Width = 350;
};
}
);
};
guideLines = (
{
angle = 90;
position = "{590, 170}";
},
{
angle = 90;
position = "{-105, 149}";
},
{
angle = 90;
position = "{690, 177}";
}
);
hints = (
{
horizontal = 1;
origin = "{1, 42}";
target = "{1, 35}";
type = TTStem;
},
{
horizontal = 1;
origin = "{0, 15}";
target = "{0, 8}";
type = TTStem;
},
{
horizontal = 1;
origin = "{2, 24}";
target = "{2, 25}";
type = TTStem;
},
{
horizontal = 1;
origin = "{2, 17}";
target = "{2, 32}";
type = TTStem;
},
{
horizontal = 1;
origin = "{2, 14}";
type = Anchor;
},
{
horizontal = 1;
origin = "{1, 26}";
target = "{1, 51}";
type = TTStem;
},
{
horizontal = 1;
origin = "{1, 2}";
target = "{1, 14}";
type = TTStem;
},
{
horizontal = 1;
origin = "{0, 21}";
target = "{0, 2}";
type = TTStem;
},
{
horizontal = 1;
origin = "{1, 35}";
target = "{1, 57}";
type = Align;
},
{
horizontal = 1;
origin = "{1, 42}";
target = "{1, 20}";
type = Align;
},
{
horizontal = 1;
origin = "{1, 35}";
target = "{0, 27}";
type = Align;
},
{
horizontal = 1;
origin = "{0, 27}";
target = "{0, 28}";
type = TTStem;
}
);
layerId = "034236B8-3FA8-43DA-9EDA-EFF269A687EC";
name = Light;
paths = (
{
closed = 1;
nodes = (
"709 357 OFFCURVE",
"786 393 OFFCURVE",
"855 393 CURVE SMOOTH",
"913 393 OFFCURVE",
"959 371 OFFCURVE",
"959 325 CURVE SMOOTH",
"959 275 OFFCURVE",
"911 250 OFFCURVE",
"843 250 CURVE SMOOTH",
"794 250 OFFCURVE",
"738 262 OFFCURVE",
"704 283 CURVE",
"704 260 LINE",
"744 236 OFFCURVE",
"799 226 OFFCURVE",
"843 226 CURVE SMOOTH",
"922 226 OFFCURVE",
"981 262 OFFCURVE",
"981 325 CURVE SMOOTH",
"981 384 OFFCURVE",
"926 417 OFFCURVE",
"856 417 CURVE SMOOTH",
"781 417 OFFCURVE",
"690 373 OFFCURVE",
"690 238 CURVE SMOOTH",
"690 99 OFFCURVE",
"781 23 OFFCURVE",
"909 -5 CURVE",
"917 19 LINE",
"790 46 OFFCURVE",
"712 116 OFFCURVE",
"710 237 CURVE SMOOTH"
);
},
{
closed = 1;
nodes = (
"270 147 OFFCURVE",
"301 186 OFFCURVE",
"351 194 CURVE",
"348 189 OFFCURVE",
"347 185 OFFCURVE",
"347 180 CURVE SMOOTH",
"347 163 OFFCURVE",
"363 150 OFFCURVE",
"395 150 CURVE SMOOTH",
"425 150 OFFCURVE",
"441 162 OFFCURVE",
"441 183 CURVE SMOOTH",
"441 202 OFFCURVE",
"429 217 OFFCURVE",
"382 217 CURVE SMOOTH",
"299 217 OFFCURVE",
"248 171 OFFCURVE",
"248 100 CURVE SMOOTH",
"248 25 OFFCURVE",
"306 -21 OFFCURVE",
"400 -21 CURVE SMOOTH",
"528 -21 OFFCURVE",
"590 63 OFFCURVE",
"590 170 CURVE SMOOTH",
"590 307 OFFCURVE",
"487 417 OFFCURVE",
"321 417 CURVE SMOOTH",
"196 417 OFFCURVE",
"107 354 OFFCURVE",
"107 248 CURVE SMOOTH",
"107 195 OFFCURVE",
"129 136 OFFCURVE",
"129 90 CURVE SMOOTH",
"129 30 OFFCURVE",
"92 4 OFFCURVE",
"31 4 CURVE SMOOTH",
"-28 4 OFFCURVE",
"-75 28 OFFCURVE",
"-104 101 CURVE",
"-116 81 LINE",
"-89 14 OFFCURVE",
"-41 -21 OFFCURVE",
"30 -21 CURVE SMOOTH",
"107 -21 OFFCURVE",
"151 21 OFFCURVE",
"151 92 CURVE SMOOTH",
"151 143 OFFCURVE",
"129 189 OFFCURVE",
"129 242 CURVE SMOOTH",
"129 343 OFFCURVE",
"207 393 OFFCURVE",
"320 393 CURVE SMOOTH",
"475 393 OFFCURVE",
"568 298 OFFCURVE",
"568 172 CURVE SMOOTH",
"568 93 OFFCURVE",
"531 4 OFFCURVE",
"401 4 CURVE SMOOTH",
"320 4 OFFCURVE",
"270 38 OFFCURVE",
"270 99 CURVE SMOOTH"
);
},
{
closed = 1;
nodes = (
"-518 563 OFFCURVE",
"-557 555 OFFCURVE",
"-576 548 CURVE SMOOTH",
"-596 541 OFFCURVE",
"-607 531 OFFCURVE",
"-607 513 CURVE SMOOTH",
"-607 493 OFFCURVE",
"-592 481 OFFCURVE",
"-564 481 CURVE SMOOTH",
"-536 481 OFFCURVE",
"-519 492 OFFCURVE",
"-519 513 CURVE SMOOTH",
"-519 522 OFFCURVE",
"-523 530 OFFCURVE",
"-531 537 CURVE",
"-518 541 OFFCURVE",
"-501 543 OFFCURVE",
"-484 543 CURVE SMOOTH",
"-421 543 OFFCURVE",
"-389 516 OFFCURVE",
"-389 470 CURVE SMOOTH",
"-389 425 OFFCURVE",
"-419 405 OFFCURVE",
"-486 405 CURVE SMOOTH",
"-635 405 LINE",
"-635 383 LINE",
"-486 383 LINE SMOOTH",
"-406 383 OFFCURVE",
"-367 411 OFFCURVE",
"-367 469 CURVE SMOOTH",
"-367 529 OFFCURVE",
"-409 563 OFFCURVE",
"-484 563 CURVE SMOOTH"
);
}
);
width = 1026;
}
);
rightKerningGroup = knLengthmark;
rightMetricsKey = knLengthmark;
unicode = 0CCB;
category = Mark;
subCategory = Spacing;
},
{
glyphname = knmAU;
lastChange = "2015-11-25 06:27:54 +0000";
layers = (
{
background = {
paths = (
{
closed = 1;
nodes = (
"42 353 LINE SMOOTH",
"110 353 OFFCURVE",
"147 381 OFFCURVE",
"147 435 CURVE SMOOTH",
"147 447 OFFCURVE",
"145 460 OFFCURVE",
"140 472 CURVE",
"114 472 LINE",
"119 462 OFFCURVE",
"123 449 OFFCURVE",
"123 434 CURVE SMOOTH",
"123 396 OFFCURVE",
"98 377 OFFCURVE",
"44 377 CURVE SMOOTH",
"-214 377 LINE",
"-214 353 LINE"
);
},
{
closed = 1;
nodes = (
"-111 486 LINE",
"-111 462 LINE",
"245 462 LINE SMOOTH",
"380 462 OFFCURVE",
"480 403 OFFCURVE",
"480 295 CURVE SMOOTH",
"480 208 OFFCURVE",
"422 158 OFFCURVE",
"322 158 CURVE SMOOTH",
"240 158 OFFCURVE",
"206 191 OFFCURVE",
"206 237 CURVE SMOOTH",
"206 275 OFFCURVE",
"229 303 OFFCURVE",
"287 309 CURVE",
"288 308 LINE",
"285 302 OFFCURVE",
"284 296 OFFCURVE",
"284 291 CURVE SMOOTH",
"284 268 OFFCURVE",
"302 256 OFFCURVE",
"330 256 CURVE SMOOTH",
"361 256 OFFCURVE",
"378 270 OFFCURVE",
"378 294 CURVE SMOOTH",
"378 319 OFFCURVE",
"358 331 OFFCURVE",
"312 331 CURVE SMOOTH",
"234 331 OFFCURVE",
"184 296 OFFCURVE",
"184 234 CURVE SMOOTH",
"184 173 OFFCURVE",
"233 133 OFFCURVE",
"323 133 CURVE SMOOTH",
"434 133 OFFCURVE",
"504 194 OFFCURVE",
"504 298 CURVE SMOOTH",
"504 414 OFFCURVE",
"417 486 OFFCURVE",
"243 486 CURVE SMOOTH"
);
}
);
};
components = (
{
name = _part.knmAU;
piece = {
Weight = 214;
};
}
);
guideLines = (
{
position = "{346, 184}";
}
);
layerId = "034236B8-3FA8-43DA-9EDA-EFF269A687EC";
name = Light;
width = 573;
}
);
rightKerningGroup = knmAU;
rightMetricsKey = _part.knmAU;
unicode = 0CCC;
},
{
glyphname = knLengthmark;
lastChange = "2015-11-25 17:39:07 +0000";
layers = (
{
background = {
paths = (
{
closed = 1;
nodes = (
"42 346 OFFCURVE",
"120 393 OFFCURVE",
"208 393 CURVE SMOOTH",
"275 393 OFFCURVE",
"330 367 OFFCURVE",
"330 313 CURVE SMOOTH",
"330 259 OFFCURVE",
"272 233 OFFCURVE",
"194 233 CURVE SMOOTH",
"138 233 OFFCURVE",
"74 246 OFFCURVE",
"36 265 CURVE",
"27 248 LINE",
"72 222 OFFCURVE",
"141 209 OFFCURVE",
"194 209 CURVE SMOOTH",
"283 209 OFFCURVE",
"352 246 OFFCURVE",
"352 313 CURVE SMOOTH",
"352 380 OFFCURVE",
"285 417 OFFCURVE",
"206 417 CURVE SMOOTH",
"112 417 OFFCURVE",
"20 362 OFFCURVE",
"20 234 CURVE SMOOTH",
"20 101 OFFCURVE",
"119 22 OFFCURVE",
"258 -5 CURVE",
"265 19 LINE",
"128 45 OFFCURVE",
"42 117 OFFCURVE",
"42 233 CURVE SMOOTH"
);
}
);
};
hints = (
{
horizontal = 1;
origin = "{0, 15}";
target = "{0, 8}";
type = TTStem;
},
{
horizontal = 1;
origin = "{0, 21}";
target = "{0, 2}";
type = TTStem;
},
{
horizontal = 1;
origin = "{0, 27}";
target = "{0, 28}";
type = TTStem;
}
);
layerId = "034236B8-3FA8-43DA-9EDA-EFF269A687EC";
name = Light;
paths = (
{
closed = 1;
nodes = (
"39 357 OFFCURVE",
"116 393 OFFCURVE",
"185 393 CURVE SMOOTH",
"243 393 OFFCURVE",
"289 371 OFFCURVE",
"289 325 CURVE SMOOTH",
"289 275 OFFCURVE",
"241 250 OFFCURVE",
"173 250 CURVE SMOOTH",
"124 250 OFFCURVE",
"68 262 OFFCURVE",
"34 283 CURVE",
"34 260 LINE",
"74 236 OFFCURVE",
"129 226 OFFCURVE",
"173 226 CURVE SMOOTH",
"252 226 OFFCURVE",
"311 262 OFFCURVE",
"311 325 CURVE SMOOTH",
"311 384 OFFCURVE",
"256 417 OFFCURVE",
"186 417 CURVE SMOOTH",
"111 417 OFFCURVE",
"20 373 OFFCURVE",
"20 238 CURVE SMOOTH",
"20 99 OFFCURVE",
"111 23 OFFCURVE",
"239 -5 CURVE",
"247 19 LINE",
"120 46 OFFCURVE",
"42 116 OFFCURVE",
"40 237 CURVE SMOOTH"
);
}
);
width = 356;
}
);
rightKerningGroup = knLengthmark;
unicode = 0CD5;
category = Mark;
subCategory = Spacing;
},
{
glyphname = knAIlengthmark;
lastChange = "2015-12-03 21:46:11 +0000";
layers = (
{
background = {
paths = (
{
closed = 1;
nodes = (
"-29 -43 LINE",
"54 -66 OFFCURVE",
"88 -118 OFFCURVE",
"88 -192 CURVE SMOOTH",
"88 -274 OFFCURVE",
"41 -329 OFFCURVE",
"-68 -329 CURVE SMOOTH",
"-155 -329 OFFCURVE",
"-210 -294 OFFCURVE",
"-210 -232 CURVE SMOOTH",
"-210 -178 OFFCURVE",
"-168 -144 OFFCURVE",
"-101 -144 CURVE SMOOTH",
"-62 -144 OFFCURVE",
"-39 -155 OFFCURVE",
"-39 -184 CURVE SMOOTH",
"-39 -212 OFFCURVE",
"-61 -225 OFFCURVE",
"-104 -225 CURVE SMOOTH",
"-145 -225 OFFCURVE",
"-181 -213 OFFCURVE",
"-207 -192 CURVE",
"-218 -211 LINE",
"-182 -239 OFFCURVE",
"-140 -249 OFFCURVE",
"-105 -249 CURVE SMOOTH",
"-54 -249 OFFCURVE",
"-18 -228 OFFCURVE",
"-18 -183 CURVE SMOOTH",
"-18 -139 OFFCURVE",
"-54 -120 OFFCURVE",
"-102 -120 CURVE SMOOTH",
"-177 -120 OFFCURVE",
"-230 -166 OFFCURVE",
"-230 -233 CURVE SMOOTH",
"-230 -310 OFFCURVE",
"-161 -354 OFFCURVE",
"-66 -354 CURVE SMOOTH",
"50 -354 OFFCURVE",
"110 -288 OFFCURVE",
"110 -192 CURVE SMOOTH",
"110 -102 OFFCURVE",
"60 -49 OFFCURVE",
"-13 -29 CURVE",
"-13 -40 LINE",
"57 -38 OFFCURVE",
"99 -8 OFFCURVE",
"99 47 CURVE SMOOTH",
"99 78 OFFCURVE",
"87 106 OFFCURVE",
"71 130 CURVE",
"51 120 LINE",
"68 97 OFFCURVE",
"77 74 OFFCURVE",
"77 51 CURVE SMOOTH",
"77 10 OFFCURVE",
"49 -21 OFFCURVE",
"-12 -21 CURVE SMOOTH",
"-29 -21 LINE"
);
}
);
};
hints = (
{
horizontal = 1;
origin = "{0, 52}";
target = "{0, 21}";
type = TTStem;
},
{
horizontal = 1;
origin = "{0, 40}";
target = "{0, 33}";
type = TTStem;
},
{
horizontal = 1;
origin = "{0, 27}";
target = "{0, 46}";
type = TTStem;
},
{
horizontal = 1;
origin = "{0, 14}";
target = "{0, 15}";
type = TTStem;
},
{
horizontal = 1;
origin = "{0, 6}";
type = Anchor;
}
);
layerId = "034236B8-3FA8-43DA-9EDA-EFF269A687EC";
name = Light;
paths = (
{
closed = 1;
nodes = (
"5 -39 LINE",
"67 -32 OFFCURVE",
"99 -1 OFFCURVE",
"99 48 CURVE SMOOTH",
"99 78 OFFCURVE",
"87 106 OFFCURVE",
"71 130 CURVE",
"51 120 LINE",
"68 97 OFFCURVE",
"77 74 OFFCURVE",
"77 51 CURVE SMOOTH",
"77 10 OFFCURVE",
"49 -21 OFFCURVE",
"-12 -21 CURVE SMOOTH",
"-29 -21 LINE",
"-29 -43 LINE",
"54 -66 OFFCURVE",
"88 -119 OFFCURVE",
"88 -191 CURVE SMOOTH",
"88 -275 OFFCURVE",
"41 -329 OFFCURVE",
"-68 -329 CURVE SMOOTH",
"-155 -329 OFFCURVE",
"-210 -294 OFFCURVE",
"-210 -232 CURVE SMOOTH",
"-210 -178 OFFCURVE",
"-168 -144 OFFCURVE",
"-101 -144 CURVE SMOOTH",
"-62 -144 OFFCURVE",
"-39 -155 OFFCURVE",
"-39 -184 CURVE SMOOTH",
"-39 -212 OFFCURVE",
"-61 -225 OFFCURVE",
"-104 -225 CURVE SMOOTH",
"-145 -225 OFFCURVE",
"-181 -213 OFFCURVE",
"-207 -192 CURVE",
"-218 -211 LINE",
"-182 -239 OFFCURVE",
"-140 -249 OFFCURVE",
"-105 -249 CURVE SMOOTH",
"-54 -249 OFFCURVE",
"-18 -228 OFFCURVE",
"-18 -183 CURVE SMOOTH",
"-18 -139 OFFCURVE",
"-54 -120 OFFCURVE",
"-102 -120 CURVE SMOOTH",
"-177 -120 OFFCURVE",
"-230 -166 OFFCURVE",
"-230 -233 CURVE SMOOTH",
"-230 -310 OFFCURVE",
"-161 -354 OFFCURVE",
"-66 -354 CURVE SMOOTH",
"50 -354 OFFCURVE",
"110 -288 OFFCURVE",
"110 -191 CURVE SMOOTH",
"110 -110 OFFCURVE",
"68 -58 OFFCURVE",
"5 -35 CURVE"
);
}
);
width = 110;
},
{
associatedMasterId = "034236B8-3FA8-43DA-9EDA-EFF269A687EC";
background = {
paths = (
{
closed = 1;
nodes = (
"0 83 LINE",
"52 111 OFFCURVE",
"105 125 OFFCURVE",
"149 125 CURVE SMOOTH",
"211 125 OFFCURVE",
"236 98 OFFCURVE",
"236 52 CURVE SMOOTH",
"236 -6 OFFCURVE",
"200 -29 OFFCURVE",
"94 -29 CURVE SMOOTH",
"0 -29 LINE",
"0 -53 LINE",
"88 -53 LINE SMOOTH",
"205 -53 OFFCURVE",
"261 -102 OFFCURVE",
"261 -194 CURVE SMOOTH",
"261 -301 OFFCURVE",
"186 -337 OFFCURVE",
"91 -337 CURVE SMOOTH",
"-7 -337 OFFCURVE",
"-69 -302 OFFCURVE",
"-69 -230 CURVE SMOOTH",
"-69 -177 OFFCURVE",
"-38 -145 OFFCURVE",
"29 -145 CURVE SMOOTH",
"78 -145 OFFCURVE",
"99 -162 OFFCURVE",
"99 -189 CURVE SMOOTH",
"99 -218 OFFCURVE",
"75 -234 OFFCURVE",
"15 -234 CURVE SMOOTH",
"-20 -234 OFFCURVE",
"-44 -229 OFFCURVE",
"-79 -216 CURVE",
"-83 -234 LINE",
"-58 -247 OFFCURVE",
"-20 -258 OFFCURVE",
"24 -258 CURVE SMOOTH",
"88 -258 OFFCURVE",
"121 -231 OFFCURVE",
"121 -188 CURVE SMOOTH",
"121 -149 OFFCURVE",
"91 -121 OFFCURVE",
"32 -121 CURVE SMOOTH",
"-46 -121 OFFCURVE",
"-89 -166 OFFCURVE",
"-89 -232 CURVE SMOOTH",
"-89 -314 OFFCURVE",
"-16 -361 OFFCURVE",
"93 -361 CURVE SMOOTH",
"205 -361 OFFCURVE",
"283 -306 OFFCURVE",
"283 -195 CURVE SMOOTH",
"283 -101 OFFCURVE",
"222 -39 OFFCURVE",
"121 -35 CURVE",
"121 -47 LINE",
"212 -46 OFFCURVE",
"258 -13 OFFCURVE",
"258 57 CURVE SMOOTH",
"258 118 OFFCURVE",
"216 149 OFFCURVE",
"153 149 CURVE SMOOTH",
"102 149 OFFCURVE",
"44 134 OFFCURVE",
"-8 107 CURVE"
);
}
);
};
layerId = "78D8EC50-A9BF-462F-B38D-8F46C51F696E";
name = "Light Sep 28 15, 10:16";
paths = (
{
closed = 1;
nodes = (
"186 -353 OFFCURVE",
"250 -287 OFFCURVE",
"250 -162 CURVE SMOOTH",
"250 -106 OFFCURVE",
"237 -40 OFFCURVE",
"212 24 CURVE",
"188 26 LINE",
"188 25 LINE",
"212 -35 OFFCURVE",
"229 -98 OFFCURVE",
"229 -163 CURVE SMOOTH",
"229 -275 OFFCURVE",
"177 -330 OFFCURVE",
"68 -330 CURVE SMOOTH",
"-21 -330 OFFCURVE",
"-70 -293 OFFCURVE",
"-70 -234 CURVE SMOOTH",
"-70 -179 OFFCURVE",
"-28 -145 OFFCURVE",
"40 -145 CURVE SMOOTH",
"80 -145 OFFCURVE",
"102 -157 OFFCURVE",
"102 -186 CURVE SMOOTH",
"102 -214 OFFCURVE",
"80 -227 OFFCURVE",
"37 -227 CURVE SMOOTH",
"-4 -227 OFFCURVE",
"-40 -215 OFFCURVE",
"-66 -194 CURVE",
"-77 -212 LINE",
"-41 -240 OFFCURVE",
"1 -250 OFFCURVE",
"36 -250 CURVE SMOOTH",
"87 -250 OFFCURVE",
"123 -229 OFFCURVE",
"123 -185 CURVE SMOOTH",
"123 -141 OFFCURVE",
"87 -122 OFFCURVE",
"38 -122 CURVE SMOOTH",
"-36 -122 OFFCURVE",
"-89 -166 OFFCURVE",
"-89 -235 CURVE SMOOTH",
"-89 -309 OFFCURVE",
"-28 -353 OFFCURVE",
"68 -353 CURVE SMOOTH"
);
}
);
width = 500;
},
{
associatedMasterId = "034236B8-3FA8-43DA-9EDA-EFF269A687EC";
background = {
paths = (
{
closed = 1;
nodes = (
"1 -43 LINE",
"84 -61 OFFCURVE",
"118 -113 OFFCURVE",
"118 -187 CURVE SMOOTH",
"118 -274 OFFCURVE",
"71 -329 OFFCURVE",
"-38 -329 CURVE SMOOTH",
"-125 -329 OFFCURVE",
"-180 -294 OFFCURVE",
"-180 -232 CURVE SMOOTH",
"-180 -178 OFFCURVE",
"-138 -144 OFFCURVE",
"-71 -144 CURVE SMOOTH",
"-32 -144 OFFCURVE",
"-9 -155 OFFCURVE",
"-9 -184 CURVE SMOOTH",
"-9 -212 OFFCURVE",
"-31 -225 OFFCURVE",
"-74 -225 CURVE SMOOTH",
"-115 -225 OFFCURVE",
"-151 -213 OFFCURVE",
"-177 -192 CURVE",
"-188 -211 LINE",
"-152 -239 OFFCURVE",
"-110 -249 OFFCURVE",
"-75 -249 CURVE SMOOTH",
"-24 -249 OFFCURVE",
"12 -228 OFFCURVE",
"12 -183 CURVE SMOOTH",
"12 -139 OFFCURVE",
"-24 -120 OFFCURVE",
"-72 -120 CURVE SMOOTH",
"-147 -120 OFFCURVE",
"-200 -166 OFFCURVE",
"-200 -233 CURVE SMOOTH",
"-200 -310 OFFCURVE",
"-131 -353 OFFCURVE",
"-38 -353 CURVE SMOOTH",
"80 -353 OFFCURVE",
"140 -289 OFFCURVE",
"140 -185 CURVE SMOOTH",
"140 -96 OFFCURVE",
"90 -42 OFFCURVE",
"17 -27 CURVE",
"17 -40 LINE",
"89 -34 OFFCURVE",
"129 -8 OFFCURVE",
"129 47 CURVE SMOOTH",
"129 78 OFFCURVE",
"117 106 OFFCURVE",
"101 130 CURVE",
"81 120 LINE",
"98 97 OFFCURVE",
"107 74 OFFCURVE",
"107 51 CURVE SMOOTH",
"107 10 OFFCURVE",
"79 -21 OFFCURVE",
"18 -21 CURVE SMOOTH",
"1 -21 LINE"
);
}
);
};
guideLines = (
{
angle = 248.096;
position = "{-123, -293}";
showMeasurement = 1;
}
);
layerId = "80418719-A4FE-4B5D-8F08-290C471F7207";
name = "Light Oct 16 15, 11:37";
paths = (
{
closed = 1;
nodes = (
"1 -43 LINE",
"84 -61 OFFCURVE",
"118 -113 OFFCURVE",
"118 -187 CURVE SMOOTH",
"118 -274 OFFCURVE",
"71 -329 OFFCURVE",
"-38 -329 CURVE SMOOTH",
"-125 -329 OFFCURVE",
"-180 -294 OFFCURVE",
"-180 -232 CURVE SMOOTH",
"-180 -178 OFFCURVE",
"-138 -144 OFFCURVE",
"-71 -144 CURVE SMOOTH",
"-32 -144 OFFCURVE",
"-9 -155 OFFCURVE",
"-9 -184 CURVE SMOOTH",
"-9 -212 OFFCURVE",
"-31 -225 OFFCURVE",
"-74 -225 CURVE SMOOTH",
"-115 -225 OFFCURVE",
"-151 -213 OFFCURVE",
"-177 -192 CURVE",
"-188 -211 LINE",
"-152 -239 OFFCURVE",
"-110 -249 OFFCURVE",
"-75 -249 CURVE SMOOTH",
"-24 -249 OFFCURVE",
"12 -228 OFFCURVE",
"12 -183 CURVE SMOOTH",
"12 -139 OFFCURVE",
"-24 -120 OFFCURVE",
"-72 -120 CURVE SMOOTH",
"-147 -120 OFFCURVE",
"-200 -166 OFFCURVE",
"-200 -233 CURVE SMOOTH",
"-200 -310 OFFCURVE",
"-131 -354 OFFCURVE",
"-36 -354 CURVE SMOOTH",
"80 -354 OFFCURVE",
"140 -288 OFFCURVE",
"140 -187 CURVE SMOOTH",
"140 -95 OFFCURVE",
"90 -42 OFFCURVE",
"17 -27 CURVE",
"17 -40 LINE",
"89 -34 OFFCURVE",
"129 -8 OFFCURVE",
"129 47 CURVE SMOOTH",
"129 78 OFFCURVE",
"117 106 OFFCURVE",
"101 130 CURVE",
"81 120 LINE",
"98 97 OFFCURVE",
"107 74 OFFCURVE",
"107 51 CURVE SMOOTH",
"107 10 OFFCURVE",
"79 -21 OFFCURVE",
"18 -21 CURVE SMOOTH",
"1 -21 LINE"
);
}
);
width = 170;
},
{
associatedMasterId = "034236B8-3FA8-43DA-9EDA-EFF269A687EC";
background = {
paths = (
{
closed = 1;
nodes = (
"62 -43 LINE",
"145 -61 OFFCURVE",
"179 -113 OFFCURVE",
"179 -187 CURVE SMOOTH",
"179 -274 OFFCURVE",
"132 -329 OFFCURVE",
"23 -329 CURVE SMOOTH",
"-64 -329 OFFCURVE",
"-119 -294 OFFCURVE",
"-119 -232 CURVE SMOOTH",
"-119 -178 OFFCURVE",
"-77 -144 OFFCURVE",
"-10 -144 CURVE SMOOTH",
"29 -144 OFFCURVE",
"52 -155 OFFCURVE",
"52 -184 CURVE SMOOTH",
"52 -212 OFFCURVE",
"30 -225 OFFCURVE",
"-13 -225 CURVE SMOOTH",
"-54 -225 OFFCURVE",
"-90 -213 OFFCURVE",
"-116 -192 CURVE",
"-127 -211 LINE",
"-91 -239 OFFCURVE",
"-49 -249 OFFCURVE",
"-14 -249 CURVE SMOOTH",
"37 -249 OFFCURVE",
"73 -228 OFFCURVE",
"73 -183 CURVE SMOOTH",
"73 -139 OFFCURVE",
"37 -120 OFFCURVE",
"-11 -120 CURVE SMOOTH",
"-86 -120 OFFCURVE",
"-139 -166 OFFCURVE",
"-139 -233 CURVE SMOOTH",
"-139 -310 OFFCURVE",
"-70 -353 OFFCURVE",
"23 -353 CURVE SMOOTH",
"141 -353 OFFCURVE",
"201 -289 OFFCURVE",
"201 -185 CURVE SMOOTH",
"201 -96 OFFCURVE",
"151 -42 OFFCURVE",
"78 -27 CURVE",
"78 -40 LINE",
"150 -34 OFFCURVE",
"190 -8 OFFCURVE",
"190 47 CURVE SMOOTH",
"190 78 OFFCURVE",
"178 106 OFFCURVE",
"162 130 CURVE",
"142 120 LINE",
"159 97 OFFCURVE",
"168 74 OFFCURVE",
"168 51 CURVE SMOOTH",
"168 10 OFFCURVE",
"140 -21 OFFCURVE",
"79 -21 CURVE SMOOTH",
"62 -21 LINE"
);
}
);
};
layerId = "6A9882E2-F051-40D6-82D0-515F4B32A3D8";
name = "Light Oct 22 15, 15:35";
paths = (
{
closed = 1;
nodes = (
"-29 -43 LINE",
"54 -61 OFFCURVE",
"88 -113 OFFCURVE",
"88 -187 CURVE SMOOTH",
"88 -274 OFFCURVE",
"41 -329 OFFCURVE",
"-68 -329 CURVE SMOOTH",
"-155 -329 OFFCURVE",
"-210 -294 OFFCURVE",
"-210 -232 CURVE SMOOTH",
"-210 -178 OFFCURVE",
"-168 -144 OFFCURVE",
"-101 -144 CURVE SMOOTH",
"-62 -144 OFFCURVE",
"-39 -155 OFFCURVE",
"-39 -184 CURVE SMOOTH",
"-39 -212 OFFCURVE",
"-61 -225 OFFCURVE",
"-104 -225 CURVE SMOOTH",
"-145 -225 OFFCURVE",
"-181 -213 OFFCURVE",
"-207 -192 CURVE",
"-218 -211 LINE",
"-182 -239 OFFCURVE",
"-140 -249 OFFCURVE",
"-105 -249 CURVE SMOOTH",
"-54 -249 OFFCURVE",
"-18 -228 OFFCURVE",
"-18 -183 CURVE SMOOTH",
"-18 -139 OFFCURVE",
"-54 -120 OFFCURVE",
"-102 -120 CURVE SMOOTH",
"-177 -120 OFFCURVE",
"-230 -166 OFFCURVE",
"-230 -233 CURVE SMOOTH",
"-230 -310 OFFCURVE",
"-161 -354 OFFCURVE",
"-66 -354 CURVE SMOOTH",
"50 -354 OFFCURVE",
"110 -288 OFFCURVE",
"110 -187 CURVE SMOOTH",
"110 -95 OFFCURVE",
"60 -42 OFFCURVE",
"-13 -27 CURVE",
"-13 -40 LINE",
"59 -34 OFFCURVE",
"99 -8 OFFCURVE",
"99 47 CURVE SMOOTH",
"99 78 OFFCURVE",
"87 106 OFFCURVE",
"71 130 CURVE",
"51 120 LINE",
"68 97 OFFCURVE",
"77 74 OFFCURVE",
"77 51 CURVE SMOOTH",
"77 10 OFFCURVE",
"49 -21 OFFCURVE",
"-12 -21 CURVE SMOOTH",
"-29 -21 LINE"
);
}
);
width = 110;
}
);
unicode = 0CD6;
category = Mark;
subCategory = Spacing;
},
{
glyphname = knKA;
lastChange = "2015-11-25 06:27:54 +0000";
layers = (
{
background = {
paths = (
{
closed = 1;
nodes = (
"425 70 LINE",
"477 171 LINE",
"373 171 LINE"
);
}
);
};
components = (
{
name = knKA.base;
},
{
name = _part.headline;
transform = "{1, 0, 0, 1, 365, 0}";
}
);
guideLines = (
{
angle = 90;
position = "{65, 383}";
}
);
layerId = "034236B8-3FA8-43DA-9EDA-EFF269A687EC";
name = Light;
width = 850;
}
);
leftKerningGroup = knKA;
rightKerningGroup = knKA;
unicode = 0C95;
},
{
glyphname = knGHA;
lastChange = "2015-12-07 21:30:48 +0000";
layers = (
{
background = {
paths = (
{
closed = 1;
nodes = (
"356 -21 OFFCURVE",
"430 23 OFFCURVE",
"473 113 CURVE",
"516 22 OFFCURVE",
"594 -21 OFFCURVE",
"704 -21 CURVE SMOOTH",
"826 -21 OFFCURVE",
"906 31 OFFCURVE",
"906 151 CURVE SMOOTH",
"906 170 OFFCURVE",
"904 191 OFFCURVE",
"898 211 CURVE",
"896 211 LINE",
"942 155 OFFCURVE",
"993 132 OFFCURVE",
"1051 132 CURVE SMOOTH",
"1127 132 OFFCURVE",
"1172 171 OFFCURVE",
"1172 244 CURVE SMOOTH",
"1172 316 OFFCURVE",
"1128 371 OFFCURVE",
"1044 403 CURVE",
"1035 384 LINE",
"1110 357 OFFCURVE",
"1150 307 OFFCURVE",
"1150 245 CURVE SMOOTH",
"1150 187 OFFCURVE",
"1113 156 OFFCURVE",
"1051 156 CURVE SMOOTH",
"974 156 OFFCURVE",
"912 207 OFFCURVE",
"859 291 CURVE",
"841 279 LINE",
"874 239 OFFCURVE",
"884 193 OFFCURVE",
"884 153 CURVE SMOOTH",
"884 48 OFFCURVE",
"816 4 OFFCURVE",
"705 4 CURVE SMOOTH",
"592 4 OFFCURVE",
"525 50 OFFCURVE",
"485 140 CURVE",
"461 140 LINE",
"423 52 OFFCURVE",
"357 4 OFFCURVE",
"244 4 CURVE SMOOTH",
"152 4 OFFCURVE",
"86 36 OFFCURVE",
"86 108 CURVE SMOOTH",
"86 175 OFFCURVE",
"144 206 OFFCURVE",
"229 206 CURVE SMOOTH",
"263 206 OFFCURVE",
"295 201 OFFCURVE",
"322 191 CURVE",
"327 212 LINE",
"308 221 OFFCURVE",
"269 228 OFFCURVE",
"229 228 CURVE SMOOTH",
"133 228 OFFCURVE",
"64 189 OFFCURVE",
"64 105 CURVE SMOOTH",
"64 19 OFFCURVE",
"137 -21 OFFCURVE",
"244 -21 CURVE SMOOTH"
);
},
{
closed = 1;
nodes = (
"673 381 LINE",
"673 405 LINE",
"52 405 LINE",
"52 381 LINE"
);
}
);
};
components = (
{
name = knGHA.base;
},
{
disableAlignment = 1;
name = _part.headline;
transform = "{1, 0, 0, 1, 492, 0}";
piece = {
Width = 280.312;
};
}
);
layerId = "034236B8-3FA8-43DA-9EDA-EFF269A687EC";
name = Light;
width = 1213;
}
);
leftKerningGroup = knPA;
leftMetricsKey = knPA.base;
widthMetricsKey = knGHA.base;
rightKerningGroup = knGHA;
unicode = 0C98;
},
{
glyphname = knNGA;
lastChange = "2015-12-07 21:30:52 +0000";
layers = (
{
components = (
{
name = knO;
},
{
name = _part.dot;
transform = "{1, 0, 0, 1, 398, -13}";
}
);
guideLines = (
{
angle = 90;
position = "{523, 112}";
}
);
hints = (
{
horizontal = 1;
origin = "{0, 3}";
target = "{0, 16}";
type = TTStem;
},
{
horizontal = 1;
origin = "{0, 0}";
target = "{0, 19}";
type = TTStem;
}
);
layerId = "034236B8-3FA8-43DA-9EDA-EFF269A687EC";
name = Light;
paths = (
{
closed = 1;
nodes = (
"345 251 LINE",
"467 363 OFFCURVE",
"582 425 OFFCURVE",
"706 425 CURVE SMOOTH",
"796 425 OFFCURVE",
"839 392 OFFCURVE",
"839 329 CURVE SMOOTH",
"839 306 OFFCURVE",
"833 287 OFFCURVE",
"824 271 CURVE",
"843 263 LINE",
"855 283 OFFCURVE",
"861 304 OFFCURVE",
"861 329 CURVE SMOOTH",
"861 410 OFFCURVE",
"801 449 OFFCURVE",
"703 449 CURVE SMOOTH",
"593 449 OFFCURVE",
"480 399 OFFCURVE",
"362 290 CURVE"
);
}
);
width = 1064;
},
{
associatedMasterId = "034236B8-3FA8-43DA-9EDA-EFF269A687EC";
components = (
{
name = knO;
},
{
name = _part.dot;
transform = "{1, 0, 0, 1, 398, -13}";
}
);
guideLines = (
{
angle = 90;
position = "{523, 112}";
}
);
hints = (
{
horizontal = 1;
origin = "{0, 3}";
target = "{0, 16}";
type = TTStem;
},
{
horizontal = 1;
origin = "{0, 0}";
target = "{0, 19}";
type = TTStem;
}
);
layerId = "C01301CE-B730-4F0B-BC7B-B2BA183E1EB9";
name = "Light Dec 2 15, 22:14";
paths = (
{
closed = 1;
nodes = (
"345 251 LINE",
"467 363 OFFCURVE",
"582 425 OFFCURVE",
"706 425 CURVE SMOOTH",
"796 425 OFFCURVE",
"839 392 OFFCURVE",
"839 329 CURVE SMOOTH",
"839 306 OFFCURVE",
"833 287 OFFCURVE",
"824 271 CURVE",
"843 263 LINE",
"855 283 OFFCURVE",
"861 304 OFFCURVE",
"861 329 CURVE SMOOTH",
"861 410 OFFCURVE",
"801 449 OFFCURVE",
"703 449 CURVE SMOOTH",
"593 449 OFFCURVE",
"480 399 OFFCURVE",
"362 290 CURVE"
);
}
);
width = 1064;
}
);
leftKerningGroup = knBA;
leftMetricsKey = knBA.base;
rightKerningGroup = knBA;
rightMetricsKey = knBA;
unicode = 0C99;
},
{
glyphname = knJA;
lastChange = "2015-11-25 06:27:54 +0000";
layers = (
{
background = {
paths = (
{
closed = 1;
nodes = (
"588 255 OFFCURVE",
"466 317 OFFCURVE",
"379 385 CURVE",
"365 372 LINE",
"465 288 OFFCURVE",
"597 231 OFFCURVE",
"758 231 CURVE SMOOTH",
"885 231 OFFCURVE",
"951 266 OFFCURVE",
"951 346 CURVE SMOOTH",
"951 371 OFFCURVE",
"944 396 OFFCURVE",
"929 417 CURVE",
"912 403 LINE",
"922 389 OFFCURVE",
"929 368 OFFCURVE",
"929 347 CURVE SMOOTH",
"929 283 OFFCURVE",
"868 255 OFFCURVE",
"755 255 CURVE SMOOTH"
);
}
);
};
components = (
{
name = knJA.base;
}
);
layerId = "034236B8-3FA8-43DA-9EDA-EFF269A687EC";
name = Light;
width = 1064;
}
);
leftKerningGroup = knBA;
rightKerningGroup = knBA;
unicode = 0C9C;
},
{
glyphname = knNYA;
lastChange = "2015-12-07 21:31:13 +0000";
layers = (
{
anchors = (
{
name = headline;
position = "{1349, 381}";
}
);
background = {
paths = (
{
closed = 1;
nodes = (
"989 342 OFFCURVE",
"1044 392 OFFCURVE",
"1142 392 CURVE SMOOTH",
"1236 392 OFFCURVE",
"1300 348 OFFCURVE",
"1300 242 CURVE SMOOTH",
"1300 212 OFFCURVE",
"1293 182 OFFCURVE",
"1280 151 CURVE",
"1298 144 LINE",
"1312 175 OFFCURVE",
"1319 209 OFFCURVE",
"1319 246 CURVE SMOOTH",
"1319 370 OFFCURVE",
"1236 417 OFFCURVE",
"1144 417 CURVE SMOOTH",
"1052 417 OFFCURVE",
"986 375 OFFCURVE",
"943 283 CURVE",
"953 256 LINE"
);
},
{
closed = 1;
nodes = (
"1258 364 OFFCURVE",
"1263 369 OFFCURVE",
"1263 375 CURVE SMOOTH",
"1263 381 OFFCURVE",
"1258 386 OFFCURVE",
"1252 386 CURVE SMOOTH",
"1246 386 OFFCURVE",
"1241 381 OFFCURVE",
"1241 375 CURVE SMOOTH",
"1241 369 OFFCURVE",
"1246 364 OFFCURVE",
"1252 364 CURVE SMOOTH"
);
},
{
closed = 1;
nodes = (
"1259 363 OFFCURVE",
"1264 368 OFFCURVE",
"1264 375 CURVE SMOOTH",
"1264 382 OFFCURVE",
"1259 387 OFFCURVE",
"1252 387 CURVE SMOOTH",
"1245 387 OFFCURVE",
"1240 382 OFFCURVE",
"1240 375 CURVE SMOOTH",
"1240 368 OFFCURVE",
"1245 363 OFFCURVE",
"1252 363 CURVE SMOOTH"
);
}
);
};
components = (
{
name = knI;
}
);
guideLines = (
{
angle = 90;
position = "{1295, 144}";
},
{
angle = 90;
position = "{1319, 247}";
}
);
hints = (
{
horizontal = 1;
origin = "{0, 16}";
target = "{0, 3}";
type = TTStem;
},
{
horizontal = 1;
origin = "{1, 0}";
target = "{0, 10}";
type = Align;
}
);
layerId = "034236B8-3FA8-43DA-9EDA-EFF269A687EC";
name = Light;
paths = (
{
closed = 1;
nodes = (
"953 256 LINE",
"993 341 OFFCURVE",
"1051 392 OFFCURVE",
"1146 392 CURVE SMOOTH",
"1239 392 OFFCURVE",
"1297 344 OFFCURVE",
"1297 246 CURVE SMOOTH",
"1297 210 OFFCURVE",
"1289 182 OFFCURVE",
"1274 151 CURVE",
"1295 144 LINE",
"1311 175 OFFCURVE",
"1319 208 OFFCURVE",
"1319 247 CURVE SMOOTH",
"1319 361 OFFCURVE",
"1246 417 OFFCURVE",
"1148 417 CURVE SMOOTH",
"1059 417 OFFCURVE",
"982 374 OFFCURVE",
"939 269 CURVE"
);
},
{
closed = 0;
nodes = (
"94 144 LINE"
);
}
);
width = 1389;
}
);
leftKerningGroup = knvL;
leftMetricsKey = knI;
rightMetricsKey = "=|knI";
unicode = 0C9E;
},
{
glyphname = knTTA;
lastChange = "2015-12-03 16:35:25 +0000";
layers = (
{
anchors = (
{
name = knmU;
position = "{1043, -21}";
}
);
background = {
guideLines = (
{
angle = 90;
position = "{306, 417}";
}
);
paths = (
{
closed = 1;
nodes = (
"442 -21 OFFCURVE",
"536 17 OFFCURVE",
"575 113 CURVE",
"626 10 OFFCURVE",
"722 -21 OFFCURVE",
"823 -21 CURVE SMOOTH",
"975 -21 OFFCURVE",
"1061 53 OFFCURVE",
"1061 178 CURVE SMOOTH",
"1061 290 OFFCURVE",
"994 364 OFFCURVE",
"885 387 CURVE",
"938 397 OFFCURVE",
"968 425 OFFCURVE",
"968 468 CURVE SMOOTH",
"968 524 OFFCURVE",
"917 555 OFFCURVE",
"817 555 CURVE SMOOTH",
"783 555 OFFCURVE",
"748 551 OFFCURVE",
"720 545 CURVE",
"723 521 LINE",
"747 527 OFFCURVE",
"783 531 OFFCURVE",
"822 531 CURVE SMOOTH",
"893 531 OFFCURVE",
"946 516 OFFCURVE",
"946 468 CURVE SMOOTH",
"946 410 OFFCURVE",
"869 397 OFFCURVE",
"831 397 CURVE SMOOTH",
"775 397 LINE",
"775 375 LINE",
"815 375 LINE SMOOTH",
"944 375 OFFCURVE",
"1039 305 OFFCURVE",
"1039 182 CURVE SMOOTH",
"1039 77 OFFCURVE",
"972 4 OFFCURVE",
"821 4 CURVE SMOOTH",
"701 4 OFFCURVE",
"625 48 OFFCURVE",
"587 140 CURVE",
"563 140 LINE",
"534 67 OFFCURVE",
"473 4 OFFCURVE",
"333 4 CURVE SMOOTH",
"184 4 OFFCURVE",
"100 81 OFFCURVE",
"100 190 CURVE SMOOTH",
"100 281 OFFCURVE",
"160 373 OFFCURVE",
"301 373 CURVE SMOOTH",
"371 373 OFFCURVE",
"416 350 OFFCURVE",
"416 302 CURVE SMOOTH",
"416 248 OFFCURVE",
"357 232 OFFCURVE",
"294 232 CURVE SMOOTH",
"234 232 OFFCURVE",
"162 246 OFFCURVE",
"114 282 CURVE",
"102 266 LINE",
"162 222 OFFCURVE",
"234 207 OFFCURVE",
"292 207 CURVE SMOOTH",
"378 207 OFFCURVE",
"440 241 OFFCURVE",
"440 303 CURVE SMOOTH",
"440 366 OFFCURVE",
"378 397 OFFCURVE",
"298 397 CURVE SMOOTH",
"164 397 OFFCURVE",
"78 309 OFFCURVE",
"78 189 CURVE SMOOTH",
"78 56 OFFCURVE",
"180 -21 OFFCURVE",
"331 -21 CURVE SMOOTH"
);
},
{
closed = 1;
nodes = (
"317 396 LINE",
"279 397 OFFCURVE",
"202 410 OFFCURVE",
"202 468 CURVE SMOOTH",
"202 516 OFFCURVE",
"255 531 OFFCURVE",
"328 531 CURVE SMOOTH",
"367 531 OFFCURVE",
"401 527 OFFCURVE",
"425 521 CURVE",
"428 545 LINE",
"402 551 OFFCURVE",
"369 555 OFFCURVE",
"333 555 CURVE SMOOTH",
"231 555 OFFCURVE",
"180 524 OFFCURVE",
"180 468 CURVE SMOOTH",
"180 412 OFFCURVE",
"230 382 OFFCURVE",
"317 381 CURVE"
);
}
);
};
hints = (
{
horizontal = 1;
origin = "{0, 97}";
target = "{0, 46}";
type = TTStem;
},
{
horizontal = 1;
origin = "{0, 2}";
target = "{0, 43}";
type = TTStem;
},
{
horizontal = 1;
origin = "{0, 65}";
target = "{0, 58}";
type = TTStem;
},
{
horizontal = 1;
origin = "{0, 77}";
target = "{0, 84}";
type = TTStem;
},
{
horizontal = 1;
origin = "{0, 81}";
type = Anchor;
},
{
horizontal = 1;
origin = "{0, 77}";
target = "{0, 24}";
type = Align;
},
{
horizontal = 1;
origin = "{0, 84}";
target = "{0, 17}";
type = Align;
},
{
horizontal = 1;
origin = "{0, 46}";
target = "{0, 39}";
type = Align;
},
{
horizontal = 1;
origin = "{0, 97}";
target = "{0, 5}";
type = Align;
},
{
horizontal = 1;
origin = "{0, 32}";
target = "{0, 31}";
type = TTStem;
},
{
horizontal = 1;
origin = "{0, 31}";
target = "{0, 71}";
type = Align;
},
{
horizontal = 1;
origin = "{0, 52}";
target = "{0, 32}";
type = Align;
},
{
horizontal = 1;
origin = "{0, 71}";
target = "{0, 52}";
type = TTStem;
}
);
layerId = "034236B8-3FA8-43DA-9EDA-EFF269A687EC";
name = Light;
paths = (
{
closed = 1;
nodes = (
"442 -21 OFFCURVE",
"536 17 OFFCURVE",
"575 113 CURVE",
"626 10 OFFCURVE",
"722 -21 OFFCURVE",
"823 -21 CURVE SMOOTH",
"975 -21 OFFCURVE",
"1061 53 OFFCURVE",
"1061 178 CURVE SMOOTH",
"1061 290 OFFCURVE",
"994 364 OFFCURVE",
"885 387 CURVE",
"938 397 OFFCURVE",
"968 425 OFFCURVE",
"968 468 CURVE SMOOTH",
"968 524 OFFCURVE",
"917 555 OFFCURVE",
"817 555 CURVE SMOOTH",
"783 555 OFFCURVE",
"748 551 OFFCURVE",
"720 545 CURVE",
"723 521 LINE",
"747 527 OFFCURVE",
"783 531 OFFCURVE",
"822 531 CURVE SMOOTH",
"893 531 OFFCURVE",
"946 516 OFFCURVE",
"946 468 CURVE SMOOTH",
"946 410 OFFCURVE",
"869 397 OFFCURVE",
"831 397 CURVE SMOOTH",
"775 397 LINE SMOOTH",
"775 375 LINE",
"815 375 LINE SMOOTH",
"944 375 OFFCURVE",
"1039 305 OFFCURVE",
"1039 182 CURVE SMOOTH",
"1039 77 OFFCURVE",
"972 4 OFFCURVE",
"821 4 CURVE SMOOTH",
"701 4 OFFCURVE",
"625 48 OFFCURVE",
"587 140 CURVE",
"563 140 LINE",
"534 67 OFFCURVE",
"473 4 OFFCURVE",
"333 4 CURVE SMOOTH",
"184 4 OFFCURVE",
"100 81 OFFCURVE",
"100 190 CURVE SMOOTH",
"100 281 OFFCURVE",
"160 373 OFFCURVE",
"301 373 CURVE SMOOTH",
"371 373 OFFCURVE",
"416 350 OFFCURVE",
"416 302 CURVE SMOOTH",
"416 248 OFFCURVE",
"357 232 OFFCURVE",
"294 232 CURVE SMOOTH",
"234 232 OFFCURVE",
"162 246 OFFCURVE",
"114 282 CURVE",
"102 266 LINE",
"162 222 OFFCURVE",
"234 207 OFFCURVE",
"292 207 CURVE SMOOTH",
"378 207 OFFCURVE",
"440 241 OFFCURVE",
"440 303 CURVE SMOOTH",
"440 366 OFFCURVE",
"378 397 OFFCURVE",
"298 397 CURVE SMOOTH",
"279 397 OFFCURVE",
"202 410 OFFCURVE",
"202 468 CURVE SMOOTH",
"202 516 OFFCURVE",
"255 531 OFFCURVE",
"328 531 CURVE SMOOTH",
"367 531 OFFCURVE",
"401 527 OFFCURVE",
"425 521 CURVE",
"428 545 LINE",
"402 551 OFFCURVE",
"369 555 OFFCURVE",
"333 555 CURVE SMOOTH",
"231 555 OFFCURVE",
"180 524 OFFCURVE",
"180 468 CURVE SMOOTH",
"180 423 OFFCURVE",
"212 397 OFFCURVE",
"261 388 CURVE",
"261 395 LINE",
"148 380 OFFCURVE",
"78 297 OFFCURVE",
"78 189 CURVE SMOOTH",
"78 56 OFFCURVE",
"180 -21 OFFCURVE",
"331 -21 CURVE SMOOTH"
);
}
);
width = 1143;
},
{
associatedMasterId = "034236B8-3FA8-43DA-9EDA-EFF269A687EC";
background = {
guideLines = (
{
angle = 90;
position = "{318, 417}";
}
);
paths = (
{
closed = 1;
nodes = (
"458 -21 OFFCURVE",
"554 17 OFFCURVE",
"593 113 CURVE",
"635 15 OFFCURVE",
"725 -21 OFFCURVE",
"844 -21 CURVE SMOOTH",
"993 -21 OFFCURVE",
"1089 38 OFFCURVE",
"1089 180 CURVE SMOOTH",
"1089 311 OFFCURVE",
"984 385 OFFCURVE",
"777 403 CURVE",
"773 381 LINE",
"936 370 OFFCURVE",
"1067 311 OFFCURVE",
"1067 181 CURVE SMOOTH",
"1067 58 OFFCURVE",
"985 4 OFFCURVE",
"844 4 CURVE SMOOTH",
"712 4 OFFCURVE",
"644 48 OFFCURVE",
"605 140 CURVE",
"581 140 LINE",
"551 64 OFFCURVE",
"485 4 OFFCURVE",
"355 4 CURVE SMOOTH",
"204 4 OFFCURVE",
"119 84 OFFCURVE",
"119 202 CURVE SMOOTH",
"119 301 OFFCURVE",
"179 395 OFFCURVE",
"319 395 CURVE SMOOTH",
"390 395 OFFCURVE",
"435 371 OFFCURVE",
"435 323 CURVE SMOOTH",
"435 268 OFFCURVE",
"377 252 OFFCURVE",
"313 252 CURVE SMOOTH",
"253 252 OFFCURVE",
"181 266 OFFCURVE",
"133 302 CURVE",
"121 286 LINE",
"181 242 OFFCURVE",
"253 227 OFFCURVE",
"311 227 CURVE SMOOTH",
"397 227 OFFCURVE",
"459 261 OFFCURVE",
"459 323 CURVE SMOOTH",
"459 386 OFFCURVE",
"397 417 OFFCURVE",
"318 417 CURVE SMOOTH",
"183 417 OFFCURVE",
"97 328 OFFCURVE",
"97 200 CURVE SMOOTH",
"97 59 OFFCURVE",
"201 -21 OFFCURVE",
"353 -21 CURVE SMOOTH"
);
},
{
closed = 1;
nodes = (
"336 416 LINE",
"309 417 OFFCURVE",
"253 429 OFFCURVE",
"253 479 CURVE SMOOTH",
"253 524 OFFCURVE",
"297 540 OFFCURVE",
"357 540 CURVE SMOOTH",
"372 540 OFFCURVE",
"403 539 OFFCURVE",
"432 531 CURVE",
"435 554 LINE",
"409 560 OFFCURVE",
"378 563 OFFCURVE",
"353 563 CURVE SMOOTH",
"276 563 OFFCURVE",
"231 533 OFFCURVE",
"231 480 CURVE SMOOTH",
"231 431 OFFCURVE",
"269 402 OFFCURVE",
"336 401 CURVE"
);
},
{
closed = 1;
nodes = (
"336 416 LINE",
"309 417 OFFCURVE",
"253 429 OFFCURVE",
"253 479 CURVE SMOOTH",
"253 524 OFFCURVE",
"297 540 OFFCURVE",
"357 540 CURVE SMOOTH",
"372 540 OFFCURVE",
"403 539 OFFCURVE",
"432 531 CURVE",
"435 554 LINE",
"409 560 OFFCURVE",
"378 563 OFFCURVE",
"353 563 CURVE SMOOTH",
"276 563 OFFCURVE",
"231 533 OFFCURVE",
"231 480 CURVE SMOOTH",
"231 431 OFFCURVE",
"269 402 OFFCURVE",
"336 401 CURVE"
);
}
);
};
components = (
{
name = _part.headline;
transform = "{1, 0, 0, 1, 668, 0}";
piece = {
Width = 339;
};
},
{
name = knCHA.base;
}
);
guideLines = (
{
angle = 90;
position = "{318, 457}";
}
);
layerId = "E462B619-0C8C-4894-980B-31F764BFE6C7";
name = "Light Sep 18 15, 15:53";
paths = (
{
closed = 1;
nodes = (
"318 417 LINE",
"291 418 OFFCURVE",
"235 430 OFFCURVE",
"235 480 CURVE SMOOTH",
"235 525 OFFCURVE",
"279 541 OFFCURVE",
"339 541 CURVE SMOOTH",
"354 541 OFFCURVE",
"385 540 OFFCURVE",
"414 532 CURVE",
"417 555 LINE",
"391 561 OFFCURVE",
"360 564 OFFCURVE",
"335 564 CURVE SMOOTH",
"258 564 OFFCURVE",
"213 534 OFFCURVE",
"213 481 CURVE SMOOTH",
"213 432 OFFCURVE",
"251 403 OFFCURVE",
"318 402 CURVE"
);
}
);
width = 1180;
},
{
associatedMasterId = "034236B8-3FA8-43DA-9EDA-EFF269A687EC";
background = {
guideLines = (
{
angle = 90;
position = "{308, 417}";
}
);
paths = (
{
closed = 1;
nodes = (
"842 377 LINE",
"981 365 OFFCURVE",
"1072 288 OFFCURVE",
"1072 172 CURVE SMOOTH",
"1072 35 OFFCURVE",
"976 -21 OFFCURVE",
"827 -21 CURVE SMOOTH",
"708 -21 OFFCURVE",
"618 15 OFFCURVE",
"576 113 CURVE",
"537 17 OFFCURVE",
"441 -21 OFFCURVE",
"336 -21 CURVE SMOOTH",
"184 -21 OFFCURVE",
"80 55 OFFCURVE",
"80 190 CURVE SMOOTH",
"80 308 OFFCURVE",
"166 397 OFFCURVE",
"301 397 CURVE SMOOTH",
"380 397 OFFCURVE",
"442 366 OFFCURVE",
"442 303 CURVE SMOOTH",
"442 241 OFFCURVE",
"380 207 OFFCURVE",
"294 207 CURVE SMOOTH",
"236 207 OFFCURVE",
"164 222 OFFCURVE",
"104 266 CURVE",
"116 282 LINE",
"164 246 OFFCURVE",
"236 232 OFFCURVE",
"296 232 CURVE SMOOTH",
"360 232 OFFCURVE",
"418 248 OFFCURVE",
"418 303 CURVE SMOOTH",
"418 351 OFFCURVE",
"373 375 OFFCURVE",
"302 375 CURVE SMOOTH",
"162 375 OFFCURVE",
"102 281 OFFCURVE",
"102 192 CURVE SMOOTH",
"102 80 OFFCURVE",
"187 4 OFFCURVE",
"338 4 CURVE SMOOTH",
"468 4 OFFCURVE",
"534 64 OFFCURVE",
"564 140 CURVE",
"588 140 LINE",
"627 48 OFFCURVE",
"695 4 OFFCURVE",
"827 4 CURVE SMOOTH",
"968 4 OFFCURVE",
"1050 55 OFFCURVE",
"1050 173 CURVE SMOOTH",
"1050 295 OFFCURVE",
"941 358 OFFCURVE",
"807 361 CURVE",
"810 385 LINE",
"841 385 LINE SMOOTH",
"874 385 OFFCURVE",
"944 398 OFFCURVE",
"944 458 CURVE SMOOTH",
"944 508 OFFCURVE",
"896 529 OFFCURVE",
"830 529 CURVE SMOOTH",
"813 529 OFFCURVE",
"778 528 OFFCURVE",
"745 519 CURVE",
"742 542 LINE",
"771 549 OFFCURVE",
"806 552 OFFCURVE",
"834 552 CURVE SMOOTH",
"917 552 OFFCURVE",
"966 518 OFFCURVE",
"966 459 CURVE SMOOTH",
"966 400 OFFCURVE",
"920 371 OFFCURVE",
"842 370 CURVE"
);
},
{
closed = 1;
nodes = (
"319 396 LINE",
"286 397 OFFCURVE",
"216 409 OFFCURVE",
"216 469 CURVE SMOOTH",
"216 521 OFFCURVE",
"264 540 OFFCURVE",
"330 540 CURVE SMOOTH",
"347 540 OFFCURVE",
"382 539 OFFCURVE",
"415 530 CURVE",
"418 553 LINE",
"395 559 OFFCURVE",
"368 563 OFFCURVE",
"328 563 CURVE SMOOTH",
"243 563 OFFCURVE",
"194 529 OFFCURVE",
"194 470 CURVE SMOOTH",
"194 411 OFFCURVE",
"240 382 OFFCURVE",
"319 381 CURVE"
);
}
);
};
guideLines = (
{
angle = 90;
position = "{308, 457}";
}
);
layerId = "8A36C71D-DE89-444D-88D6-54C491D711A0";
name = "Light Sep 18 15, 15:59";
paths = (
{
closed = 1;
nodes = (
"842 397 LINE",
"981 385 OFFCURVE",
"1072 308 OFFCURVE",
"1072 182 CURVE SMOOTH",
"1072 38 OFFCURVE",
"976 -21 OFFCURVE",
"827 -21 CURVE SMOOTH",
"708 -21 OFFCURVE",
"618 15 OFFCURVE",
"576 113 CURVE",
"537 17 OFFCURVE",
"441 -21 OFFCURVE",
"336 -21 CURVE SMOOTH",
"184 -21 OFFCURVE",
"80 59 OFFCURVE",
"80 200 CURVE SMOOTH",
"80 328 OFFCURVE",
"166 417 OFFCURVE",
"301 417 CURVE SMOOTH",
"380 417 OFFCURVE",
"442 386 OFFCURVE",
"442 323 CURVE SMOOTH",
"442 261 OFFCURVE",
"380 227 OFFCURVE",
"294 227 CURVE SMOOTH",
"236 227 OFFCURVE",
"164 242 OFFCURVE",
"104 286 CURVE",
"116 302 LINE",
"164 266 OFFCURVE",
"236 252 OFFCURVE",
"296 252 CURVE SMOOTH",
"360 252 OFFCURVE",
"418 268 OFFCURVE",
"418 323 CURVE SMOOTH",
"418 371 OFFCURVE",
"373 395 OFFCURVE",
"302 395 CURVE SMOOTH",
"162 395 OFFCURVE",
"102 301 OFFCURVE",
"102 202 CURVE SMOOTH",
"102 84 OFFCURVE",
"187 4 OFFCURVE",
"338 4 CURVE SMOOTH",
"468 4 OFFCURVE",
"534 64 OFFCURVE",
"564 140 CURVE",
"588 140 LINE",
"627 48 OFFCURVE",
"695 4 OFFCURVE",
"827 4 CURVE SMOOTH",
"968 4 OFFCURVE",
"1050 58 OFFCURVE",
"1050 183 CURVE SMOOTH",
"1050 315 OFFCURVE",
"941 378 OFFCURVE",
"807 381 CURVE",
"810 405 LINE",
"841 405 LINE SMOOTH",
"868 405 OFFCURVE",
"924 418 OFFCURVE",
"924 468 CURVE SMOOTH",
"924 513 OFFCURVE",
"880 529 OFFCURVE",
"820 529 CURVE SMOOTH",
"805 529 OFFCURVE",
"774 528 OFFCURVE",
"745 520 CURVE",
"742 543 LINE",
"768 549 OFFCURVE",
"799 552 OFFCURVE",
"824 552 CURVE SMOOTH",
"901 552 OFFCURVE",
"946 522 OFFCURVE",
"946 469 CURVE SMOOTH",
"946 420 OFFCURVE",
"908 391 OFFCURVE",
"842 390 CURVE"
);
},
{
closed = 1;
nodes = (
"319 416 LINE",
"292 417 OFFCURVE",
"236 429 OFFCURVE",
"236 479 CURVE SMOOTH",
"236 524 OFFCURVE",
"280 540 OFFCURVE",
"340 540 CURVE SMOOTH",
"355 540 OFFCURVE",
"386 539 OFFCURVE",
"415 531 CURVE",
"418 554 LINE",
"392 560 OFFCURVE",
"361 563 OFFCURVE",
"336 563 CURVE SMOOTH",
"259 563 OFFCURVE",
"214 533 OFFCURVE",
"214 480 CURVE SMOOTH",
"214 431 OFFCURVE",
"252 402 OFFCURVE",
"319 401 CURVE"
);
},
{
closed = 1;
nodes = (
"319 416 LINE",
"292 417 OFFCURVE",
"236 429 OFFCURVE",
"236 479 CURVE SMOOTH",
"236 524 OFFCURVE",
"280 540 OFFCURVE",
"340 540 CURVE SMOOTH",
"355 540 OFFCURVE",
"386 539 OFFCURVE",
"415 531 CURVE",
"418 554 LINE",
"392 560 OFFCURVE",
"361 563 OFFCURVE",
"336 563 CURVE SMOOTH",
"259 563 OFFCURVE",
"214 533 OFFCURVE",
"214 480 CURVE SMOOTH",
"214 431 OFFCURVE",
"252 402 OFFCURVE",
"319 401 CURVE"
);
}
);
width = 1152;
},
{
anchors = (
{
name = knmU;
position = "{1046, -21}";
}
);
associatedMasterId = "034236B8-3FA8-43DA-9EDA-EFF269A687EC";
background = {
anchors = (
{
name = knmU;
position = "{93, -21}";
}
);
guideLines = (
{
angle = 90;
position = "{306, 417}";
}
);
paths = (
{
closed = 1;
nodes = (
"317 396 LINE",
"279 397 OFFCURVE",
"202 410 OFFCURVE",
"202 468 CURVE SMOOTH",
"202 516 OFFCURVE",
"255 531 OFFCURVE",
"328 531 CURVE SMOOTH",
"367 531 OFFCURVE",
"401 527 OFFCURVE",
"425 521 CURVE",
"428 545 LINE",
"402 551 OFFCURVE",
"369 555 OFFCURVE",
"333 555 CURVE SMOOTH",
"231 555 OFFCURVE",
"180 524 OFFCURVE",
"180 468 CURVE SMOOTH",
"180 412 OFFCURVE",
"230 382 OFFCURVE",
"317 381 CURVE"
);
},
{
closed = 1;
nodes = (
"623 11 OFFCURVE",
"725 -21 OFFCURVE",
"830 -21 CURVE SMOOTH",
"976 -21 OFFCURVE",
"1061 50 OFFCURVE",
"1061 168 CURVE SMOOTH",
"1061 300 OFFCURVE",
"981 378 OFFCURVE",
"782 404 CURVE",
"775 384 LINE",
"939 365 OFFCURVE",
"1039 307 OFFCURVE",
"1039 169 CURVE SMOOTH",
"1039 63 OFFCURVE",
"958 4 OFFCURVE",
"827 4 CURVE SMOOTH",
"700 4 OFFCURVE",
"622 51 OFFCURVE",
"586 140 CURVE",
"562 140 LINE",
"533 67 OFFCURVE",
"470 4 OFFCURVE",
"335 4 CURVE SMOOTH",
"186 4 OFFCURVE",
"100 81 OFFCURVE",
"100 190 CURVE SMOOTH",
"100 281 OFFCURVE",
"160 373 OFFCURVE",
"301 373 CURVE SMOOTH",
"371 373 OFFCURVE",
"416 350 OFFCURVE",
"416 302 CURVE SMOOTH",
"416 248 OFFCURVE",
"357 232 OFFCURVE",
"294 232 CURVE SMOOTH",
"234 232 OFFCURVE",
"162 246 OFFCURVE",
"114 282 CURVE",
"102 266 LINE",
"162 222 OFFCURVE",
"234 207 OFFCURVE",
"292 207 CURVE SMOOTH",
"378 207 OFFCURVE",
"440 241 OFFCURVE",
"440 303 CURVE SMOOTH",
"440 366 OFFCURVE",
"378 397 OFFCURVE",
"298 397 CURVE SMOOTH",
"164 397 OFFCURVE",
"78 309 OFFCURVE",
"78 189 CURVE SMOOTH",
"78 56 OFFCURVE",
"182 -21 OFFCURVE",
"333 -21 CURVE SMOOTH",
"439 -21 OFFCURVE",
"535 17 OFFCURVE",
"574 113 CURVE"
);
}
);
};
layerId = "93267E20-7DD7-41DA-9916-3EE45200501E";
name = "Light Nov 2 15, 14:50";
paths = (
{
closed = 1;
nodes = (
"938 397 OFFCURVE",
"968 425 OFFCURVE",
"968 468 CURVE SMOOTH",
"968 524 OFFCURVE",
"917 555 OFFCURVE",
"817 555 CURVE SMOOTH",
"783 555 OFFCURVE",
"748 551 OFFCURVE",
"720 545 CURVE",
"723 521 LINE",
"747 527 OFFCURVE",
"783 531 OFFCURVE",
"822 531 CURVE SMOOTH",
"893 531 OFFCURVE",
"946 516 OFFCURVE",
"946 468 CURVE SMOOTH",
"946 410 OFFCURVE",
"869 397 OFFCURVE",
"831 397 CURVE SMOOTH",
"775 397 LINE",
"775 375 LINE",
"815 375 LINE SMOOTH",
"944 375 OFFCURVE",
"1039 305 OFFCURVE",
"1039 182 CURVE SMOOTH",
"1039 77 OFFCURVE",
"972 4 OFFCURVE",
"821 4 CURVE SMOOTH",
"701 4 OFFCURVE",
"625 48 OFFCURVE",
"587 140 CURVE",
"563 140 LINE",
"534 67 OFFCURVE",
"473 4 OFFCURVE",
"333 4 CURVE SMOOTH",
"184 4 OFFCURVE",
"100 81 OFFCURVE",
"100 190 CURVE SMOOTH",
"100 213 OFFCURVE",
"104 237 OFFCURVE",
"112 259 CURVE",
"170 220 OFFCURVE",
"237 207 OFFCURVE",
"292 207 CURVE SMOOTH",
"378 207 OFFCURVE",
"440 241 OFFCURVE",
"440 303 CURVE SMOOTH",
"440 365 OFFCURVE",
"380 396 OFFCURVE",
"301 397 CURVE",
"261 401 OFFCURVE",
"202 417 OFFCURVE",
"202 468 CURVE SMOOTH",
"202 516 OFFCURVE",
"255 531 OFFCURVE",
"328 531 CURVE SMOOTH",
"367 531 OFFCURVE",
"401 527 OFFCURVE",
"425 521 CURVE",
"428 545 LINE",
"402 551 OFFCURVE",
"369 555 OFFCURVE",
"333 555 CURVE SMOOTH",
"231 555 OFFCURVE",
"180 524 OFFCURVE",
"180 468 CURVE SMOOTH",
"180 431 OFFCURVE",
"202 405 OFFCURVE",
"243 392 CURVE",
"141 371 OFFCURVE",
"78 292 OFFCURVE",
"78 189 CURVE SMOOTH",
"78 56 OFFCURVE",
"180 -21 OFFCURVE",
"331 -21 CURVE SMOOTH",
"442 -21 OFFCURVE",
"536 17 OFFCURVE",
"575 113 CURVE",
"626 10 OFFCURVE",
"722 -21 OFFCURVE",
"823 -21 CURVE SMOOTH",
"975 -21 OFFCURVE",
"1061 53 OFFCURVE",
"1061 178 CURVE SMOOTH",
"1061 290 OFFCURVE",
"994 364 OFFCURVE",
"885 387 CURVE"
);
},
{
closed = 1;
nodes = (
"371 374 OFFCURVE",
"416 351 OFFCURVE",
"416 302 CURVE SMOOTH",
"416 248 OFFCURVE",
"357 232 OFFCURVE",
"294 232 CURVE SMOOTH",
"237 232 OFFCURVE",
"168 245 OFFCURVE",
"120 277 CURVE",
"148 332 OFFCURVE",
"207 374 OFFCURVE",
"301 374 CURVE SMOOTH"
);
}
);
width = 1143;
}
);
leftKerningGroup = knLLLA;
leftMetricsKey = knLLLA.base;
rightKerningGroup = knLLLA;
rightMetricsKey = knCHA.base;
unicode = 0C9F;
},
{
glyphname = knDDHA;
lastChange = "2015-11-25 06:27:54 +0000";
layers = (
{
background = {
paths = (
{
closed = 1;
nodes = (
"233 -9 CURVE SMOOTH",
"307 -9 OFFCURVE",
"365 37 OFFCURVE",
"374 104 CURVE",
"382 40 OFFCURVE",
"444 -9 OFFCURVE",
"534 -9 CURVE SMOOTH",
"644 -9 OFFCURVE",
"719 81 OFFCURVE",
"719 210 CURVE SMOOTH",
"719 395 OFFCURVE",
"594 536 OFFCURVE",
"368 536 CURVE SMOOTH",
"180 536 OFFCURVE",
"38 394 OFFCURVE",
"38 209 CURVE SMOOTH",
"38 81 OFFCURVE",
"110 -9 OFFCURVE"
);
},
{
closed = 1;
nodes = (
"330 -186 LINE",
"417 -186 LINE",
"417 -172 LINE",
"387 4 LINE",
"360 4 LINE",
"330 -172 LINE"
);
},
{
closed = 1;
nodes = (
"233 43 CURVE SMOOTH",
"149 43 OFFCURVE",
"100 114 OFFCURVE",
"100 210 CURVE SMOOTH",
"100 365 OFFCURVE",
"223 492 OFFCURVE",
"378 492 CURVE SMOOTH",
"459 492 OFFCURVE",
"505 474 OFFCURVE",
"552 444 CURVE",
"540 464 LINE",
"454 463 OFFCURVE",
"404 403 OFFCURVE",
"404 338 CURVE SMOOTH",
"404 269 OFFCURVE",
"456 216 OFFCURVE",
"532 216 CURVE SMOOTH",
"612 216 OFFCURVE",
"661 275 OFFCURVE",
"662 344 CURVE",
"616 363 LINE",
"649 316 OFFCURVE",
"662 270 OFFCURVE",
"662 211 CURVE SMOOTH",
"662 110 OFFCURVE",
"610 43 OFFCURVE",
"534 43 CURVE SMOOTH",
"457 43 OFFCURVE",
"405 95 OFFCURVE",
"405 168 CURVE SMOOTH",
"405 199 LINE",
"343 199 LINE",
"343 168 LINE SMOOTH",
"343 95 OFFCURVE",
"296 43 OFFCURVE"
);
},
{
closed = 1;
nodes = (
"539 267 CURVE SMOOTH",
"492 267 OFFCURVE",
"462 298 OFFCURVE",
"462 341 CURVE SMOOTH",
"462 384 OFFCURVE",
"494 418 OFFCURVE",
"539 418 CURVE SMOOTH",
"583 418 OFFCURVE",
"614 384 OFFCURVE",
"614 341 CURVE SMOOTH",
"614 300 OFFCURVE",
"583 267 OFFCURVE"
);
},
{
closed = 1;
nodes = (
"44 492 LINE",
"612 492 LINE SMOOTH",
"685 492 OFFCURVE",
"719 523 OFFCURVE",
"719 577 CURVE SMOOTH",
"719 590 OFFCURVE",
"717 602 OFFCURVE",
"713 615 CURVE",
"654 615 LINE",
"656 606 OFFCURVE",
"658 598 OFFCURVE",
"658 591 CURVE SMOOTH",
"658 560 OFFCURVE",
"636 546 OFFCURVE",
"595 546 CURVE SMOOTH",
"44 546 LINE"
);
}
);
};
components = (
{
name = knDDA.base;
},
{
name = _part.headline;
transform = "{1, 0, 0, 1, 584, 0}";
},
{
name = _part.teardrop;
transform = "{1, 0, 0, 1, 424, 0}";
}
);
layerId = "034236B8-3FA8-43DA-9EDA-EFF269A687EC";
name = Light;
width = 1096;
}
);
leftKerningGroup = knDA;
leftMetricsKey = knDA.base;
rightKerningGroup = knDA;
unicode = 0CA2;
},
{
glyphname = knTHA;
lastChange = "2015-11-25 06:27:54 +0000";
layers = (
{
background = {
paths = (
{
closed = 1;
nodes = (
"218 -9 CURVE SMOOTH",
"302 -9 OFFCURVE",
"345 34 OFFCURVE",
"355 104 CURVE",
"364 34 OFFCURVE",
"408 -9 OFFCURVE",
"490 -9 CURVE SMOOTH",
"599 -9 OFFCURVE",
"671 82 OFFCURVE",
"671 216 CURVE SMOOTH",
"671 411 OFFCURVE",
"542 540 OFFCURVE",
"355 540 CURVE SMOOTH",
"168 540 OFFCURVE",
"38 411 OFFCURVE",
"38 216 CURVE SMOOTH",
"38 82 OFFCURVE",
"111 -9 OFFCURVE"
);
},
{
closed = 1;
nodes = (
"312 -186 LINE",
"398 -186 LINE",
"398 -172 LINE",
"369 4 LINE",
"342 4 LINE",
"312 -172 LINE"
);
},
{
closed = 1;
nodes = (
"222 43 CURVE SMOOTH",
"149 43 OFFCURVE",
"100 114 OFFCURVE",
"100 217 CURVE SMOOTH",
"100 380 OFFCURVE",
"204 492 OFFCURVE",
"354 492 CURVE SMOOTH",
"504 492 OFFCURVE",
"609 380 OFFCURVE",
"609 217 CURVE SMOOTH",
"609 114 OFFCURVE",
"561 43 OFFCURVE",
"489 43 CURVE SMOOTH",
"419 43 OFFCURVE",
"385 100 OFFCURVE",
"385 174 CURVE SMOOTH",
"385 209 LINE",
"323 209 LINE",
"323 174 LINE SMOOTH",
"323 100 OFFCURVE",
"289 43 OFFCURVE"
);
},
{
closed = 1;
nodes = (
"355 301 CURVE SMOOTH",
"381 301 OFFCURVE",
"402 322 OFFCURVE",
"402 349 CURVE SMOOTH",
"402 376 OFFCURVE",
"381 397 OFFCURVE",
"355 397 CURVE SMOOTH",
"327 397 OFFCURVE",
"306 376 OFFCURVE",
"306 349 CURVE SMOOTH",
"306 322 OFFCURVE",
"327 301 OFFCURVE"
);
},
{
closed = 1;
nodes = (
"44 492 LINE",
"564 492 LINE SMOOTH",
"637 492 OFFCURVE",
"671 523 OFFCURVE",
"671 577 CURVE SMOOTH",
"671 590 OFFCURVE",
"669 602 OFFCURVE",
"665 615 CURVE",
"607 615 LINE",
"609 606 OFFCURVE",
"610 598 OFFCURVE",
"610 591 CURVE SMOOTH",
"610 560 OFFCURVE",
"589 546 OFFCURVE",
"548 546 CURVE SMOOTH",
"44 546 LINE"
);
}
);
};
components = (
{
name = knTHA.base;
},
{
name = _part.headline;
transform = "{1, 0, 0, 1, 585, 0}";
piece = {
Width = 288;
};
}
);
layerId = "034236B8-3FA8-43DA-9EDA-EFF269A687EC";
name = Light;
width = 1098;
}
);
leftKerningGroup = knDA;
rightKerningGroup = knDA;
unicode = 0CA5;
},
{
glyphname = knDA;
lastChange = "2015-11-25 06:27:54 +0000";
layers = (
{
background = {
anchors = (
{
name = dot;
position = "{550, 261}";
},
{
name = headline;
position = "{1005, 383}";
},
{
name = knmU;
position = "{995, -21}";
},
{
name = teardrop;
position = "{550, 0}";
},
{
name = virama;
position = "{1005, 383}";
}
);
paths = (
{
closed = 1;
nodes = (
"417 -21 OFFCURVE",
"501 19 OFFCURVE",
"549 113 CURVE",
"597 19 OFFCURVE",
"681 -21 OFFCURVE",
"802 -21 CURVE SMOOTH",
"911 -21 OFFCURVE",
"1004 28 OFFCURVE",
"1004 149 CURVE SMOOTH",
"1004 351 OFFCURVE",
"767 399 OFFCURVE",
"630 402 CURVE",
"630 383 LINE",
"757 383 OFFCURVE",
"982 329 OFFCURVE",
"982 153 CURVE SMOOTH",
"982 52 OFFCURVE",
"903 4 OFFCURVE",
"797 4 CURVE SMOOTH",
"671 4 OFFCURVE",
"604 53 OFFCURVE",
"561 140 CURVE",
"537 140 LINE",
"494 53 OFFCURVE",
"427 4 OFFCURVE",
"301 4 CURVE SMOOTH",
"195 4 OFFCURVE",
"116 52 OFFCURVE",
"116 153 CURVE SMOOTH",
"116 329 OFFCURVE",
"341 383 OFFCURVE",
"468 383 CURVE",
"468 402 LINE",
"331 399 OFFCURVE",
"94 351 OFFCURVE",
"94 149 CURVE SMOOTH",
"94 28 OFFCURVE",
"187 -21 OFFCURVE",
"296 -21 CURVE SMOOTH"
);
},
{
closed = 1;
nodes = (
"798 383 LINE",
"798 405 LINE",
"82 405 LINE",
"82 383 LINE"
);
}
);
};
components = (
{
name = knDA.base;
},
{
name = _part.headline;
transform = "{1, 0, 0, 1, 585, 0}";
piece = {
Width = 300;
};
}
);
layerId = "034236B8-3FA8-43DA-9EDA-EFF269A687EC";
name = Light;
width = 1098;
}
);
leftKerningGroup = knDA;
rightKerningGroup = knDA;
unicode = 0CA6;
},
{
glyphname = knDHA;
lastChange = "2015-11-25 06:27:54 +0000";
layers = (
{
background = {
paths = (
{
closed = 1;
nodes = (
"218 -9 CURVE SMOOTH",
"302 -9 OFFCURVE",
"345 34 OFFCURVE",
"355 104 CURVE",
"364 34 OFFCURVE",
"408 -9 OFFCURVE",
"490 -9 CURVE SMOOTH",
"599 -9 OFFCURVE",
"671 82 OFFCURVE",
"671 216 CURVE SMOOTH",
"671 411 OFFCURVE",
"542 540 OFFCURVE",
"355 540 CURVE SMOOTH",
"168 540 OFFCURVE",
"38 411 OFFCURVE",
"38 216 CURVE SMOOTH",
"38 82 OFFCURVE",
"111 -9 OFFCURVE"
);
},
{
closed = 1;
nodes = (
"312 -186 LINE",
"398 -186 LINE",
"398 -172 LINE",
"369 4 LINE",
"342 4 LINE",
"312 -172 LINE"
);
},
{
closed = 1;
nodes = (
"222 43 CURVE SMOOTH",
"149 43 OFFCURVE",
"100 114 OFFCURVE",
"100 217 CURVE SMOOTH",
"100 380 OFFCURVE",
"204 492 OFFCURVE",
"354 492 CURVE SMOOTH",
"504 492 OFFCURVE",
"609 380 OFFCURVE",
"609 217 CURVE SMOOTH",
"609 114 OFFCURVE",
"561 43 OFFCURVE",
"489 43 CURVE SMOOTH",
"419 43 OFFCURVE",
"385 100 OFFCURVE",
"385 174 CURVE SMOOTH",
"385 209 LINE",
"323 209 LINE",
"323 174 LINE SMOOTH",
"323 100 OFFCURVE",
"289 43 OFFCURVE"
);
},
{
closed = 1;
nodes = (
"44 492 LINE",
"564 492 LINE SMOOTH",
"637 492 OFFCURVE",
"671 523 OFFCURVE",
"671 577 CURVE SMOOTH",
"671 590 OFFCURVE",
"669 602 OFFCURVE",
"665 615 CURVE",
"607 615 LINE",
"609 606 OFFCURVE",
"610 598 OFFCURVE",
"610 591 CURVE SMOOTH",
"610 560 OFFCURVE",
"589 546 OFFCURVE",
"548 546 CURVE SMOOTH",
"44 546 LINE"
);
}
);
};
components = (
{
name = knDHA.base;
},
{
name = _part.headline;
transform = "{1, 0, 0, 1, 585, 0}";
piece = {
Width = 288;
};
}
);
layerId = "034236B8-3FA8-43DA-9EDA-EFF269A687EC";
name = Light;
width = 1098;
}
);
leftKerningGroup = knDA;
rightKerningGroup = knDA;
unicode = 0CA7;
},
{
glyphname = knPHA;
lastChange = "2015-11-25 06:27:54 +0000";
layers = (
{
background = {
paths = (
{
closed = 1;
nodes = (
"410 353 LINE SMOOTH",
"475 353 OFFCURVE",
"511 377 OFFCURVE",
"511 423 CURVE SMOOTH",
"511 445 OFFCURVE",
"503 463 OFFCURVE",
"494 474 CURVE",
"477 465 LINE",
"484 453 OFFCURVE",
"487 439 OFFCURVE",
"487 427 CURVE SMOOTH",
"487 392 OFFCURVE",
"462 377 OFFCURVE",
"408 377 CURVE SMOOTH",
"2 377 LINE",
"2 353 LINE"
);
},
{
closed = 1;
nodes = (
"174 148 LINE",
"159 158 OFFCURVE",
"138 163 OFFCURVE",
"117 163 CURVE SMOOTH",
"68 163 OFFCURVE",
"36 134 OFFCURVE",
"36 84 CURVE SMOOTH",
"36 31 OFFCURVE",
"72 4 OFFCURVE",
"129 4 CURVE SMOOTH",
"194 4 OFFCURVE",
"231 38 OFFCURVE",
"238 101 CURVE",
"262 101 LINE",
"272 36 OFFCURVE",
"306 4 OFFCURVE",
"365 4 CURVE SMOOTH",
"426 4 OFFCURVE",
"476 39 OFFCURVE",
"476 122 CURVE SMOOTH",
"476 197 OFFCURVE",
"436 233 OFFCURVE",
"389 260 CURVE",
"399 277 LINE",
"464 243 OFFCURVE",
"500 201 OFFCURVE",
"500 124 CURVE SMOOTH",
"500 23 OFFCURVE",
"439 -21 OFFCURVE",
"367 -21 CURVE SMOOTH",
"315 -21 OFFCURVE",
"262 1 OFFCURVE",
"250 76 CURVE",
"242 14 OFFCURVE",
"202 -21 OFFCURVE",
"130 -21 CURVE SMOOTH",
"57 -21 OFFCURVE",
"12 15 OFFCURVE",
"12 82 CURVE SMOOTH",
"12 148 OFFCURVE",
"56 185 OFFCURVE",
"116 185 CURVE SMOOTH",
"142 185 OFFCURVE",
"166 178 OFFCURVE",
"184 163 CURVE"
);
},
{
closed = 1;
nodes = (
"218 219 OFFCURVE",
"232 204 OFFCURVE",
"253 204 CURVE SMOOTH",
"274 204 OFFCURVE",
"288 219 OFFCURVE",
"288 238 CURVE SMOOTH",
"288 257 OFFCURVE",
"274 272 OFFCURVE",
"253 272 CURVE SMOOTH",
"232 272 OFFCURVE",
"218 257 OFFCURVE",
"218 238 CURVE SMOOTH"
);
}
);
};
components = (
{
name = knPHA.base;
},
{
name = _part.headline;
transform = "{1, 0, 0, 1, 494, 0}";
piece = {
Width = 280.312;
};
}
);
guideLines = (
{
angle = 90;
position = "{896, 124}";
}
);
layerId = "034236B8-3FA8-43DA-9EDA-EFF269A687EC";
name = Light;
width = 1004;
}
);
leftKerningGroup = knPA;
rightKerningGroup = knPA;
unicode = 0CAB;
},
{
glyphname = knBHA;
lastChange = "2015-11-25 06:27:54 +0000";
layers = (
{
background = {
paths = (
{
closed = 1;
nodes = (
"881 383 LINE SMOOTH",
"950 383 OFFCURVE",
"988 418 OFFCURVE",
"988 471 CURVE SMOOTH",
"988 504 OFFCURVE",
"976 531 OFFCURVE",
"960 555 CURVE",
"940 545 LINE",
"957 522 OFFCURVE",
"966 501 OFFCURVE",
"966 472 CURVE SMOOTH",
"966 437 OFFCURVE",
"941 405 OFFCURVE",
"883 405 CURVE SMOOTH",
"770 405 LINE",
"54 405 LINE",
"54 383 LINE",
"294 383 LINE",
"179 354 OFFCURVE",
"66 288 OFFCURVE",
"66 149 CURVE SMOOTH",
"66 28 OFFCURVE",
"159 -21 OFFCURVE",
"268 -21 CURVE SMOOTH",
"389 -21 OFFCURVE",
"473 19 OFFCURVE",
"521 113 CURVE",
"569 19 OFFCURVE",
"653 -21 OFFCURVE",
"774 -21 CURVE SMOOTH",
"883 -21 OFFCURVE",
"976 28 OFFCURVE",
"976 149 CURVE SMOOTH",
"976 288 OFFCURVE",
"863 354 OFFCURVE",
"748 383 CURVE"
);
},
{
closed = 1;
nodes = (
"643 4 OFFCURVE",
"576 53 OFFCURVE",
"533 140 CURVE",
"509 140 LINE",
"466 53 OFFCURVE",
"399 4 OFFCURVE",
"273 4 CURVE SMOOTH",
"167 4 OFFCURVE",
"88 52 OFFCURVE",
"88 153 CURVE SMOOTH",
"88 329 OFFCURVE",
"313 383 OFFCURVE",
"440 383 CURVE SMOOTH",
"602 383 LINE SMOOTH",
"729 383 OFFCURVE",
"954 329 OFFCURVE",
"954 153 CURVE SMOOTH",
"954 52 OFFCURVE",
"875 4 OFFCURVE",
"769 4 CURVE SMOOTH"
);
}
);
};
components = (
{
name = knBHA.base;
},
{
name = _part.headline;
transform = "{1, 0, 0, 1, 559, 0}";
piece = {
Width = 361;
};
}
);
layerId = "034236B8-3FA8-43DA-9EDA-EFF269A687EC";
name = Light;
width = 1064;
}
);
leftKerningGroup = knBA;
rightKerningGroup = knBA;
unicode = 0CAD;
},
{
glyphname = knMA;
lastChange = "2015-11-25 06:27:54 +0000";
layers = (
{
anchors = (
{
name = headline;
position = "{1347, 383}";
},
{
name = knmU;
position = "{1332, -21}";
}
);
background = {
paths = (
{
closed = 1;
nodes = (
"212 -9 CURVE SMOOTH",
"287 -9 OFFCURVE",
"340 30 OFFCURVE",
"352 99 CURVE",
"362 30 OFFCURVE",
"418 -9 OFFCURVE",
"493 -9 CURVE SMOOTH",
"599 -9 OFFCURVE",
"668 75 OFFCURVE",
"668 217 CURVE SMOOTH",
"668 373 OFFCURVE",
"560 520 OFFCURVE",
"357 520 CURVE SMOOTH",
"345 520 OFFCURVE",
"337 519 OFFCURVE",
"324 516 CURVE",
"314 492 LINE",
"507 492 OFFCURVE",
"605 353 OFFCURVE",
"605 218 CURVE SMOOTH",
"605 107 OFFCURVE",
"563 43 OFFCURVE",
"493 43 CURVE SMOOTH",
"424 43 OFFCURVE",
"382 96 OFFCURVE",
"382 165 CURVE",
"382 209 LINE",
"320 209 LINE",
"320 165 LINE SMOOTH",
"320 94 OFFCURVE",
"275 43 OFFCURVE",
"212 43 CURVE SMOOTH",
"139 43 OFFCURVE",
"99 93 OFFCURVE",
"99 157 CURVE SMOOTH",
"99 230 OFFCURVE",
"149 272 OFFCURVE",
"213 272 CURVE SMOOTH",
"222 272 OFFCURVE",
"232 271 OFFCURVE",
"242 269 CURVE",
"242 326 LINE",
"232 328 OFFCURVE",
"219 329 OFFCURVE",
"210 329 CURVE SMOOTH",
"112 329 OFFCURVE",
"38 260 OFFCURVE",
"38 156 CURVE SMOOTH",
"38 60 OFFCURVE",
"104 -9 OFFCURVE"
);
},
{
closed = 1;
nodes = (
"56 492 LINE",
"531 492 LINE SMOOTH",
"605 492 OFFCURVE",
"638 523 OFFCURVE",
"638 577 CURVE SMOOTH",
"638 590 OFFCURVE",
"636 602 OFFCURVE",
"633 615 CURVE",
"574 615 LINE",
"576 606 OFFCURVE",
"577 598 OFFCURVE",
"577 591 CURVE SMOOTH",
"577 560 OFFCURVE",
"556 546 OFFCURVE",
"515 546 CURVE SMOOTH",
"56 546 LINE"
);
},
{
closed = 1;
nodes = (
"623 217 LINE",
"623 83 OFFCURVE",
"686 -10 OFFCURVE",
"806 -10 CURVE SMOOTH",
"951 -10 OFFCURVE",
"1009 102 OFFCURVE",
"1009 257 CURVE SMOOTH",
"1009 409 OFFCURVE",
"911 546 OFFCURVE",
"744 546 CURVE",
"744 491 LINE",
"863 491 OFFCURVE",
"947 389 OFFCURVE",
"947 255 CURVE SMOOTH",
"947 130 OFFCURVE",
"907 42 OFFCURVE",
"802 42 CURVE SMOOTH",
"722 42 OFFCURVE",
"668 109 OFFCURVE",
"667 218 CURVE"
);
}
);
};
components = (
{
disableAlignment = 1;
name = knVA;
},
{
name = _part.knmU;
transform = "{1, 0, 0, 1, 1031, 0}";
piece = {
"Terminal Height" = 170;
};
}
);
guideLines = (
{
angle = 90;
position = "{1347, 182}";
}
);
layerId = "034236B8-3FA8-43DA-9EDA-EFF269A687EC";
name = Light;
width = 1430;
}
);
leftKerningGroup = knPA;
leftMetricsKey = knPA.base;
rightKerningGroup = knmU;
rightMetricsKey = _part.knmU;
unicode = 0CAE;
},
{
glyphname = knLA;
lastChange = "2015-12-07 21:32:06 +0000";
layers = (
{
background = {
paths = (
{
closed = 1;
nodes = (
"385 393 OFFCURVE",
"434 371 OFFCURVE",
"434 323 CURVE SMOOTH",
"434 268 OFFCURVE",
"373 252 OFFCURVE",
"304 252 CURVE SMOOTH",
"240 252 OFFCURVE",
"165 266 OFFCURVE",
"114 302 CURVE",
"102 286 LINE",
"165 242 OFFCURVE",
"241 227 OFFCURVE",
"302 227 CURVE SMOOTH",
"394 227 OFFCURVE",
"458 261 OFFCURVE",
"458 323 CURVE SMOOTH",
"458 386 OFFCURVE",
"394 417 OFFCURVE",
"310 417 CURVE SMOOTH",
"168 417 OFFCURVE",
"78 328 OFFCURVE",
"78 220 CURVE SMOOTH",
"78 60 OFFCURVE",
"274 -21 OFFCURVE",
"529 -21 CURVE SMOOTH",
"791 -21 OFFCURVE",
"954 64 OFFCURVE",
"954 202 CURVE SMOOTH",
"954 314 OFFCURVE",
"847 387 OFFCURVE",
"706 405 CURVE",
"698 384 LINE",
"830 367 OFFCURVE",
"931 306 OFFCURVE",
"931 205 CURVE SMOOTH",
"931 80 OFFCURVE",
"777 4 OFFCURVE",
"529 4 CURVE SMOOTH",
"279 4 OFFCURVE",
"100 81 OFFCURVE",
"100 222 CURVE SMOOTH",
"100 304 OFFCURVE",
"163 393 OFFCURVE",
"312 393 CURVE SMOOTH"
);
}
);
};
components = (
{
name = knLA.base;
}
);
layerId = "034236B8-3FA8-43DA-9EDA-EFF269A687EC";
name = Light;
width = 1026;
}
);
leftKerningGroup = knLA;
rightKerningGroup = knLA;
unicode = 0CB2;
},
{
glyphname = knSSA;
lastChange = "2015-11-25 06:27:54 +0000";
layers = (
{
background = {
paths = (
{
closed = 1;
nodes = (
"903 -28 LINE",
"918 -9 LINE",
"597.755 236.681 LINE",
"584.245 219.319 LINE"
);
},
{
closed = 1;
nodes = (
"917 -30 OFFCURVE",
"922 -25 OFFCURVE",
"922 -18 CURVE SMOOTH",
"922 -11 OFFCURVE",
"917 -6 OFFCURVE",
"910 -6 CURVE SMOOTH",
"903 -6 OFFCURVE",
"898 -11 OFFCURVE",
"898 -18 CURVE SMOOTH",
"898 -25 OFFCURVE",
"903 -30 OFFCURVE",
"910 -30 CURVE SMOOTH"
);
}
);
};
components = (
{
name = knSSA.base;
},
{
name = _part.headline;
transform = "{1, 0, 0, 1, 494, 0}";
piece = {
Width = 280.312;
};
}
);
layerId = "034236B8-3FA8-43DA-9EDA-EFF269A687EC";
name = Light;
width = 1004;
}
);
leftKerningGroup = knPA;
rightKerningGroup = knPA;
unicode = 0CB7;
},
{
glyphname = knRRA;
lastChange = "2015-11-25 06:27:54 +0000";
layers = (
{
background = {
paths = (
{
closed = 1;
nodes = (
"253 -9 CURVE SMOOTH",
"331 -9 OFFCURVE",
"387 30 OFFCURVE",
"399 99 CURVE",
"410 30 OFFCURVE",
"466 -9 OFFCURVE",
"544 -9 CURVE SMOOTH",
"693 -9 OFFCURVE",
"750 114 OFFCURVE",
"750 280 CURVE SMOOTH",
"750 418 OFFCURVE",
"690 556 OFFCURVE",
"563 556 CURVE SMOOTH",
"481 556 OFFCURVE",
"424 492 OFFCURVE",
"424 418 CURVE SMOOTH",
"424 341 OFFCURVE",
"482 277 OFFCURVE",
"562 277 CURVE SMOOTH",
"640 277 OFFCURVE",
"693 333 OFFCURVE",
"693 415 CURVE",
"673 414 LINE",
"682 372 OFFCURVE",
"691 314 OFFCURVE",
"691 277 CURVE SMOOTH",
"691 148 OFFCURVE",
"649 43 OFFCURVE",
"544 43 CURVE SMOOTH",
"475 43 OFFCURVE",
"429 92 OFFCURVE",
"429 165 CURVE",
"429 201 LINE",
"367 201 LINE",
"367 165 LINE",
"367 92 OFFCURVE",
"322 43 OFFCURVE",
"253 43 CURVE SMOOTH",
"148 43 OFFCURVE",
"106 148 OFFCURVE",
"106 277 CURVE SMOOTH",
"106 314 OFFCURVE",
"115 372 OFFCURVE",
"124 414 CURVE",
"104 415 LINE",
"104 333 OFFCURVE",
"157 277 OFFCURVE",
"234 277 CURVE SMOOTH",
"315 277 OFFCURVE",
"372 341 OFFCURVE",
"372 418 CURVE SMOOTH",
"372 492 OFFCURVE",
"316 556 OFFCURVE",
"234 556 CURVE SMOOTH",
"107 556 OFFCURVE",
"47 418 OFFCURVE",
"47 280 CURVE SMOOTH",
"47 114 OFFCURVE",
"104 -9 OFFCURVE"
);
},
{
closed = 1;
nodes = (
"232 329 CURVE SMOOTH",
"177 329 OFFCURVE",
"145 368 OFFCURVE",
"145 413 CURVE SMOOTH",
"145 462 OFFCURVE",
"182 503 OFFCURVE",
"229 503 CURVE SMOOTH",
"279 503 OFFCURVE",
"311 465 OFFCURVE",
"311 417 CURVE SMOOTH",
"311 370 OFFCURVE",
"281 329 OFFCURVE"
);
},
{
closed = 1;
nodes = (
"565 329 CURVE SMOOTH",
"516 329 OFFCURVE",
"487 370 OFFCURVE",
"487 417 CURVE SMOOTH",
"487 465 OFFCURVE",
"518 503 OFFCURVE",
"568 503 CURVE SMOOTH",
"615 503 OFFCURVE",
"653 462 OFFCURVE",
"653 413 CURVE SMOOTH",
"653 368 OFFCURVE",
"620 329 OFFCURVE"
);
}
);
};
components = (
{
name = knRRA.base;
}
);
layerId = "034236B8-3FA8-43DA-9EDA-EFF269A687EC";
name = Light;
width = 1148;
}
);
leftKerningGroup = knLLLA;
rightKerningGroup = knLLLA;
unicode = 0CB1;
},
{
glyphname = knLLLA;
lastChange = "2015-11-25 06:27:54 +0000";
layers = (
{
background = {
paths = (
{
closed = 1;
nodes = (
"626 19 OFFCURVE",
"710 -21 OFFCURVE",
"836 -21 CURVE SMOOTH",
"974 -21 OFFCURVE",
"1082 59 OFFCURVE",
"1082 202 CURVE SMOOTH",
"1082 327 OFFCURVE",
"996 417 OFFCURVE",
"860 417 CURVE SMOOTH",
"782 417 OFFCURVE",
"722 386 OFFCURVE",
"722 323 CURVE SMOOTH",
"722 261 OFFCURVE",
"782 227 OFFCURVE",
"868 227 CURVE SMOOTH",
"926 227 OFFCURVE",
"998 242 OFFCURVE",
"1058 286 CURVE",
"1046 302 LINE",
"998 266 OFFCURVE",
"927 252 OFFCURVE",
"865 252 CURVE SMOOTH",
"802 252 OFFCURVE",
"746 268 OFFCURVE",
"746 323 CURVE SMOOTH",
"746 371 OFFCURVE",
"791 393 OFFCURVE",
"858 393 CURVE SMOOTH",
"1000 393 OFFCURVE",
"1058 301 OFFCURVE",
"1058 204 CURVE SMOOTH",
"1058 78 OFFCURVE",
"964 4 OFFCURVE",
"835 4 CURVE SMOOTH",
"699 4 OFFCURVE",
"634 53 OFFCURVE",
"598 140 CURVE",
"574 140 LINE",
"538 53 OFFCURVE",
"473 4 OFFCURVE",
"337 4 CURVE SMOOTH",
"208 4 OFFCURVE",
"114 78 OFFCURVE",
"114 204 CURVE SMOOTH",
"114 301 OFFCURVE",
"172 393 OFFCURVE",
"314 393 CURVE SMOOTH",
"381 393 OFFCURVE",
"426 371 OFFCURVE",
"426 323 CURVE SMOOTH",
"426 268 OFFCURVE",
"370 252 OFFCURVE",
"307 252 CURVE SMOOTH",
"245 252 OFFCURVE",
"174 266 OFFCURVE",
"126 302 CURVE",
"114 286 LINE",
"174 242 OFFCURVE",
"246 227 OFFCURVE",
"304 227 CURVE SMOOTH",
"390 227 OFFCURVE",
"450 261 OFFCURVE",
"450 323 CURVE SMOOTH",
"450 386 OFFCURVE",
"390 417 OFFCURVE",
"312 417 CURVE SMOOTH",
"176 417 OFFCURVE",
"90 327 OFFCURVE",
"90 202 CURVE SMOOTH",
"90 59 OFFCURVE",
"198 -21 OFFCURVE",
"336 -21 CURVE SMOOTH",
"462 -21 OFFCURVE",
"546 19 OFFCURVE",
"586 113 CURVE"
);
}
);
};
components = (
{
name = knLLLA.base;
}
);
layerId = "034236B8-3FA8-43DA-9EDA-EFF269A687EC";
name = Light;
width = 1148;
}
);
leftKerningGroup = knLLLA;
rightKerningGroup = knLLLA;
unicode = 0CDE;
},
{
glyphname = knCandrabindu;
lastChange = "2015-11-25 17:40:59 +0000";
layers = (
{
background = {
paths = (
{
closed = 1;
nodes = (
"148 603 LINE",
"135 527 OFFCURVE",
"85 480 OFFCURVE",
"0 480 CURVE SMOOTH",
"-85 480 OFFCURVE",
"-135 527 OFFCURVE",
"-148 603 CURVE",
"-170 601 LINE",
"-157 520 OFFCURVE",
"-104 455 OFFCURVE",
"0 455 CURVE SMOOTH",
"104 455 OFFCURVE",
"157 520 OFFCURVE",
"170 601 CURVE"
);
}
);
};
components = (
{
name = _part.dot;
transform = "{1, 0, 0, 1, -125, 492}";
}
);
guideLines = (
{
position = "{148, 728}";
}
);
hints = (
{
horizontal = 1;
origin = "{0, 10}";
target = "{0, 3}";
type = TTStem;
},
{
horizontal = 1;
origin = "{0, 6}";
target = "{0, 0}";
type = Align;
}
);
layerId = "034236B8-3FA8-43DA-9EDA-EFF269A687EC";
name = Light;
paths = (
{
closed = 1;
nodes = (
"148 728 LINE",
"133 657 OFFCURVE",
"88 615 OFFCURVE",
"0 615 CURVE SMOOTH",
"-88 615 OFFCURVE",
"-133 657 OFFCURVE",
"-148 728 CURVE",
"-169 722 LINE",
"-155 649 OFFCURVE",
"-108 590 OFFCURVE",
"0 590 CURVE SMOOTH",
"108 590 OFFCURVE",
"155 649 OFFCURVE",
"169 722 CURVE"
);
}
);
width = 0;
}
);
unicode = 0C81;
category = Mark;
subCategory = Spacing;
},
{
glyphname = knVisarga;
lastChange = "2015-11-25 06:27:54 +0000";
layers = (
{
background = {
paths = (
{
closed = 0;
nodes = (
"204 157 LINE",
"125 157 OFFCURVE",
"60 128 OFFCURVE",
"60 69 CURVE SMOOTH",
"60 9 OFFCURVE",
"121 -21 OFFCURVE",
"204 -21 CURVE"
);
},
{
closed = 1;
nodes = (
"287 239 OFFCURVE",
"348 269 OFFCURVE",
"348 329 CURVE SMOOTH",
"348 388 OFFCURVE",
"283 417 OFFCURVE",
"204 417 CURVE SMOOTH",
"125 417 OFFCURVE",
"60 388 OFFCURVE",
"60 329 CURVE SMOOTH",
"60 269 OFFCURVE",
"121 239 OFFCURVE",
"204 239 CURVE SMOOTH"
);
},
{
closed = 1;
nodes = (
"132 263 OFFCURVE",
"85 289 OFFCURVE",
"85 328 CURVE SMOOTH",
"85 368 OFFCURVE",
"129 395 OFFCURVE",
"204 395 CURVE SMOOTH",
"279 395 OFFCURVE",
"323 368 OFFCURVE",
"323 328 CURVE SMOOTH",
"323 289 OFFCURVE",
"276 263 OFFCURVE",
"204 263 CURVE SMOOTH"
);
},
{
closed = 0;
nodes = (
"204 3 LINE",
"131 3 OFFCURVE",
"83 29 OFFCURVE",
"83 68 CURVE SMOOTH",
"83 109 OFFCURVE",
"128 136 OFFCURVE",
"204 136 CURVE"
);
}
);
};
hints = (
{
horizontal = 1;
origin = "{0, 11}";
target = "{1, 11}";
type = TTStem;
},
{
horizontal = 1;
origin = "{1, 5}";
target = "{0, 5}";
type = TTStem;
},
{
horizontal = 1;
origin = "{2, 11}";
target = "{3, 11}";
type = TTStem;
},
{
horizontal = 1;
origin = "{2, 5}";
target = "{3, 5}";
type = TTStem;
}
);
layerId = "034236B8-3FA8-43DA-9EDA-EFF269A687EC";
name = Light;
paths = (
{
closed = 1;
nodes = (
"288 -21 OFFCURVE",
"348 10 OFFCURVE",
"348 68 CURVE SMOOTH",
"348 129 OFFCURVE",
"282 157 OFFCURVE",
"204 157 CURVE SMOOTH",
"126 157 OFFCURVE",
"60 129 OFFCURVE",
"60 68 CURVE SMOOTH",
"60 10 OFFCURVE",
"120 -21 OFFCURVE",
"204 -21 CURVE SMOOTH"
);
},
{
closed = 1;
nodes = (
"132 3 OFFCURVE",
"83 27 OFFCURVE",
"83 69 CURVE SMOOTH",
"83 109 OFFCURVE",
"127 136 OFFCURVE",
"204 136 CURVE SMOOTH",
"281 136 OFFCURVE",
"325 109 OFFCURVE",
"325 69 CURVE SMOOTH",
"325 27 OFFCURVE",
"276 3 OFFCURVE",
"204 3 CURVE SMOOTH"
);
},
{
closed = 1;
nodes = (
"288 239 OFFCURVE",
"348 270 OFFCURVE",
"348 328 CURVE SMOOTH",
"348 389 OFFCURVE",
"282 417 OFFCURVE",
"204 417 CURVE SMOOTH",
"126 417 OFFCURVE",
"60 389 OFFCURVE",
"60 328 CURVE SMOOTH",
"60 270 OFFCURVE",
"120 239 OFFCURVE",
"204 239 CURVE SMOOTH"
);
},
{
closed = 1;
nodes = (
"132 263 OFFCURVE",
"83 287 OFFCURVE",
"83 329 CURVE SMOOTH",
"83 369 OFFCURVE",
"127 396 OFFCURVE",
"204 396 CURVE SMOOTH",
"281 396 OFFCURVE",
"325 369 OFFCURVE",
"325 329 CURVE SMOOTH",
"325 287 OFFCURVE",
"276 263 OFFCURVE",
"204 263 CURVE SMOOTH"
);
}
);
width = 408;
}
);
unicode = 0C83;
category = Mark;
subCategory = Spacing;
},
{
glyphname = knVirama;
lastChange = "2015-11-25 06:27:54 +0000";
layers = (
{
background = {
paths = (
{
closed = 1;
nodes = (
"62 439 OFFCURVE",
"120 521 OFFCURVE",
"229 521 CURVE SMOOTH",
"284 521 OFFCURVE",
"326 500 OFFCURVE",
"353 470 CURVE",
"369 485 LINE",
"332 524 OFFCURVE",
"280 541 OFFCURVE",
"228 541 CURVE SMOOTH",
"107 541 OFFCURVE",
"38 450 OFFCURVE",
"38 328 CURVE SMOOTH",
"38 214 OFFCURVE",
"99 133 OFFCURVE",
"215 133 CURVE SMOOTH",
"305 133 OFFCURVE",
"354 182 OFFCURVE",
"354 257 CURVE SMOOTH",
"354 335 OFFCURVE",
"305 377 OFFCURVE",
"157 377 CURVE SMOOTH",
"-114 377 LINE",
"-114 353 LINE",
"159 353 LINE SMOOTH",
"294 353 OFFCURVE",
"330 319 OFFCURVE",
"330 257 CURVE SMOOTH",
"330 198 OFFCURVE",
"294 158 OFFCURVE",
"216 158 CURVE SMOOTH",
"115 158 OFFCURVE",
"62 225 OFFCURVE",
"62 330 CURVE SMOOTH"
);
}
);
};
components = (
{
name = _part.knVirama;
}
);
layerId = "034236B8-3FA8-43DA-9EDA-EFF269A687EC";
name = Light;
width = 540;
}
);
rightKerningGroup = knVirama;
unicode = 0CCD;
},
